  0
SECTION
  2
HEADER
  9
$ACADVER
  1
AC1014
  9
$ACADMAINTVER
 70
     9
  9
$DWGCODEPAGE
  3
ANSI_1252
  9
$INSBASE
 10
0.0
 20
0.0
 30
0.0
  9
$EXTMIN
 10
1.000000000000000E+20
 20
1.000000000000000E+20
 30
1.000000000000000E+20
  9
$EXTMAX
 10
-1.000000000000000E+20
 20
-1.000000000000000E+20
 30
-1.000000000000000E+20
  9
$LIMMIN
 10
0.0
 20
0.0
  9
$LIMMAX
 10
420.0
 20
297.0
  9
$ORTHOMODE
 70
     0
  9
$REGENMODE
 70
     1
  9
$FILLMODE
 70
     1
  9
$QTEXTMODE
 70
     0
  9
$MIRRTEXT
 70
     1
  9
$DRAGMODE
 70
     2
  9
$LTSCALE
 40
1.0
  9
$OSMODE
 70
    37
  9
$ATTMODE
 70
     1
  9
$TEXTSIZE
 40
2.5
  9
$TRACEWID
 40
1.0
  9
$TEXTSTYLE
  7
STANDARD
  9
$CLAYER
  8
0
  9
$CELTYPE
  6
BYLAYER
  9
$CECOLOR
 62
   256
  9
$CELTSCALE
 40
1.0
  9
$DELOBJ
 70
     1
  9
$DISPSILH
 70
     0
  9
$DIMSCALE
 40
1.0
  9
$DIMASZ
 40
2.5
  9
$DIMEXO
 40
0.625
  9
$DIMDLI
 40
3.75
  9
$DIMRND
 40
0.0
  9
$DIMDLE
 40
0.0
  9
$DIMEXE
 40
1.25
  9
$DIMTP
 40
0.0
  9
$DIMTM
 40
0.0
  9
$DIMTXT
 40
2.5
  9
$DIMCEN
 40
2.5
  9
$DIMTSZ
 40
0.0
  9
$DIMTOL
 70
     0
  9
$DIMLIM
 70
     0
  9
$DIMTIH
 70
     0
  9
$DIMTOH
 70
     0
  9
$DIMSE1
 70
     0
  9
$DIMSE2
 70
     0
  9
$DIMTAD
 70
     1
  9
$DIMZIN
 70
     8
  9
$DIMBLK
  1

  9
$DIMASO
 70
     1
  9
$DIMSHO
 70
     1
  9
$DIMPOST
  1

  9
$DIMAPOST
  1

  9
$DIMALT
 70
     0
  9
$DIMALTD
 70
     3
  9
$DIMALTF
 40
1000.0
  9
$DIMLFAC
 40
1.0
  9
$DIMTOFL
 70
     1
  9
$DIMTVP
 40
0.0
  9
$DIMTIX
 70
     0
  9
$DIMSOXD
 70
     0
  9
$DIMSAH
 70
     0
  9
$DIMBLK1
  1

  9
$DIMBLK2
  1

  9
$DIMSTYLE
  2
ISO-25
  9
$DIMCLRD
 70
     0
  9
$DIMCLRE
 70
     0
  9
$DIMCLRT
 70
     0
  9
$DIMTFAC
 40
1.0
  9
$DIMGAP
 40
0.625
  9
$DIMJUST
 70
     0
  9
$DIMSD1
 70
     0
  9
$DIMSD2
 70
     0
  9
$DIMTOLJ
 70
     0
  9
$DIMTZIN
 70
     8
  9
$DIMALTZ
 70
     0
  9
$DIMALTTZ
 70
     0
  9
$DIMFIT
 70
     3
  9
$DIMUPT
 70
     0
  9
$DIMUNIT
 70
     2
  9
$DIMDEC
 70
     2
  9
$DIMTDEC
 70
     2
  9
$DIMALTU
 70
     2
  9
$DIMALTTD
 70
     3
  9
$DIMTXSTY
  7
STANDARD
  9
$DIMAUNIT
 70
     0
  9
$LUNITS
 70
     2
  9
$LUPREC
 70
     4
  9
$SKETCHINC
 40
1.0
  9
$FILLETRAD
 40
0.0
  9
$AUNITS
 70
     0
  9
$AUPREC
 70
     0
  9
$MENU
  1
.
  9
$ELEVATION
 40
0.0
  9
$PELEVATION
 40
0.0
  9
$THICKNESS
 40
0.0
  9
$LIMCHECK
 70
     0
  9
$CHAMFERA
 40
0.0
  9
$CHAMFERB
 40
0.0
  9
$CHAMFERC
 40
0.0
  9
$CHAMFERD
 40
0.0
  9
$SKPOLY
 70
     0
  9
$TDCREATE
 40
2460952.610778507
  9
$TDUPDATE
 40
2460952.610778542
  9
$TDINDWG
 40
0.0000000116
  9
$TDUSRTIMER
 40
0.0000000116
  9
$USRTIMER
 70
     1
  9
$ANGBASE
 50
0.0
  9
$ANGDIR
 70
     0
  9
$PDMODE
 70
     0
  9
$PDSIZE
 40
0.0
  9
$PLINEWID
 40
0.0
  9
$COORDS
 70
     1
  9
$SPLFRAME
 70
     0
  9
$SPLINETYPE
 70
     6
  9
$SPLINESEGS
 70
     8
  9
$ATTDIA
 70
     0
  9
$ATTREQ
 70
     1
  9
$HANDLING
 70
     1
  9
$HANDSEED
  5
100000BF
  9
$SURFTAB1
 70
     6
  9
$SURFTAB2
 70
     6
  9
$SURFTYPE
 70
     6
  9
$SURFU
 70
     6
  9
$SURFV
 70
     6
  9
$UCSNAME
  2

  9
$UCSORG
 10
0.0
 20
0.0
 30
0.0
  9
$UCSXDIR
 10
1.0
 20
0.0
 30
0.0
  9
$UCSYDIR
 10
0.0
 20
1.0
 30
0.0
  9
$PUCSNAME
  2

  9
$PUCSORG
 10
0.0
 20
0.0
 30
0.0
  9
$PUCSXDIR
 10
1.0
 20
0.0
 30
0.0
  9
$PUCSYDIR
 10
0.0
 20
1.0
 30
0.0
  9
$USERI1
 70
     0
  9
$USERI2
 70
     0
  9
$USERI3
 70
     0
  9
$USERI4
 70
     0
  9
$USERI5
 70
     0
  9
$USERR1
 40
0.0
  9
$USERR2
 40
0.0
  9
$USERR3
 40
0.0
  9
$USERR4
 40
0.0
  9
$USERR5
 40
0.0
  9
$WORLDVIEW
 70
     1
  9
$SHADEDGE
 70
     3
  9
$SHADEDIF
 70
    70
  9
$TILEMODE
 70
     1
  9
$MAXACTVP
 70
    64
  9
$PINSBASE
 10
0.0
 20
0.0
 30
0.0
  9
$PLIMCHECK
 70
     0
  9
$PEXTMIN
 10
1.000000000000000E+20
 20
1.000000000000000E+20
 30
1.000000000000000E+20
  9
$PEXTMAX
 10
-1.000000000000000E+20
 20
-1.000000000000000E+20
 30
-1.000000000000000E+20
  9
$PLIMMIN
 10
0.0
 20
0.0
  9
$PLIMMAX
 10
420.0
 20
297.0
  9
$UNITMODE
 70
     0
  9
$VISRETAIN
 70
     1
  9
$PLINEGEN
 70
     0
  9
$PSLTSCALE
 70
     1
  9
$TREEDEPTH
 70
  3020
  9
$PICKSTYLE
 70
     1
  9
$CMLSTYLE
  2
STANDARD
  9
$CMLJUST
 70
     0
  9
$CMLSCALE
 40
20.0
  9
$PROXYGRAPHICS
 70
     1
  9
$MEASUREMENT
 70
     1
  0
ENDSEC
  0
SECTION
  2
CLASSES
  0
CLASS
  1
ACDBDICTIONARYWDFLT
  2
AcDbDictionaryWithDefault
  3
ObjectDBX Classes
 90
        0
280
     0
281
     0
  0
CLASS
  1
VISUALSTYLE
  2
AcDbVisualStyle
  3
ObjectDBX Classes
 90
     4095
280
     0
281
     0
  0
CLASS
  1
MATERIAL
  2
AcDbMaterial
  3
ObjectDBX Classes
 90
     1153
280
     0
281
     0
  0
CLASS
  1
SCALE
  2
AcDbScale
  3
ObjectDBX Classes
 90
     1153
280
     0
281
     0
  0
CLASS
  1
TABLESTYLE
  2
AcDbTableStyle
  3
ObjectDBX Classes
 90
     4095
280
     0
281
     0
  0
CLASS
  1
MLEADERSTYLE
  2
AcDbMLeaderStyle
  3
ACDB_MLEADERSTYLE_CLASS
 90
     4095
280
     0
281
     0
  0
CLASS
  1
SUN
  2
AcDbSun
  3
SCENEOE
 90
     1153
280
     0
281
     0
  0
CLASS
  1
SORTENTSTABLE
  2
AcDbSortentsTable
  3
ObjectDBX Classes
 90
        0
280
     0
281
     0
  0
CLASS
  1
DICTIONARYVAR
  2
AcDbDictionaryVar
  3
ObjectDBX Classes
 90
        0
280
     0
281
     0
  0
CLASS
  1
XRECORD
  2
AcDbXrecord
  3
ObjectDBX Classes
 90
        0
280
     0
281
     0
  0
CLASS
  1
LWPOLYLINE
  2
AcDbPolyline
  3
ObjectDBX Classes
 90
        0
280
     0
281
     1
  0
CLASS
  1
HATCH
  2
AcDbHatch
  3
ObjectDBX Classes
 90
        0
280
     0
281
     1
  0
CLASS
  1
ACDBPLACEHOLDER
  2
AcDbPlaceHolder
  3
ObjectDBX Classes
 90
        0
280
     0
281
     0
  0
CLASS
  1
LAYOUT
  2
AcDbLayout
  3
ObjectDBX Classes
 90
        0
280
     0
281
     0
  0
ENDSEC
  0
SECTION
  2
TABLES
  0
TABLE
  2
VPORT
  5
8
102
{ACAD_XDICTIONARY
360
100000B4
102
}
330
0
100
AcDbSymbolTable
 70
     1
  0
VPORT
  5
29
330
8
100
AcDbSymbolTableRecord
100
AcDbViewportTableRecord
  2
*ACTIVE
 70
     0
 10
0.0
 20
0.0
 11
1.0
 21
1.0
 12
344.1869158878504
 22
148.5
 13
0.0
 23
0.0
 14
10.0
 24
10.0
 15
10.0
 25
10.0
 16
0.0
 26
0.0
 36
1.0
 17
0.0
 27
0.0
 37
0.0
 40
297.0
 41
1.972972972850329
 42
50.0
 43
0.0
 44
0.0
 50
0.0
 51
0.0
 71
     0
 72
   100
 73
     1
 74
     3
 75
     0
 76
     0
 77
     0
 78
     0
  0
ENDTAB
  0
TABLE
  2
LTYPE
  5
5
330
0
100
AcDbSymbolTable
 70
     7
  0
LTYPE
  5
14
330
5
100
AcDbSymbolTableRecord
100
AcDbLinetypeTableRecord
  2
BYBLOCK
 70
     0
  3

 72
    65
 73
     0
 40
0.0
  0
LTYPE
  5
15
330
5
100
AcDbSymbolTableRecord
100
AcDbLinetypeTableRecord
  2
BYLAYER
 70
     0
  3

 72
    65
 73
     0
 40
0.0
  0
LTYPE
  5
16
330
5
100
AcDbSymbolTableRecord
100
AcDbLinetypeTableRecord
  2
CONTINUOUS
 70
     0
  3
Solid line
 72
    65
 73
     0
 40
0.0
  0
LTYPE
  5
10000024
330
5
100
AcDbSymbolTableRecord
100
AcDbLinetypeTableRecord
  2
ONS_PHANTOM
 70
     0
  3
Onshape Phantom line ______ __ __ ______
 72
    65
 73
     6
 40
0.4999999999999999
 49
0.25
 74
     0
 49
-0.05
 74
     0
 49
0.05
 74
     0
 49
-0.05
 74
     0
 49
0.05
 74
     0
 49
-0.05
 74
     0
  0
LTYPE
  5
10000025
330
5
100
AcDbSymbolTableRecord
100
AcDbLinetypeTableRecord
  2
CENTER
 70
     0
  3
Center line ____ _ ____ _ ____ _
 72
    65
 73
     4
 40
0.7874015748031495
 49
0.4921259842519685
 74
     0
 49
-0.0984251968503937
 74
     0
 49
0.0984251968503937
 74
     0
 49
-0.0984251968503937
 74
     0
  0
LTYPE
  5
10000026
330
5
100
AcDbSymbolTableRecord
100
AcDbLinetypeTableRecord
  2
DASHED
 70
     0
  3
Dashed line __ __ __ __ __
 72
    65
 73
     2
 40
0.75
 49
0.5
 74
     0
 49
-0.25
 74
     0
  0
LTYPE
  5
10000027
330
5
100
AcDbSymbolTableRecord
100
AcDbLinetypeTableRecord
  2
ONS_DASHDOT
 70
     0
  3
Onshape Dashed with Dot _ . ____ . ____
 72
    65
 73
     4
 40
0.71
 49
0.5
 74
     0
 49
-0.1
 74
     0
 49
0.01
 74
     0
 49
-0.1
 74
     0
  0
LTYPE
  5
10000028
330
5
100
AcDbSymbolTableRecord
100
AcDbLinetypeTableRecord
  2
ONS_DOTTED
 70
     0
  3
Onshape Dotted line . . . . . . .
 72
    65
 73
     2
 40
0.11
 49
0.01
 74
     0
 49
-0.1
 74
     0
  0
LTYPE
  5
10000029
330
5
100
AcDbSymbolTableRecord
100
AcDbLinetypeTableRecord
  2
HIDDEN
 70
     0
  3
Hidden line ____ ____ ____ ____ 
 72
    65
 73
     2
 40
0.15
 49
0.1
 74
     0
 49
-0.05
 74
     0
  0
ENDTAB
  0
TABLE
  2
LAYER
  5
2
330
0
100
AcDbSymbolTable
 70
    48
  0
LAYER
  5
10
330
2
100
AcDbSymbolTableRecord
100
AcDbLayerTableRecord
  2
0
 70
     0
 62
     7
  6
CONTINUOUS
  0
LAYER
  5
1000002A
330
2
100
AcDbSymbolTableRecord
100
AcDbLayerTableRecord
  2
SECTION_CUTTING_LINE
 70
     0
 62
     7
  6
ONS_DASHDOT
  0
LAYER
  5
1000002B
330
2
100
AcDbSymbolTableRecord
100
AcDbLayerTableRecord
  2
DETAIL_VIEW_BORDER
 70
     0
 62
     7
  6
CONTINUOUS
  0
LAYER
  5
1000002C
330
2
100
AcDbSymbolTableRecord
100
AcDbLayerTableRecord
  2
DETAIL_VIEW_PARENT_BORDER
 70
     0
 62
     7
  6
ONS_PHANTOM
  0
LAYER
  5
1000002D
330
2
100
AcDbSymbolTableRecord
100
AcDbLayerTableRecord
  2
TEXT
 70
     0
 62
     7
  6
CONTINUOUS
  0
LAYER
  5
1000002E
330
2
100
AcDbSymbolTableRecord
100
AcDbLayerTableRecord
  2
SKETCHED_GEOMETRY
 70
     0
 62
    -7
  6
CONTINUOUS
  0
LAYER
  5
1000002F
330
2
100
AcDbSymbolTableRecord
100
AcDbLayerTableRecord
  2
VIRTUAL_SHARPS
 70
     0
 62
    -7
  6
CONTINUOUS
  0
LAYER
  5
10000030
330
2
100
AcDbSymbolTableRecord
100
AcDbLayerTableRecord
  2
CENTERLINES
 70
     0
 62
    -7
  6
CENTER
  0
LAYER
  5
10000031
330
2
100
AcDbSymbolTableRecord
100
AcDbLayerTableRecord
  2
CENTERMARKS
 70
     0
 62
    -7
  6
CONTINUOUS
  0
LAYER
  5
10000032
330
2
100
AcDbSymbolTableRecord
100
AcDbLayerTableRecord
  2
TABLES
 70
     0
 62
     7
  6
CONTINUOUS
  0
LAYER
  5
10000033
330
2
100
AcDbSymbolTableRecord
100
AcDbLayerTableRecord
  2
IMAGES
 70
     0
 62
    -7
  6
CONTINUOUS
  0
LAYER
  5
10000034
330
2
100
AcDbSymbolTableRecord
100
AcDbLayerTableRecord
  2
ANNOTATION_LINES
 70
     0
 62
    -7
  6
CONTINUOUS
  0
LAYER
  5
10000035
330
2
100
AcDbSymbolTableRecord
100
AcDbLayerTableRecord
  2
ANNOTATION_TEXT
 70
     0
 62
    -7
  6
CONTINUOUS
  0
LAYER
  5
10000036
330
2
100
AcDbSymbolTableRecord
100
AcDbLayerTableRecord
  2
SIDE_THREAD_SYMBOLS
 70
     0
 62
     7
  6
CONTINUOUS
  0
LAYER
  5
10000037
330
2
100
AcDbSymbolTableRecord
100
AcDbLayerTableRecord
  2
SIDE_THREAD_SYMBOLS_HIDDEN
 70
     0
 62
    -7
  6
HIDDEN
  0
LAYER
  5
10000038
330
2
100
AcDbSymbolTableRecord
100
AcDbLayerTableRecord
  2
SURFACE_THREAD_SYMBOLS
 70
     0
 62
     7
  6
CONTINUOUS
  0
LAYER
  5
10000039
330
2
100
AcDbSymbolTableRecord
100
AcDbLayerTableRecord
  2
SURFACE_THREAD_SYMBOLS_ON_
 70
     0
 62
     7
  6
CONTINUOUS
  0
LAYER
  5
1000003A
330
2
100
AcDbSymbolTableRecord
100
AcDbLayerTableRecord
  2
SURFACE_THREAD_SYMBOLS_HID
 70
     0
 62
    -7
  6
HIDDEN
  0
LAYER
  5
1000003B
330
2
100
AcDbSymbolTableRecord
100
AcDbLayerTableRecord
  2
BLIND_THREAD_SYMBOLS
 70
     0
 62
     7
  6
CONTINUOUS
  0
LAYER
  5
1000003C
330
2
100
AcDbSymbolTableRecord
100
AcDbLayerTableRecord
  2
BLIND_THREAD_SYMBOLS_HIDDE
 70
     0
 62
    -7
  6
HIDDEN
  0
LAYER
  5
1000003D
330
2
100
AcDbSymbolTableRecord
100
AcDbLayerTableRecord
  2
EXPLODE_LINES
 70
     0
 62
     7
  6
ONS_PHANTOM
  0
LAYER
  5
1000003E
330
2
100
AcDbSymbolTableRecord
100
AcDbLayerTableRecord
  2
HIDDEN_EXPLODE_LINES
 70
     0
 62
    -7
  6
ONS_PHANTOM
  0
LAYER
  5
1000003F
330
2
100
AcDbSymbolTableRecord
100
AcDbLayerTableRecord
  2
BREAK_LINES
 70
     0
 62
    -7
  6
CONTINUOUS
  0
LAYER
  5
10000040
330
2
100
AcDbSymbolTableRecord
100
AcDbLayerTableRecord
  2
SHEETMETAL_BEND_LINES_UP
 70
     0
 62
     7
  6
CENTER
  0
LAYER
  5
10000041
330
2
100
AcDbSymbolTableRecord
100
AcDbLayerTableRecord
  2
SHEETMETAL_BEND_LINES_DOWN
 70
     0
 62
     7
  6
CENTER
  0
LAYER
  5
10000042
330
2
100
AcDbSymbolTableRecord
100
AcDbLayerTableRecord
  2
SHEETMETAL_BEND_TANGENT_LI
 70
     0
 62
     7
  6
CONTINUOUS
  0
LAYER
  5
10000043
330
2
100
AcDbSymbolTableRecord
100
AcDbLayerTableRecord
  2
SHEETMETAL_CUT_LINES
 70
     0
 62
     7
  6
CONTINUOUS
  0
LAYER
  5
10000044
330
2
100
AcDbSymbolTableRecord
100
AcDbLayerTableRecord
  2
SHEETMETAL_CBORE_CSINK_UP
 70
     0
 62
     7
  6
CONTINUOUS
  0
LAYER
  5
10000045
330
2
100
AcDbSymbolTableRecord
100
AcDbLayerTableRecord
  2
SHEETMETAL_CBORE_CSINK_DOW
 70
     0
 62
     7
  6
CONTINUOUS
  0
LAYER
  5
10000046
330
2
100
AcDbSymbolTableRecord
100
AcDbLayerTableRecord
  2
SHEETMETAL_CBORE_CSINK_UP_
 70
     0
 62
    -7
  6
HIDDEN
  0
LAYER
  5
10000047
330
2
100
AcDbSymbolTableRecord
100
AcDbLayerTableRecord
  2
SHEETMETAL_CBORE_CSINK_DO0
 70
     0
 62
    -7
  6
HIDDEN
  0
LAYER
  5
10000048
330
2
100
AcDbSymbolTableRecord
100
AcDbLayerTableRecord
  2
SHEETMETAL_FORM_TEAR
 70
     0
 62
     7
  6
CONTINUOUS
  0
LAYER
  5
10000049
330
2
100
AcDbSymbolTableRecord
100
AcDbLayerTableRecord
  2
SHEETMETAL_FORM_UP
 70
     0
 62
     7
  6
CENTER
  0
LAYER
  5
1000004A
330
2
100
AcDbSymbolTableRecord
100
AcDbLayerTableRecord
  2
SHEETMETAL_FORM_DOWN
 70
     0
 62
     7
  6
CENTER
  0
LAYER
  5
1000004B
330
2
100
AcDbSymbolTableRecord
100
AcDbLayerTableRecord
  2
SHEETMETAL_FORM_CENTERMARK
 70
     0
 62
     7
  6
CENTER
  0
LAYER
  5
1000004C
330
2
100
AcDbSymbolTableRecord
100
AcDbLayerTableRecord
  2
REGION_ASSOC_POINTS
 70
     0
 62
    -7
  6
CONTINUOUS
  0
LAYER
  5
1000004D
330
2
100
AcDbSymbolTableRecord
100
AcDbLayerTableRecord
  2
PATTERN_CENTERLINES
 70
     1
 62
    -7
  6
CENTER
  0
LAYER
  5
1000004E
330
2
100
AcDbSymbolTableRecord
100
AcDbLayerTableRecord
  2
HIDDEN
 70
     0
 62
    -7
  6
HIDDEN
  0
LAYER
  5
1000004F
330
2
100
AcDbSymbolTableRecord
100
AcDbLayerTableRecord
  2
VISIBLE
 70
     0
 62
     7
  6
CONTINUOUS
  0
LAYER
  5
10000050
330
2
100
AcDbSymbolTableRecord
100
AcDbLayerTableRecord
  2
MODELSKETCH_VISIBLE
 70
     0
 62
     7
  6
CONTINUOUS
  0
LAYER
  5
10000051
330
2
100
AcDbSymbolTableRecord
100
AcDbLayerTableRecord
  2
MODELSKETCH_POINT
 70
     0
 62
     7
  6
CONTINUOUS
  0
LAYER
  5
10000052
330
2
100
AcDbSymbolTableRecord
100
AcDbLayerTableRecord
  2
MODELSKETCH_CONSTRUCTION
 70
     0
 62
    -7
  6
CENTER
  0
LAYER
  5
10000053
330
2
100
AcDbSymbolTableRecord
100
AcDbLayerTableRecord
  2
HIDDEN_BASE_VIEW
 70
     0
 62
     7
  6
CONTINUOUS
  0
LAYER
  5
10000054
330
2
100
AcDbSymbolTableRecord
100
AcDbLayerTableRecord
  2
TANGENT_LINES
 70
     0
 62
    -7
  6
CONTINUOUS
  0
LAYER
  5
10000055
330
2
100
AcDbSymbolTableRecord
100
AcDbLayerTableRecord
  2
TANGENT_HIDDEN
 70
     0
 62
    -7
  6
HIDDEN
  0
LAYER
  5
10000056
330
2
100
AcDbSymbolTableRecord
100
AcDbLayerTableRecord
  2
INVISIBLE_LINES
 70
     0
 62
    -7
  6
CONTINUOUS
  0
LAYER
  5
10000057
330
2
100
AcDbSymbolTableRecord
100
AcDbLayerTableRecord
  2
VIEW_HATCHES
 70
     0
 62
    -7
  6
CONTINUOUS
  0
LAYER
  5
10000058
330
2
100
AcDbSymbolTableRecord
100
AcDbLayerTableRecord
  2
SECTION_JOG_LINES
 70
     0
 62
    -7
  6
CONTINUOUS
  0
ENDTAB
  0
TABLE
  2
STYLE
  5
3
330
0
100
AcDbSymbolTable
 70
     2
  0
STYLE
  5
11
330
3
100
AcDbSymbolTableRecord
100
AcDbTextStyleTableRecord
  2
STANDARD
 70
     0
 40
0.0
 41
1.0
 50
0.0
 71
     0
 42
2.5
  3
txt
  4

  0
STYLE
  5
10000004
330
3
100
AcDbSymbolTableRecord
100
AcDbTextStyleTableRecord
  2
TTFSTYLE
 70
     0
 40
0.0
 41
1.0
 50
0.0
 71
     0
 42
2.5
  3

  4

1001
ACAD
1000
Verdana
1071
       34
  0
ENDTAB
  0
TABLE
  2
VIEW
  5
6
330
0
100
AcDbSymbolTable
 70
     0
  0
ENDTAB
  0
TABLE
  2
UCS
  5
7
330
0
100
AcDbSymbolTable
 70
     0
  0
ENDTAB
  0
TABLE
  2
APPID
  5
9
330
0
100
AcDbSymbolTable
 70
     2
  0
APPID
  5
12
330
9
100
AcDbSymbolTableRecord
100
AcDbRegAppTableRecord
  2
ACAD
 70
     0
  0
APPID
  5
100000BE
330
9
100
AcDbSymbolTableRecord
100
AcDbRegAppTableRecord
  2
ACAD_MLEADERVER
 70
     0
  0
ENDTAB
  0
TABLE
  2
DIMSTYLE
  5
A
330
0
100
AcDbSymbolTable
 70
     1
  0
DIMSTYLE
105
27
330
A
100
AcDbSymbolTableRecord
100
AcDbDimStyleTableRecord
  2
ISO-25
 70
     0
  3

  4

  5

  6

  7

 40
1.0
 41
2.5
 42
0.625
 43
3.75
 44
1.25
 45
0.0
 46
0.0
 47
0.0
 48
0.0
140
2.5
141
2.5
142
0.0
143
0.03937007874016
144
1.0
145
0.0
146
1.0
147
0.625
 71
     0
 72
     0
 73
     0
 74
     0
 75
     0
 76
     0
 77
     1
 78
     8
170
     0
171
     3
172
     1
173
     0
174
     0
175
     0
176
     0
177
     0
178
     0
270
     2
271
     2
272
     2
273
     2
274
     3
340
11
275
     0
280
     0
281
     0
282
     0
283
     0
284
     8
285
     0
286
     0
287
     3
288
     0
  0
ENDTAB
  0
TABLE
  2
BLOCK_RECORD
  5
1
330
0
100
AcDbSymbolTable
 70
     0
  0
BLOCK_RECORD
  5
1F
102
{ACAD_XDICTIONARY
360
10000085
102
}
330
1
100
AcDbSymbolTableRecord
100
AcDbBlockTableRecord
  2
*MODEL_SPACE
  0
BLOCK_RECORD
  5
1B
330
1
100
AcDbSymbolTableRecord
100
AcDbBlockTableRecord
  2
*PAPER_SPACE
  0
ENDTAB
  0
ENDSEC
  0
SECTION
  2
BLOCKS
  0
BLOCK
  5
20
330
1F
100
AcDbEntity
  8
0
100
AcDbBlockBegin
  2
*MODEL_SPACE
 70
     0
 10
0.0
 20
0.0
 30
0.0
  3
*MODEL_SPACE
  1

  0
ENDBLK
  5
21
330
1F
100
AcDbEntity
  8
0
100
AcDbBlockEnd
  0
BLOCK
  5
1C
330
1B
100
AcDbEntity
 67
     1
  8
0
100
AcDbBlockBegin
  2
*PAPER_SPACE
 70
     0
 10
0.0
 20
0.0
 30
0.0
  3
*PAPER_SPACE
  1

  0
ENDBLK
  5
1D
330
1B
100
AcDbEntity
 67
     1
  8
0
100
AcDbBlockEnd
  0
ENDSEC
  0
SECTION
  2
ENTITIES
  0
SPLINE
  5
10000059
102
{ACAD_XDICTIONARY
360
1000005A
102
}
330
1F
100
AcDbEntity
  8
MODELSKETCH_VISIBLE
100
AcDbSpline
210
0.0
220
0.0
230
1.0
 70
     8
 71
     3
 72
    23
 73
    19
 74
     0
 42
0.0000000001
 43
0.00000001
 40
0.0
 40
0.0
 40
0.0
 40
0.0
 40
0.0529213939397199
 40
0.1161620721495323
 40
0.172050518335759
 40
0.2093218913324039
 40
0.2791889524941601
 40
0.3558843942497068
 40
0.4300031441387231
 40
0.4653371911316408
 40
0.5111693453760081
 40
0.5546045032354916
 40
0.6140097009740326
 40
0.7021437799144528
 40
0.7863558066347459
 40
0.8733351857725905
 40
0.9449803579414779
 40
1.0
 40
1.0
 40
1.0
 40
1.0
 10
128.7900971953191
 20
24.43587112426758
 30
0.0
 10
129.339012383882
 20
24.94248136376631
 30
0.0
 10
130.5388641411498
 20
26.05004209954019
 30
0.0
 10
132.8263521393507
 20
28.38322568847775
 30
0.0
 10
133.9785527844514
 20
30.91198768494252
 30
0.0
 10
134.6708384945773
 20
31.82372061998638
 30
0.0
 10
137.2949161683392
 20
35.4831235498673
 30
0.0
 10
137.3703658173978
 20
40.01033260824853
 30
0.0
 10
137.0999854020067
 20
44.85118129615041
 30
0.0
 10
136.8962865546479
 20
45.87854467576101
 30
0.0
 10
135.8428662944166
 20
47.48247674347799
 30
0.0
 10
134.7477895164186
 20
48.6274553310321
 30
0.0
 10
132.6187385550432
 20
50.85712810671841
 30
0.0
 10
127.1529879012517
 20
54.46481483751781
 30
0.0
 10
122.1101124639174
 20
57.13801113234368
 30
0.0
 10
117.6180848403888
 20
61.70714215946121
 30
0.0
 10
114.6774317572102
 20
64.8683023005448
 30
0.0
 10
113.4721109790289
 20
66.2611963355345
 30
0.0
 10
112.9339215207187
 20
66.86415100097656
 30
0.0
  0
SPLINE
  5
1000005D
102
{ACAD_XDICTIONARY
360
1000005E
102
}
330
1F
100
AcDbEntity
  8
MODELSKETCH_VISIBLE
100
AcDbSpline
210
0.0
220
0.0
230
1.0
 70
     8
 71
     3
 72
    54
 73
    50
 74
     0
 42
0.0000000001
 43
0.00000001
 40
0.0
 40
0.0
 40
0.0
 40
0.0
 40
0.0181844983636481
 40
0.032579057630166
 40
0.0470461954001025
 40
0.0589790279237349
 40
0.0728902737941572
 40
0.0894316296548614
 40
0.1108682481416343
 40
0.1220034055889207
 40
0.1337067174916765
 40
0.1444282987625052
 40
0.1557649422630753
 40
0.1873020895123922
 40
0.1969448846669705
 40
0.2110594750513038
 40
0.2347395567509577
 40
0.2575311376032948
 40
0.2740741452917604
 40
0.2890357234476654
 40
0.3027230534530603
 40
0.3254496616598375
 40
0.3441881280376322
 40
0.3639228875759458
 40
0.3823745764104946
 40
0.3999313728486953
 40
0.4278154753920173
 40
0.4447462260923509
 40
0.4628768822097324
 40
0.4847905412669475
 40
0.5124136796433139
 40
0.5410382961478345
 40
0.5676950251617453
 40
0.5826344516636328
 40
0.6639129798911991
 40
0.6817441061323383
 40
0.7133980945095595
 40
0.7412445502416019
 40
0.7641000875609593
 40
0.7862718003387149
 40
0.8104070051821631
 40
0.8337566140159393
 40
0.8558760273211258
 40
0.8848797967270443
 40
0.9099754383689215
 40
0.9337195801517096
 40
0.9555139815352464
 40
0.9778113862671235
 40
1.0
 40
1.0
 40
1.0
 40
1.0
 10
135.5452442428178
 20
-121.1437911987305
 30
0.0
 10
135.236004503248
 20
-120.4075089622257
 30
0.0
 10
134.6736654439564
 20
-119.0686116366684
 30
0.0
 10
133.8255081505197
 20
-117.9518361386372
 30
0.0
 10
132.6545194190116
 20
-116.9939147627866
 30
0.0
 10
131.6736672468924
 20
-116.7954917277632
 30
0.0
 10
130.256632619771
 20
-116.8956321973318
 30
0.0
 10
128.5579227064777
 20
-117.0442144349045
 30
0.0
 10
125.3472149712765
 20
-117.212880614212
 30
0.0
 10
124.5488619011359
 20
-116.9899675849828
 30
0.0
 10
123.6710666149289
 20
-116.4934203097726
 30
0.0
 10
123.2864618881033
 20
-115.6697275416809
 30
0.0
 10
122.8501766832759
 20
-115.1254087763565
 30
0.0
 10
119.7426971059663
 20
-108.8564517516838
 30
0.0
 10
119.6558398582868
 20
-108.3615189121116
 30
0.0
 10
118.8457367991678
 20
-106.9408796277178
 30
0.0
 10
115.9406457838423
 20
-104.6479895995032
 30
0.0
 10
113.1443948621512
 20
-102.6176425836236
 30
0.0
 10
111.8178310593131
 20
-101.2509313173525
 30
0.0
 10
111.1082778648189
 20
-99.74114135177344
 30
0.0
 10
110.7903980160605
 20
-98.52189754759401
 30
0.0
 10
111.1345111293912
 20
-94.87164124935339
 30
0.0
 10
111.8009402665011
 20
-92.74354885254112
 30
0.0
 10
111.660499729989
 20
-89.90363638342701
 30
0.0
 10
110.0216359000131
 20
-87.95551747313961
 30
0.0
 10
108.4387831718867
 20
-86.84436855457177
 30
0.0
 10
104.2453801939221
 20
-83.29921311018197
 30
0.0
 10
103.4717438290583
 20
-81.58432951680611
 30
0.0
 10
102.4931936169188
 20
-79.30891060502701
 30
0.0
 10
102.6184930561497
 20
-76.01013195680393
 30
0.0
 10
102.8596172801118
 20
-70.71879523284393
 30
0.0
 10
104.0960874911843
 20
-65.80793028736336
 30
0.0
 10
105.6197788188999
 20
-60.40811777789803
 30
0.0
 10
105.9459117214376
 20
-59.92295195276069
 30
0.0
 10
105.8261422275567
 20
-13.09963094071981
 30
0.0
 10
105.5068939184011
 20
-12.4018463450572
 30
0.0
 10
102.8564183410543
 20
-5.203417352791831
 30
0.0
 10
101.1323028100824
 20
-0.6613544367284037
 30
0.0
 10
101.1153451592181
 20
3.131425613095181
 30
0.0
 10
101.1986373280444
 20
6.526365619523889
 30
0.0
 10
102.4096548511191
 20
10.31572627992108
 30
0.0
 10
103.9309420330382
 20
13.84127934883524
 30
0.0
 10
106.4906781682709
 20
16.13894623101744
 30
0.0
 10
111.9574657289692
 20
18.16958195752756
 30
0.0
 10
115.7429608283154
 20
19.87849052973656
 30
0.0
 10
119.6448821257662
 20
20.61516391242053
 30
0.0
 10
122.8269413120187
 20
21.31124846011515
 30
0.0
 10
126.0041127687799
 20
22.35731878691727
 30
0.0
 10
128.1114475105599
 20
23.80543664010708
 30
0.0
 10
128.7900971953191
 20
24.43587112426758
 30
0.0
  0
SPLINE
  5
10000061
102
{ACAD_XDICTIONARY
360
10000062
102
}
330
1F
100
AcDbEntity
  8
MODELSKETCH_VISIBLE
100
AcDbSpline
210
0.0
220
0.0
230
1.0
 70
     8
 71
     3
 72
    18
 73
    14
 74
     0
 42
0.0000000001
 43
0.00000001
 40
0.0
 40
0.0
 40
0.0
 40
0.0
 40
0.0625870979894383
 40
0.1573300131903155
 40
0.2548914358113811
 40
0.3411753592927941
 40
0.4233946364753071
 40
0.5142406273221409
 40
0.6215303982486019
 40
0.742059068753686
 40
0.8482196157084889
 40
0.9355693881115834
 40
1.0
 40
1.0
 40
1.0
 40
1.0
 10
100.6785275682746
 20
-164.1199645996094
 30
0.0
 10
100.4039377341936
 20
-163.3461471121868
 30
0.0
 10
99.72067677338325
 20
-161.4206575297697
 30
0.0
 10
99.05731352273298
 20
-155.1507690050153
 30
0.0
 10
99.39267495388562
 20
-148.7450968554994
 30
0.0
 10
100.8125719012476
 20
-143.6359919657423
 30
0.0
 10
103.3889385462498
 20
-139.4821778562075
 30
0.0
 10
108.0502566312714
 20
-135.7856162622463
 30
0.0
 10
115.2753274356193
 20
-132.4637275013912
 30
0.0
 10
125.0176292715679
 20
-130.0527716933651
 30
0.0
 10
132.207707884385
 20
-128.1532824009346
 30
0.0
 10
137.2839664001482
 20
-124.0856229821133
 30
0.0
 10
136.196553861293
 20
-122.2463777385414
 30
0.0
 10
135.5452442428178
 20
-121.1437911987305
 30
0.0
  0
SPLINE
  5
10000065
102
{ACAD_XDICTIONARY
360
10000066
102
}
330
1F
100
AcDbEntity
  8
MODELSKETCH_VISIBLE
100
AcDbSpline
210
0.0
220
0.0
230
1.0
 70
     8
 71
     3
 72
    48
 73
    44
 74
     0
 42
0.0000000001
 43
0.00000001
 40
0.0
 40
0.0
 40
0.0
 40
0.0
 40
0.0296155870616368
 40
0.0644820623906711
 40
0.1008508335476562
 40
0.1358973742916605
 40
0.1653329793853138
 40
0.1941031995506481
 40
0.2214668209864523
 40
0.2561001645897202
 40
0.2929555738307221
 40
0.3330922517847063
 40
0.3708930887950261
 40
0.4019556824175357
 40
0.4191268771793732
 40
0.434659177310124
 40
0.455089034239453
 40
0.4822354997680089
 40
0.5122127526131424
 40
0.5362419919033735
 40
0.5591868643617555
 40
0.5820976993046547
 40
0.6048481460403309
 40
0.6317500356728322
 40
0.6569317857551737
 40
0.6731914283985131
 40
0.6877560475393628
 40
0.7059732525531236
 40
0.727273810577258
 40
0.7475144190094153
 40
0.7659219482842617
 40
0.7802198047708315
 40
0.8016971578607901
 40
0.8265017199595776
 40
0.8398829807457301
 40
0.8522938816416117
 40
0.8675014663649214
 40
0.8991559663720242
 40
0.9128635240087773
 40
0.9271646332874333
 40
0.945987131499517
 40
0.9735197642099974
 40
1.0
 40
1.0
 40
1.0
 40
1.0
 10
109.4356065674383
 20
-260.115966796875
 30
0.0
 10
108.8830359626604
 20
-258.6957511395311
 30
0.0
 10
107.6743912104107
 20
-255.5949051913246
 30
0.0
 10
105.9361096661152
 20
-249.1876036776861
 30
0.0
 10
104.6919487182734
 20
-242.2782862213538
 30
0.0
 10
104.1135836020183
 20
-235.6382364475378
 30
0.0
 10
103.7629073854958
 20
-230.7782775728292
 30
0.0
 10
106.462525107483
 20
-226.7622317986697
 30
0.0
 10
108.853530775254
 20
-223.5248917167336
 30
0.0
 10
113.9161353836765
 20
-219.0896271264758
 30
0.0
 10
119.9203520462759
 20
-215.1318850240364
 30
0.0
 10
127.448818407269
 20
-210.6786391743799
 30
0.0
 10
133.9217211346242
 20
-207.0222543995287
 30
0.0
 10
138.0334356960926
 20
-203.3450102280748
 30
0.0
 10
138.9510970299151
 20
-201.8842046119809
 30
0.0
 10
139.6554467613054
 20
-200.6594578988618
 30
0.0
 10
140.5132502965008
 20
-198.4629961138949
 30
0.0
 10
141.3801592841141
 20
-194.6621152784406
 30
0.0
 10
142.379243686825
 20
-189.933478539119
 30
0.0
 10
142.3051559807058
 20
-186.7669277132821
 30
0.0
 10
141.4458279833007
 20
-183.946764645843
 30
0.0
 10
139.9109385373158
 20
-181.4641369723032
 30
0.0
 10
137.3960841497738
 20
-179.7620632718716
 30
0.0
 10
133.4731898741973
 20
-180.1083503690233
 30
0.0
 10
130.0704666058316
 20
-180.1882313395784
 30
0.0
 10
128.5503225043365
 20
-180.205865191915
 30
0.0
 10
127.4029391492161
 20
-179.7203683047874
 30
0.0
 10
125.9634804569083
 20
-178.5836900639115
 30
0.0
 10
124.5088389329354
 20
-176.6194811546029
 30
0.0
 10
123.1136436329372
 20
-174.9810888084916
 30
0.0
 10
121.8185262265195
 20
-173.5876259788328
 30
0.0
 10
120.8649402055711
 20
-172.8217103127799
 30
0.0
 10
118.3412177659907
 20
-172.8271428534293
 30
0.0
 10
115.0701208513461
 20
-173.0961023746183
 30
0.0
 10
114.068759598081
 20
-173.0845144450574
 30
0.0
 10
113.1987865761393
 20
-173.5900233050413
 30
0.0
 10
112.0818651460875
 20
-173.7889221213463
 30
0.0
 10
106.5674547340404
 20
-174.0605506729633
 30
0.0
 10
105.6119834431744
 20
-173.8745560069626
 30
0.0
 10
104.6334030036117
 20
-173.0046427154678
 30
0.0
 10
103.6192346565909
 20
-171.3794459811013
 30
0.0
 10
101.638206880998
 20
-167.7300942143742
 30
0.0
 10
100.9567012055059
 20
-165.3441820310009
 30
0.0
 10
100.6785275682746
 20
-164.1199645996094
 30
0.0
  0
SPLINE
  5
10000069
102
{ACAD_XDICTIONARY
360
1000006A
102
}
330
1F
100
AcDbEntity
  8
MODELSKETCH_VISIBLE
100
AcDbSpline
210
0.0
220
0.0
230
1.0
 70
     8
 71
     3
 72
    65
 73
    61
 74
     0
 42
0.0000000001
 43
0.00000001
 40
0.0
 40
0.0
 40
0.0
 40
0.0
 40
0.0118774168947052
 40
0.027059279778796
 40
0.0388823117519756
 40
0.0514637060681265
 40
0.0638276062981123
 40
0.078236964763242
 40
0.0927250854273151
 40
0.1063837031205533
 40
0.1221380338073364
 40
0.1367259647494902
 40
0.1489856525452422
 40
0.1677802617520912
 40
0.183313391265034
 40
0.1961894620031296
 40
0.2076376014966678
 40
0.2240492410652016
 40
0.2367873221540237
 40
0.2404010903480031
 40
0.2531899631879402
 40
0.2633449967918945
 40
0.2770523623836986
 40
0.2875915540288593
 40
0.2996298437592213
 40
0.303085017003523
 40
0.316103232133531
 40
0.3378653063417083
 40
0.3622822711976156
 40
0.3879254783510672
 40
0.4106008207056326
 40
0.4226068440752094
 40
0.4349500197572782
 40
0.4453746026705072
 40
0.4562891852129489
 40
0.4684031415538711
 40
0.4802898965027473
 40
0.4919479071765867
 40
0.5048099669612938
 40
0.5219592234887812
 40
0.5455483534272674
 40
0.574759309616654
 40
0.6014307332465786
 40
0.6278463071438694
 40
0.6561012937576176
 40
0.6842447092393463
 40
0.7103167669680519
 40
0.7291028519842883
 40
0.7561363967555813
 40
0.7784641326849525
 40
0.8039847478279359
 40
0.8204281744140681
 40
0.8384720105120762
 40
0.8507064967060343
 40
0.8637283381689544
 40
0.887097877095709
 40
0.9126237188056481
 40
0.9403352845635943
 40
0.9722097596064786
 40
1.0
 40
1.0
 40
1.0
 40
1.0
 10
70.79495995443851
 20
-322.9093933105469
 30
0.0
 10
71.0516028109622
 20
-322.8587439838017
 30
0.0
 10
71.63884596781618
 20
-322.7428495812331
 30
0.0
 10
73.06215484662285
 20
-322.6540529786565
 30
0.0
 10
73.87418243968825
 20
-322.5829471695648
 30
0.0
 10
74.89094126864488
 20
-322.5667304476592
 30
0.0
 10
75.77500688008548
 20
-322.2928240050549
 30
0.0
 10
76.99836900563228
 20
-321.9534340206519
 30
0.0
 10
78.19539626598926
 20
-321.4997596473753
 30
0.0
 10
79.32077519729083
 20
-321.2467250425307
 30
0.0
 10
80.54926240845472
 20
-320.3659321864659
 30
0.0
 10
81.77309253410928
 20
-319.8130933151066
 30
0.0
 10
82.51335231532217
 20
-319.3135116398527
 30
0.0
 10
84.40891715593051
 20
-318.2063851611365
 30
0.0
 10
85.70144764588228
 20
-317.6977698494539
 30
0.0
 10
86.7144564698331
 20
-317.3100756280135
 30
0.0
 10
87.45329742427744
 20
-317.0002109701434
 30
0.0
 10
88.96137909314784
 20
-316.6663513407598
 30
0.0
 10
90.0598067697559
 20
-316.6418982108895
 30
0.0
 10
90.12121694642113
 20
-316.6667901761846
 30
0.0
 10
91.22420663230464
 20
-316.701115316111
 30
0.0
 10
91.70567461447442
 20
-316.7521429597238
 30
0.0
 10
92.9415441805219
 20
-316.9977443533377
 30
0.0
 10
93.40751459920637
 20
-317.286477847348
 30
0.0
 10
94.36991496249306
 20
-317.5077734202053
 30
0.0
 10
94.4353950661973
 20
-317.5122304463299
 30
0.0
 10
95.60259177770446
 20
-317.974224543078
 30
0.0
 10
98.17166396688692
 20
-319.0122649916534
 30
0.0
 10
101.2416836596923
 20
-320.8732338502927
 30
0.0
 10
104.3783275855629
 20
-323.0462014065631
 30
0.0
 10
106.6863313771786
 20
-325.3741625016011
 30
0.0
 10
107.2580724561531
 20
-326.0482760858364
 30
0.0
 10
108.0091744768808
 20
-326.6936693448349
 30
0.0
 10
108.5949403614943
 20
-327.0048303339472
 30
0.0
 10
109.3245626824421
 20
-327.165536782074
 30
0.0
 10
110.2150214492481
 20
-327.2202872491284
 30
0.0
 10
111.0808090799115
 20
-326.9951668164248
 30
0.0
 10
111.6939270831097
 20
-326.3816564502714
 30
0.0
 10
112.4392194983669
 20
-325.6579029046277
 30
0.0
 10
113.7605387233172
 20
-324.3203171753915
 30
0.0
 10
115.739199448732
 20
-321.5935821652628
 30
0.0
 10
118.6729251341277
 20
-317.3720441701793
 30
0.0
 10
121.0031343702494
 20
-313.754895607977
 30
0.0
 10
122.868305436061
 20
-309.870775978731
 30
0.0
 10
125.0077993135613
 20
-305.4732821455027
 30
0.0
 10
126.667738066227
 20
-301.1316557437543
 30
0.0
 10
127.6746982290705
 20
-296.8746664202022
 30
0.0
 10
127.8018164407107
 20
-294.8389687762048
 30
0.0
 10
127.6663800157769
 20
-290.1015125802334
 30
0.0
 10
126.6858750701478
 20
-287.5513712940977
 30
0.0
 10
125.1713930469666
 20
-283.6494715550247
 30
0.0
 10
124.6097018043328
 20
-282.2349001335356
 30
0.0
 10
123.3768154214571
 20
-280.5382090820274
 30
0.0
 10
122.8757279717635
 20
-279.7486843098366
 30
0.0
 10
122.1444688539665
 20
-278.9085444029776
 30
0.0
 10
120.065063374357
 20
-276.1852145857656
 30
0.0
 10
117.4085846591633
 20
-273.3767515452747
 30
0.0
 10
114.3306956360163
 20
-269.8674618699325
 30
0.0
 10
111.2313527809228
 20
-264.4785372009122
 30
0.0
 10
109.9512705482516
 20
-261.5393583217723
 30
0.0
 10
109.4356065674383
 20
-260.115966796875
 30
0.0
  0
SPLINE
  5
1000006D
102
{ACAD_XDICTIONARY
360
1000006E
102
}
330
1F
100
AcDbEntity
  8
MODELSKETCH_VISIBLE
100
AcDbSpline
210
0.0
220
0.0
230
1.0
 70
     8
 71
     3
 72
    77
 73
    73
 74
     0
 42
0.0000000001
 43
0.00000001
 40
0.0
 40
0.0
 40
0.0
 40
0.0
 40
0.0105478967210083
 40
0.0242422240312897
 40
0.0372293173344164
 40
0.0497044757800818
 40
0.0573979722470601
 40
0.0716396651414063
 40
0.0863454805488359
 40
0.101036157461776
 40
0.1171467677587391
 40
0.1287728425797421
 40
0.141109042136914
 40
0.1538182739423645
 40
0.1633925526968636
 40
0.1744612437485257
 40
0.1824119081244302
 40
0.1895804876844741
 40
0.1961318047953824
 40
0.2042343026547024
 40
0.2137981754813297
 40
0.2270616109903239
 40
0.2404166959533698
 40
0.2622391928616973
 40
0.2760801642232808
 40
0.2894163077404921
 40
0.3052007289652892
 40
0.322502389044432
 40
0.3385236905034948
 40
0.3576201138803706
 40
0.3734468504264691
 40
0.3865056302655161
 40
0.4022138726771455
 40
0.4145767231640862
 40
0.4288245272964759
 40
0.4423685427471597
 40
0.458038565859743
 40
0.4724284283407721
 40
0.4871869292536521
 40
0.5023731069883034
 40
0.517330202222851
 40
0.5309550815503498
 40
0.5460599031308534
 40
0.5624887837513062
 40
0.5794996962502378
 40
0.600402496953817
 40
0.6193220522577209
 40
0.6370194125490325
 40
0.6559553799530107
 40
0.6740233812828367
 40
0.690365748347001
 40
0.7033534814488182
 40
0.715507397591168
 40
0.726302160821557
 40
0.7426404578676816
 40
0.7589719053938685
 40
0.7743783423415534
 40
0.7927874110627573
 40
0.8111836684144252
 40
0.8274730267589238
 40
0.8438384070967894
 40
0.8606540575134989
 40
0.8749946645916379
 40
0.891706376304623
 40
0.9080754950153019
 40
0.9217717333511972
 40
0.9332354607234532
 40
0.9440217135996714
 40
0.9564725913742735
 40
0.9706769754040104
 40
0.9816089735815746
 40
1.0
 40
1.0
 40
1.0
 40
1.0
 10
-60.33650970458984
 20
280.8857116699219
 30
0.0
 10
-61.1937822173157
 20
280.9987207683561
 30
0.0
 10
-63.16596181731701
 20
281.2587117089804
 30
0.0
 10
-67.31137627971182
 20
278.9059587663742
 30
0.0
 10
-70.6843064412208
 20
277.2369509200845
 30
0.0
 10
-73.98978532315589
 20
274.9092728425303
 30
0.0
 10
-75.19926573502327
 20
274.0426845176635
 30
0.0
 10
-80.48492207327571
 20
274.1857420790637
 30
0.0
 10
-85.41538941127159
 20
273.3417049871393
 30
0.0
 10
-90.53930375813366
 20
271.9900787900698
 30
0.0
 10
-96.79754103908753
 20
273.8489229557138
 30
0.0
 10
-100.1434532343267
 20
273.7103638184291
 30
0.0
 10
-103.5003537711777
 20
275.4628888912737
 30
0.0
 10
-107.3208128843873
 20
276.6288952217017
 30
0.0
 10
-109.2714577525878
 20
277.4703709104394
 30
0.0
 10
-112.2759901660607
 20
278.2011353492869
 30
0.0
 10
-113.7777461790735
 20
278.2236278012085
 30
0.0
 10
-115.0912949616457
 20
277.8592721244838
 30
0.0
 10
-115.8176664019722
 20
276.9791366029621
 30
0.0
 10
-116.0065994590828
 20
275.2740616454411
 30
0.0
 10
-116.0499370963531
 20
273.1096219338079
 30
0.0
 10
-115.1342232795174
 20
268.6036051555903
 30
0.0
 10
-113.6136906388255
 20
265.0005661149516
 30
0.0
 10
-108.611617349564
 20
254.2519833546554
 30
0.0
 10
-105.4782080262845
 20
250.9467756148898
 30
0.0
 10
-104.5882955176914
 20
246.2787054962109
 30
0.0
 10
-102.7646409993439
 20
240.6294764399076
 30
0.0
 10
-100.9739519688447
 20
233.4591848575392
 30
0.0
 10
-99.26292129240393
 20
227.6240984274129
 30
0.0
 10
-95.61228657889198
 20
219.5347091981629
 30
0.0
 10
-93.24733105918014
 20
213.8527757873537
 30
0.0
 10
-91.68509325850488
 20
210.0639615335752
 30
0.0
 10
-90.38240455593744
 20
203.9799749618724
 30
0.0
 10
-89.4541654327847
 20
200.5696545799333
 30
0.0
 10
-87.67621980086848
 20
195.700391968436
 30
0.0
 10
-86.03810453748073
 20
191.7274313990852
 30
0.0
 10
-83.14027775072302
 20
186.3553950128101
 30
0.0
 10
-80.29135150268797
 20
182.3043278649961
 30
0.0
 10
-77.43192467034635
 20
177.7412718395246
 30
0.0
 10
-74.7106865525832
 20
172.9159474767236
 30
0.0
 10
-72.17041684611402
 20
168.0526436734598
 30
0.0
 10
-69.63622729865739
 20
164.2022551403676
 30
0.0
 10
-65.17990781879402
 20
160.7405956815022
 30
0.0
 10
-60.28680910954347
 20
156.219869690263
 30
0.0
 10
-54.85605216365923
 20
151.8989152286983
 30
0.0
 10
-46.99974323968207
 20
144.7043944129139
 30
0.0
 10
-40.42410088924119
 20
139.1534861989379
 30
0.0
 10
-34.45303341824026
 20
134.2918725068008
 30
0.0
 10
-26.87125423672931
 20
129.8009672104432
 30
0.0
 10
-21.68869905181789
 20
123.8767488303776
 30
0.0
 10
-18.04313031750546
 20
118.4107073569829
 30
0.0
 10
-16.06843242463202
 20
114.7204835895221
 30
0.0
 10
-15.9133848861347
 20
110.9362509925423
 30
0.0
 10
-15.82050018647937
 20
107.8129947245241
 30
0.0
 10
-21.06050637249103
 20
103.3509009292874
 30
0.0
 10
-25.61931924939474
 20
98.98595707474318
 30
0.0
 10
-28.48313594047442
 20
93.79711539605097
 30
0.0
 10
-31.47914792844357
 20
86.13996173432875
 30
0.0
 10
-33.74665614854447
 20
78.26600444408022
 30
0.0
 10
-36.58190022302206
 20
72.52112108211553
 30
0.0
 10
-41.40767068842143
 20
67.09325517531873
 30
0.0
 10
-48.88942454100317
 20
68.53888188164686
 30
0.0
 10
-53.43360773178572
 20
65.05680349211251
 30
0.0
 10
-54.80004930235544
 20
58.09363354679883
 30
0.0
 10
-60.6444453156592
 20
54.08191655628369
 30
0.0
 10
-65.34460042437419
 20
54.37424222817467
 30
0.0
 10
-68.4949469982722
 20
53.19587498956669
 30
0.0
 10
-70.78468641110399
 20
51.1937103659844
 30
0.0
 10
-72.00365850674955
 20
47.62348551277396
 30
0.0
 10
-74.30005240319193
 20
43.33383272033131
 30
0.0
 10
-76.21002284671246
 20
40.25995541407891
 30
0.0
 10
-80.30227712522809
 20
40.52953953152196
 30
0.0
 10
-84.50166287540873
 20
40.64931128698812
 30
0.0
  0
SPLINE
  5
10000071
102
{ACAD_XDICTIONARY
360
10000072
102
}
330
1F
100
AcDbEntity
  8
MODELSKETCH_VISIBLE
100
AcDbSpline
210
0.0
220
0.0
230
1.0
 70
     8
 71
     3
 72
   113
 73
   109
 74
     0
 42
0.0000000001
 43
0.00000001
 40
0.0
 40
0.0
 40
0.0
 40
0.0
 40
0.0042330436487458
 40
0.0096953655767912
 40
0.014681450991739
 40
0.0224304127797402
 40
0.0292542462092677
 40
0.0381068780724209
 40
0.0457942073220495
 40
0.0533323778504425
 40
0.0618830022419836
 40
0.0704346516999423
 40
0.0789306957014992
 40
0.0865338039482897
 40
0.0914124593234218
 40
0.0972552457675088
 40
0.1045917343880153
 40
0.1120690893722468
 40
0.1197136844960505
 40
0.127885844742946
 40
0.135669053109806
 40
0.1450213535637275
 40
0.154149183186984
 40
0.1614056050193826
 40
0.1691234697779253
 40
0.181463611380302
 40
0.1938635249890667
 40
0.205462705629998
 40
0.2131455896014246
 40
0.2211423186502026
 40
0.2296047784007189
 40
0.2390952981871274
 40
0.2482094057471003
 40
0.2578045925642083
 40
0.2695994325961379
 40
0.2786226606321818
 40
0.2865734236906654
 40
0.2945994136855501
 40
0.3033567877412773
 40
0.3125123869402796
 40
0.3203805299416339
 40
0.3287512333425257
 40
0.3380691527500958
 40
0.3478667517060183
 40
0.3565096986134299
 40
0.3657699223609377
 40
0.3752341985315299
 40
0.3835395009210595
 40
0.3927295239324318
 40
0.398657637342296
 40
0.4057488184105424
 40
0.4178384157029333
 40
0.4266310296030119
 40
0.4386961828232148
 40
0.452597424649622
 40
0.4668612414519509
 40
0.4804460826685564
 40
0.4956624127785477
 40
0.5035717524434281
 40
0.511579493872943
 40
0.5240984669120018
 40
0.533731080882956
 40
0.5402046654231726
 40
0.5486274215668772
 40
0.5583272043778312
 40
0.5820694291679792
 40
0.5986850107527487
 40
0.6103122465611209
 40
0.6215945806219028
 40
0.6339558969370781
 40
0.6470704815066732
 40
0.6593484551082028
 40
0.6673986679063614
 40
0.6776498232884278
 40
0.6846174718584063
 40
0.6917788520159229
 40
0.7023432920469368
 40
0.711169927446143
 40
0.7177483953544278
 40
0.7268759578736615
 40
0.7332396103038197
 40
0.7407556292402827
 40
0.7494104228449986
 40
0.7589330852161307
 40
0.7670359674148737
 40
0.7762537760678515
 40
0.7873138836207508
 40
0.7959307477598717
 40
0.8052470578359264
 40
0.8149581451636414
 40
0.8247523744137459
 40
0.8361640198869098
 40
0.8443453062072596
 40
0.8535819992066653
 40
0.8640551818493469
 40
0.8767713223725931
 40
0.8895596996765843
 40
0.8998674025709217
 40
0.9085319620335078
 40
0.9217509237442724
 40
0.935392503876512
 40
0.9505117936089863
 40
0.963802921352782
 40
0.9715126426931575
 40
0.9793008451219948
 40
0.9873587210469049
 40
0.995110601216464
 40
1.0
 40
1.0
 40
1.0
 40
1.0
 10
-84.50166287540873
 20
40.64931128698812
 30
0.0
 10
-84.74887299131186
 20
40.66931508407166
 30
0.0
 10
-85.31771747750949
 20
40.71536275170556
 30
0.0
 10
-86.6714125839845
 20
40.30677171508484
 30
0.0
 10
-87.63333022879232
 20
39.83515074178605
 30
0.0
 10
-89.51486809411519
 20
37.6666297913771
 30
0.0
 10
-90.39662700767434
 20
35.95210545967613
 30
0.0
 10
-92.06384463311237
 20
32.75738276550323
 30
0.0
 10
-93.08527012290482
 20
30.31782046378207
 30
0.0
 10
-95.1248873902846
 20
28.62932225619497
 30
0.0
 10
-97.89705579941416
 20
26.73816175879012
 30
0.0
 10
-101.2392997137759
 20
26.49904228455981
 30
0.0
 10
-104.3587568563523
 20
26.59420330553841
 30
0.0
 10
-107.0318474547105
 20
26.59327655547753
 30
0.0
 10
-108.1636590332074
 20
26.7798002668012
 30
0.0
 10
-109.6145588225117
 20
25.98061227581686
 30
0.0
 10
-111.5663735912654
 20
24.59917526485024
 30
0.0
 10
-113.1859237576675
 20
22.67923558706021
 30
0.0
 10
-115.2588519440724
 20
21.03948240679926
 30
0.0
 10
-116.781129552701
 20
18.36391063790506
 30
0.0
 10
-118.1196416666338
 20
15.97292075291363
 30
0.0
 10
-118.4307084004549
 20
12.00856885267205
 30
0.0
 10
-118.2894503936631
 20
8.34114341314275
 30
0.0
 10
-118.3905156376971
 20
5.821437299673176
 30
0.0
 10
-117.4475003772525
 20
3.205137302099156
 30
0.0
 10
-115.9742853858216
 20
-3.612215127655108
 30
0.0
 10
-114.5208793324859
 20
-9.82488676567205
 30
0.0
 10
-113.4645097164384
 20
-15.99693177606931
 30
0.0
 10
-113.1915703266579
 20
-18.63965341746507
 30
0.0
 10
-113.015567476092
 20
-21.65806849603037
 30
0.0
 10
-113.1142700333332
 20
-24.82180073005312
 30
0.0
 10
-113.2277208358613
 20
-28.88016804598419
 30
0.0
 10
-113.8230032703484
 20
-32.62886846351226
 30
0.0
 10
-114.2848527019078
 20
-36.64973065288899
 30
0.0
 10
-115.525612888942
 20
-42.78375437518371
 30
0.0
 10
-116.6315575536766
 20
-46.2026286745396
 30
0.0
 10
-117.346485454097
 20
-49.07439502648603
 30
0.0
 10
-118.525319537127
 20
-51.76080600918326
 30
0.0
 10
-119.738654999296
 20
-54.9365084446345
 30
0.0
 10
-121.5502194256268
 20
-58.25971488948802
 30
0.0
 10
-122.7113710106443
 20
-60.78643823475639
 30
0.0
 10
-123.9613712480604
 20
-63.77222273284011
 30
0.0
 10
-124.9102139049252
 20
-67.48343367484696
 30
0.0
 10
-126.240222961545
 20
-71.61529907088072
 30
0.0
 10
-126.5858220554037
 20
-74.96090673110594
 30
0.0
 10
-127.4383992182418
 20
-78.72467968759666
 30
0.0
 10
-127.2822970981683
 20
-82.8453057167866
 30
0.0
 10
-126.6146312753865
 20
-85.72881347493848
 30
0.0
 10
-124.9026680827028
 20
-89.26062031259019
 30
0.0
 10
-124.0799714475755
 20
-90.65587532602608
 30
0.0
 10
-122.2296723334825
 20
-92.38404319733715
 30
0.0
 10
-122.7822433531767
 20
-99.51275398580879
 30
0.0
 10
-125.1586445455076
 20
-101.9675478510536
 30
0.0
 10
-125.9843423478385
 20
-109.1498494590092
 30
0.0
 10
-123.3142709569495
 20
-117.127698316662
 30
0.0
 10
-120.5354346635434
 20
-126.0285564724582
 30
0.0
 10
-118.0363539775759
 20
-133.449103742064
 30
0.0
 10
-118.6816874538746
 20
-144.2298298892724
 30
0.0
 10
-119.2512044225215
 20
-147.0961004213839
 30
0.0
 10
-119.5646574477627
 20
-150.1092398310197
 30
0.0
 10
-119.9729024874074
 20
-156.9602094349363
 30
0.0
 10
-119.573768034591
 20
-161.1832170249052
 30
0.0
 10
-120.3221022604889
 20
-162.9977390325723
 30
0.0
 10
-120.7591946597779
 20
-166.6048852854046
 30
0.0
 10
-120.5718426761403
 20
-170.6378459520896
 30
0.0
 10
-119.2501654192298
 20
-196.2133289573331
 30
0.0
 10
-118.2954128906733
 20
-207.5544640293885
 30
0.0
 10
-117.9992560837526
 20
-214.1933892611463
 30
0.0
 10
-116.69358099392
 20
-219.8879205964614
 30
0.0
 10
-116.3478174572196
 20
-226.8222940467555
 30
0.0
 10
-116.3378624959839
 20
-234.1715682338458
 30
0.0
 10
-116.9295166708004
 20
-241.2601079187345
 30
0.0
 10
-115.9802108716725
 20
-243.9187647850146
 30
0.0
 10
-114.2038455568812
 20
-248.4181259337893
 30
0.0
 10
-113.4599529250766
 20
-250.6008390253944
 30
0.0
 10
-114.5883655868183
 20
-252.8634723093948
 30
0.0
 10
-116.7034544472425
 20
-257.1431302200971
 30
0.0
 10
-118.5792573576246
 20
-260.4610381654581
 30
0.0
 10
-117.3989640028019
 20
-262.2509318333535
 30
0.0
 10
-115.686541854088
 20
-265.6642946863105
 30
0.0
 10
-114.9599969184619
 20
-267.1984091924619
 30
0.0
 10
-114.0610278232084
 20
-269.9208529719294
 30
0.0
 10
-115.7382180272208
 20
-272.9337373736911
 30
0.0
 10
-117.7059993319096
 20
-276.451911480629
 30
0.0
 10
-118.9814145407038
 20
-279.2121272974348
 30
0.0
 10
-119.0235981884474
 20
-283.1201512258869
 30
0.0
 10
-117.282895187282
 20
-288.3725725455675
 30
0.0
 10
-116.7346336883911
 20
-291.6047167650639
 30
0.0
 10
-116.777147379772
 20
-295.655146637037
 30
0.0
 10
-118.3094677030181
 20
-299.7137885738974
 30
0.0
 10
-119.9642369979186
 20
-303.4806018371403
 30
0.0
 10
-122.7395941650339
 20
-308.7996137024227
 30
0.0
 10
-123.488540732491
 20
-311.6352641418548
 30
0.0
 10
-125.2858640271978
 20
-315.3667732913885
 30
0.0
 10
-124.925987965318
 20
-320.3572248179213
 30
0.0
 10
-124.4261337524342
 20
-327.4863797140106
 30
0.0
 10
-123.8297511165149
 20
-334.5978224538915
 30
0.0
 10
-123.5594104939599
 20
-339.6404598337344
 30
0.0
 10
-124.5477441830281
 20
-342.9416079948818
 30
0.0
 10
-127.0391574839854
 20
-350.701550801912
 30
0.0
 10
-130.5467790587419
 20
-357.9067794995213
 30
0.0
 10
-135.2448163333204
 20
-366.7512771238422
 30
0.0
 10
-137.202403759045
 20
-374.6571974294946
 30
0.0
 10
-137.603432807912
 20
-377.4196647456099
 30
0.0
 10
-137.0378935453303
 20
-380.2340581351526
 30
0.0
 10
-135.8143994126621
 20
-382.9223892526243
 30
0.0
 10
-133.1584309675205
 20
-384.0519752338983
 30
0.0
 10
-132.3495700591228
 20
-384.1348826257579
 30
0.0
 10
-132.0380859375
 20
-384.1668090820312
 30
0.0
  0
SPLINE
  5
10000075
102
{ACAD_XDICTIONARY
360
10000076
102
}
330
1F
100
AcDbEntity
  8
MODELSKETCH_VISIBLE
100
AcDbSpline
210
0.0
220
0.0
230
1.0
 70
     8
 71
     3
 72
    19
 73
    15
 74
     0
 42
0.0000000001
 43
0.00000001
 40
0.0
 40
0.0
 40
0.0
 40
0.0
 40
0.1877235356968999
 40
0.2546969951621114
 40
0.3362988647303178
 40
0.4104331479048639
 40
0.4786677905285325
 40
0.5753551686987769
 40
0.6865650042862815
 40
0.7558750281356926
 40
0.8308193999052411
 40
0.8999327242987688
 40
0.9915696435037061
 40
1.0
 40
1.0
 40
1.0
 40
1.0
 10
-1.272689580917358
 20
292.6429138183594
 30
0.0
 10
-9.998051413421068
 20
290.8333360405521
 30
0.0
 10
-21.73659238255909
 20
288.4098609982856
 30
0.0
 10
-24.36565797001207
 20
287.2854117811484
 30
0.0
 10
-28.59353829199042
 20
286.4380769648105
 30
0.0
 10
-31.30508372396296
 20
284.5309038105023
 30
0.0
 10
-34.00264863333282
 20
283.3546848838496
 30
0.0
 10
-39.08776405073651
 20
281.3421446790869
 30
0.0
 10
-46.32172312999598
 20
279.528579177826
 30
0.0
 10
-49.03535220040894
 20
278.9042660960826
 30
0.0
 10
-52.83551303687958
 20
279.5379907244368
 30
0.0
 10
-54.68779283110439
 20
280.8369766395162
 30
0.0
 10
-60.46549999768276
 20
280.7184623727322
 30
0.0
 10
-60.34060776284706
 20
280.9173068971238
 30
0.0
 10
-60.35241993326056
 20
280.9254455566406
 30
0.0
  0
SPLINE
  5
10000079
102
{ACAD_XDICTIONARY
360
1000007A
102
}
330
1F
100
AcDbEntity
  8
MODELSKETCH_VISIBLE
100
AcDbSpline
210
0.0
220
0.0
230
1.0
 70
     8
 71
     3
 72
    40
 73
    36
 74
     0
 42
0.0000000001
 43
0.00000001
 40
0.0
 40
0.0
 40
0.0
 40
0.0
 40
0.0240068136086877
 40
0.0567233186769741
 40
0.0894135174396385
 40
0.1204068748388561
 40
0.1424138686622556
 40
0.1655562622648044
 40
0.1838171501740724
 40
0.1998226720672922
 40
0.2163749704958086
 40
0.24610448692094
 40
0.278373650116965
 40
0.3173174917682665
 40
0.3526156808395146
 40
0.3843565321309778
 40
0.4155769200748547
 40
0.4534435263356331
 40
0.5006036207811816
 40
0.5483906578630752
 40
0.600829397014313
 40
0.641861228724582
 40
0.681660371807816
 40
0.7211817907545571
 40
0.7467548418237245
 40
0.7814582119582217
 40
0.8258527126406413
 40
0.8646640137142709
 40
0.8878066550240737
 40
0.9039976751797602
 40
0.9214219727566221
 40
0.9377757471082319
 40
0.9559514754698992
 40
0.9705145839626588
 40
1.0
 40
1.0
 40
1.0
 40
1.0
 10
-0.2417461617651382
 20
-351.5852661132812
 30
0.0
 10
-0.0157422030825418
 20
-351.2388400221678
 30
0.0
 10
0.5055858495207115
 20
-350.4397317211275
 30
0.0
 10
2.204957146287918
 20
-348.5871611527365
 30
0.0
 10
3.850389629315705
 20
-346.9518485326981
 30
0.0
 10
5.528575560432608
 20
-345.3824298702708
 30
0.0
 10
6.454694337192044
 20
-344.7988876308086
 30
0.0
 10
7.36155721508779
 20
-343.8877037241218
 30
0.0
 10
8.031433033202035
 20
-343.5235600299072
 30
0.0
 10
8.494521950134143
 20
-343.071772428188
 30
0.0
 10
9.0633039520369
 20
-342.7593379902804
 30
0.0
 10
10.88157819048356
 20
-341.623118650072
 30
0.0
 10
12.73029325821437
 20
-340.2857290230696
 30
0.0
 10
16.07639393364565
 20
-339.1076271417122
 30
0.0
 10
18.60746740581037
 20
-337.8749838172964
 30
0.0
 10
20.88096952500063
 20
-337.1031376694084
 30
0.0
 10
23.15213954758456
 20
-336.6265465567921
 30
0.0
 10
26.3105909571637
 20
-335.5419632171226
 30
0.0
 10
31.24105088106895
 20
-333.9205919079417
 30
0.0
 10
35.92093923828857
 20
-332.0184533110888
 30
0.0
 10
41.92130926117936
 20
-329.7419160887555
 30
0.0
 10
45.6352805689725
 20
-328.6039762370123
 30
0.0
 10
48.99291074455729
 20
-327.3234324187306
 30
0.0
 10
52.47410349682217
 20
-325.9876913952123
 30
0.0
 10
53.97933681332628
 20
-325.7036448849051
 30
0.0
 10
56.81905527229559
 20
-325.021938081938
 30
0.0
 10
61.08050398632135
 20
-324.3234738048197
 30
0.0
 10
64.47396381008227
 20
-323.7348938766149
 30
0.0
 10
65.82366748052839
 20
-323.5450236148371
 30
0.0
 10
66.32822468835361
 20
-323.1459761484045
 30
0.0
 10
66.95655600165242
 20
-322.7503745006989
 30
0.0
 10
67.56179540510239
 20
-322.7332099868115
 30
0.0
 10
68.36717655095323
 20
-322.8228833647413
 30
0.0
 10
68.80646311165074
 20
-323.1844843480059
 30
0.0
 10
69.92105535114374
 20
-322.9888305664062
 30
0.0
 10
70.79495995443851
 20
-322.9093933105469
 30
0.0
  0
SPLINE
  5
1000007D
102
{ACAD_XDICTIONARY
360
1000007E
102
}
330
1F
100
AcDbEntity
  8
MODELSKETCH_VISIBLE
100
AcDbSpline
210
0.0
220
0.0
230
1.0
 70
     8
 71
     3
 72
   146
 73
   142
 74
     0
 42
0.0000000001
 43
0.00000001
 40
0.0
 40
0.0
 40
0.0
 40
0.0
 40
0.0087802837219798
 40
0.0170694798292598
 40
0.0250515342980771
 40
0.0313396847784239
 40
0.0377955802050689
 40
0.0478324820473638
 40
0.0605555842770516
 40
0.0702830896471207
 40
0.0784026316010367
 40
0.0857965690370591
 40
0.0947194233086071
 40
0.1040289554617984
 40
0.1094601910572634
 40
0.1146237599553383
 40
0.1233175633205981
 40
0.131585823615904
 40
0.139924504566491
 40
0.1475921839081523
 40
0.1562763946870403
 40
0.1654751251331313
 40
0.1730028950623177
 40
0.178955728080735
 40
0.1848524354829309
 40
0.1906281593987732
 40
0.1978777065643502
 40
0.2054635076624752
 40
0.2122093310401538
 40
0.2190990280762125
 40
0.2265719279089509
 40
0.2324836588900565
 40
0.2382722998416804
 40
0.2444819410142354
 40
0.2527487878767906
 40
0.2604612296287206
 40
0.2677099992610278
 40
0.2722833746009802
 40
0.2755802761830947
 40
0.2790640001330731
 40
0.2881412476339156
 40
0.2981900608517082
 40
0.3065722891215807
 40
0.3137051234164482
 40
0.3238591780307862
 40
0.3308816753453897
 40
0.3409071126961506
 40
0.3466073157579066
 40
0.3569004939842966
 40
0.3707608386322734
 40
0.3794241041738211
 40
0.3875324271033135
 40
0.3939012856895635
 40
0.4000188665306576
 40
0.4066383017624851
 40
0.4129054768012407
 40
0.4194968572812255
 40
0.4264512462932907
 40
0.4336489108747755
 40
0.4412737320125484
 40
0.4488976526308199
 40
0.4558829834647348
 40
0.4624673913756812
 40
0.4685915187413442
 40
0.4731193492100682
 40
0.4776331660319628
 40
0.483398518849578
 40
0.4897216879285989
 40
0.4954175818246588
 40
0.5007495933026721
 40
0.505796172304751
 40
0.5122498558573959
 40
0.5200126988423107
 40
0.5278592857402092
 40
0.5386081915158889
 40
0.5471205268837517
 40
0.5532468200399269
 40
0.5593726703496473
 40
0.5663270598176071
 40
0.5732814488296724
 40
0.580708973969295
 40
0.5880195620540626
 40
0.5958293319024449
 40
0.6025948841723607
 40
0.6091096889294076
 40
0.6162106720955285
 40
0.6223230160547958
 40
0.6286323223100776
 40
0.6358109042068352
 40
0.6428414635661617
 40
0.6510822400799461
 40
0.6599539496361143
 40
0.6695262039568657
 40
0.6792394809468082
 40
0.68767156718174
 40
0.6924671069978715
 40
0.6962809022894433
 40
0.7007281238742721
 40
0.7049394292841682
 40
0.7097592233810046
 40
0.7162656955678851
 40
0.7233125564958488
 40
0.7296099201538752
 40
0.7357078039322079
 40
0.7412942042760718
 40
0.7480184620330347
 40
0.7550970495372065
 40
0.7596419766365117
 40
0.7671158369054399
 40
0.7731061692182949
 40
0.7809943676130108
 40
0.7878319149654094
 40
0.7935852495085126
 40
0.7984236497791402
 40
0.8045131358928412
 40
0.8128831543139768
 40
0.8187895554488709
 40
0.8243627462275915
 40
0.8311536134099694
 40
0.8362574454394313
 40
0.8404965250025538
 40
0.8464488811334011
 40
0.853675537624557
 40
0.8589219192810101
 40
0.8667913374420521
 40
0.8770945119949983
 40
0.8840614851048293
 40
0.8912986330084992
 40
0.9001867688313336
 40
0.9080605727289068
 40
0.9151876198407077
 40
0.924070884536373
 40
0.9326577863738724
 40
0.9410320386994869
 40
0.9473571897415994
 40
0.9539683471226366
 40
0.9612100261865996
 40
0.9688772622425789
 40
0.9783724944293501
 40
0.9890200947263804
 40
1.0
 40
1.0
 40
1.0
 40
1.0
 10
112.9339215207187
 20
66.86415100097656
 30
0.0
 10
111.8684102490369
 20
68.11607797765684
 30
0.0
 10
109.7896873820482
 20
70.55848220498876
 30
0.0
 10
107.7043497186516
 20
74.2450566426424
 30
0.0
 10
105.4064743742656
 20
77.62442225075915
 30
0.0
 10
104.8760086301685
 20
80.1669194897053
 30
0.0
 10
105.3065905043705
 20
83.20844943356566
 30
0.0
 10
110.656427258235
 20
87.01338557097738
 30
0.0
 10
118.4825103466329
 20
92.9261839476922
 30
0.0
 10
123.4649150574241
 20
96.02682145513457
 30
0.0
 10
126.8202121634755
 20
98.7630525396511
 30
0.0
 10
129.0829352592031
 20
101.679105699406
 30
0.0
 10
129.241352705921
 20
106.6595470814794
 30
0.0
 10
129.6498676867284
 20
111.9555065455974
 30
0.0
 10
129.4808091840264
 20
114.1459470051375
 30
0.0
 10
127.7172353078738
 20
114.9273529681126
 30
0.0
 10
124.0513778117878
 20
118.0138897058455
 30
0.0
 10
120.8960940376184
 20
120.6396510658911
 30
0.0
 10
118.8146702755846
 20
124.6965707799659
 30
0.0
 10
118.0770333405648
 20
128.4663211985209
 30
0.0
 10
119.7039209801402
 20
133.0004817773378
 30
0.0
 10
121.5848424976131
 20
137.864364797123
 30
0.0
 10
123.7631526904996
 20
140.7232591801595
 30
0.0
 10
124.3919799734554
 20
143.1209973213498
 30
0.0
 10
123.1381546748597
 20
145.1175053087561
 30
0.0
 10
122.0518804493305
 20
146.9524923152512
 30
0.0
 10
118.9607736760502
 20
148.4791536114701
 30
0.0
 10
115.4130419701537
 20
148.8958865950033
 30
0.0
 10
112.5077700517602
 20
148.7995487634013
 30
0.0
 10
109.6053052254403
 20
149.3082663668651
 30
0.0
 10
106.2082791230749
 20
150.5203166673439
 30
0.0
 10
104.7531685511944
 20
152.1686761273087
 30
0.0
 10
104.3256053101859
 20
154.9790009645916
 30
0.0
 10
107.3546470937523
 20
155.1357728491764
 30
0.0
 10
111.3075168663876
 20
156.3999515779983
 30
0.0
 10
114.8364652737064
 20
156.920524416887
 30
0.0
 10
118.0081166806578
 20
158.0816268594267
 30
0.0
 10
119.2511575346672
 20
158.5387655717997
 30
0.0
 10
119.8504995697825
 20
159.2647383495496
 30
0.0
 10
119.0499633147269
 20
159.9840345444091
 30
0.0
 10
114.775502082802
 20
163.080541251112
 30
0.0
 10
110.5206024847708
 20
167.1604680798453
 30
0.0
 10
107.8572993544705
 20
170.9412748799444
 30
0.0
 10
105.8142791489722
 20
173.4604328035993
 30
0.0
 10
106.1458901148513
 20
180.4461998278324
 30
0.0
 10
105.7137990161453
 20
183.0478265330267
 30
0.0
 10
108.2545222757075
 20
189.4131280147608
 30
0.0
 10
109.1173578563429
 20
191.108439934393
 30
0.0
 10
112.8144583603399
 20
197.0117969566475
 30
0.0
 10
121.0771874213586
 20
205.3976309580836
 30
0.0
 10
124.3329377764328
 20
208.5270443948871
 30
0.0
 10
127.2543232135647
 20
211.7715423810734
 30
0.0
 10
128.8916293820929
 20
213.7385412464567
 30
0.0
 10
129.8172715266394
 20
216.008117018982
 30
0.0
 10
130.0369578510914
 20
218.7459403030235
 30
0.0
 10
129.8128393336757
 20
221.3616623299266
 30
0.0
 10
127.4404427355475
 20
223.1678705431703
 30
0.0
 10
124.5466443937393
 20
224.0176997328938
 30
0.0
 10
121.3817819875802
 20
224.9021087673644
 30
0.0
 10
117.7291157252307
 20
224.7650925701302
 30
0.0
 10
114.1100478646086
 20
224.8383303767154
 30
0.0
 10
111.0249612891716
 20
224.6976459112781
 30
0.0
 10
108.4293260198854
 20
223.8419079356988
 30
0.0
 10
106.4892052976767
 20
222.4202544392996
 30
0.0
 10
105.3798374833408
 20
221.7255306268473
 30
0.0
 10
104.2773479684543
 20
220.9027265689061
 30
0.0
 10
102.1461635359721
 20
220.775527769944
 30
0.0
 10
99.73689727001002
 20
220.4430663001979
 30
0.0
 10
97.61557150419691
 20
220.5350065062554
 30
0.0
 10
96.19157627323521
 20
221.7814415167856
 30
0.0
 10
95.15471743406513
 20
223.1993321306125
 30
0.0
 10
95.7462649339514
 20
225.9641734770654
 30
0.0
 10
97.75430600074871
 20
229.2639019272589
 30
0.0
 10
100.1730441976771
 20
232.1089771938096
 30
0.0
 10
104.8366742898518
 20
237.6034317880896
 30
0.0
 10
108.0086060407588
 20
240.7771429961689
 30
0.0
 10
109.3052570164353
 20
242.9181386398851
 30
0.0
 10
111.0206158342704
 20
244.6188349095129
 30
0.0
 10
113.5725593792849
 20
246.3674011813735
 30
0.0
 10
116.445893318885
 20
247.2641651207522
 30
0.0
 10
119.8547869888122
 20
248.1663441156959
 30
0.0
 10
123.1620092219182
 20
248.2968900674926
 30
0.0
 10
126.8778394102737
 20
249.2929579957375
 30
0.0
 10
129.6976544864189
 20
250.0903251194582
 30
0.0
 10
131.6772473576599
 20
252.0520494506095
 30
0.0
 10
132.6545488491792
 20
255.2937623229442
 30
0.0
 10
131.5884030649579
 20
257.5298887419104
 30
0.0
 10
130.2067336309408
 20
259.6656934512002
 30
0.0
 10
127.4654497873524
 20
261.5214505538469
 30
0.0
 10
125.5397263531321
 20
264.0881029949763
 30
0.0
 10
124.8723274620798
 20
268.443110695816
 30
0.0
 10
124.3254183820754
 20
273.2893229872943
 30
0.0
 10
124.4194659086605
 20
279.0453847656685
 30
0.0
 10
123.9481812516825
 20
284.7250160942613
 30
0.0
 10
123.5525707768335
 20
289.203561654221
 30
0.0
 10
123.2534985933558
 20
290.8574069189678
 30
0.0
 10
122.3143878241314
 20
291.2609169474229
 30
0.0
 10
121.2500246141127
 20
292.0079840603241
 30
0.0
 10
120.0660743285308
 20
291.7905648608446
 30
0.0
 10
118.6417583060148
 20
291.2917422420877
 30
0.0
 10
116.6453517926638
 20
289.5107296862107
 30
0.0
 10
114.185166597024
 20
287.7218474319503
 30
0.0
 10
112.0980030257969
 20
286.3004200083523
 30
0.0
 10
109.7883231460162
 20
285.8889510248437
 30
0.0
 10
107.3237679443508
 20
286.4632201823654
 30
0.0
 10
107.8033807909779
 20
289.6424942880247
 30
0.0
 10
106.7231987275025
 20
292.6512638964131
 30
0.0
 10
106.4495141600191
 20
293.9051772331255
 30
0.0
 10
103.6576271881873
 20
296.3618865263243
 30
0.0
 10
101.7883135706815
 20
297.6953946794075
 30
0.0
 10
97.79063866923222
 20
296.3736674672226
 30
0.0
 10
95.19983283320803
 20
295.4059439351391
 30
0.0
 10
93.11528494742637
 20
294.904190994032
 30
0.0
 10
91.42307118991774
 20
294.7912260699563
 30
0.0
 10
89.85249561106464
 20
296.6999667824393
 30
0.0
 10
87.2945633067812
 20
300.1453863507475
 30
0.0
 10
85.44530469525417
 20
301.5148817552519
 30
0.0
 10
83.39827082824168
 20
301.5953131313074
 30
0.0
 10
80.57829135523546
 20
301.0499230899363
 30
0.0
 10
78.99247448426233
 20
300.6568158168503
 30
0.0
 10
77.7879656817602
 20
300.2340626113537
 30
0.0
 10
75.69421696020157
 20
301.2010557215822
 30
0.0
 10
73.04728165490026
 20
303.1275222043825
 30
0.0
 10
71.68248092089557
 20
304.2556588153057
 30
0.0
 10
67.38019401455702
 20
304.7998038663212
 30
0.0
 10
61.97882688820734
 20
300.8008958707713
 30
0.0
 10
59.73523283396278
 20
298.4263755848979
 30
0.0
 10
56.1221357940146
 20
299.0556483575058
 30
0.0
 10
51.3974253846903
 20
299.9131886793358
 30
0.0
 10
47.54863115234861
 20
300.7502403103131
 30
0.0
 10
44.36532049402491
 20
301.1807338854288
 30
0.0
 10
39.27540328712432
 20
300.6530625005655
 30
0.0
 10
35.22252734004284
 20
298.8475172669826
 30
0.0
 10
30.93895678541054
 20
297.4687272235734
 30
0.0
 10
28.5312560319339
 20
296.6609174354038
 30
0.0
 10
25.69114414313567
 20
296.5616302634082
 30
0.0
 10
22.36953532119476
 20
296.5271007597369
 30
0.0
 10
18.63748852729769
 20
296.5412122132407
 30
0.0
 10
12.99796895027596
 20
295.5518779835212
 30
0.0
 10
6.089119191738032
 20
294.0943045510518
 30
0.0
 10
1.255439454804788
 20
293.2564195526636
 30
0.0
 10
-1.272689580917359
 20
292.6429138183594
 30
0.0
  0
SPLINE
  5
10000081
102
{ACAD_XDICTIONARY
360
10000082
102
}
330
1F
100
AcDbEntity
  8
MODELSKETCH_VISIBLE
100
AcDbSpline
210
0.0
220
0.0
230
1.0
 70
     8
 71
     3
 72
    70
 73
    66
 74
     0
 42
0.0000000001
 43
0.00000001
 40
0.0
 40
0.0
 40
0.0
 40
0.0
 40
0.0304124794422244
 40
0.0491020791407489
 40
0.0702627024156318
 40
0.0890153014078493
 40
0.1091023110781256
 40
0.1277825442615642
 40
0.1481871200933673
 40
0.1669678525105417
 40
0.1863469553875244
 40
0.2069937054546327
 40
0.2218349683792421
 40
0.237182906072002
 40
0.2511796680969166
 40
0.266936163234527
 40
0.2829801275709214
 40
0.2966284739693648
 40
0.3111796564511569
 40
0.3244147219529765
 40
0.3396329831874115
 40
0.3553373896544738
 40
0.3694358294691863
 40
0.3866578801928184
 40
0.4066144916818443
 40
0.4236315455649095
 40
0.4400674252865912
 40
0.4526403819592725
 40
0.4658755021190537
 40
0.4784004787612887
 40
0.4929412613371884
 40
0.5083004158625992
 40
0.5262953123157468
 40
0.5482709181263871
 40
0.5657111137278884
 40
0.582747152554416
 40
0.6000085963459356
 40
0.6181267359072252
 40
0.6338499273231923
 40
0.6502355258466674
 40
0.6642234931741743
 40
0.6781807419097584
 40
0.6924424588199795
 40
0.7056904006686501
 40
0.721854415899695
 40
0.7384802326381955
 40
0.753258188069187
 40
0.7666379790161673
 40
0.7789248202595359
 40
0.7905877678985443
 40
0.8054487969832916
 40
0.8179778329182115
 40
0.8280003454724201
 40
0.8395438286531576
 40
0.8512827677195383
 40
0.8633523162348126
 40
0.8781025189864549
 40
0.8930616395672494
 40
0.9068855897177404
 40
0.9208228583132242
 40
0.9368668784961871
 40
0.9504896412777823
 40
0.9660449615576114
 40
0.9818999194370622
 40
1.0
 40
1.0
 40
1.0
 40
1.0
 10
-130.3935383944335
 20
-383.9757995605469
 30
0.0
 10
-127.4962132116377
 20
-383.2580775265019
 30
0.0
 10
-122.8159378112231
 20
-382.0986851323706
 30
0.0
 10
-120.0419477066836
 20
-381.0903748969207
 30
0.0
 10
-116.0761328269747
 20
-380.3847911302589
 30
0.0
 10
-113.3386803855421
 20
-379.4680250525743
 30
0.0
 10
-109.7982770452293
 20
-379.0673771046567
 30
0.0
 10
-106.9662212937143
 20
-378.4444673071484
 30
0.0
 10
-103.3970130181401
 20
-377.9304236880191
 30
0.0
 10
-100.3868083219879
 20
-377.7702361227365
 30
0.0
 10
-97.29334878150358
 20
-377.2890766237099
 30
0.0
 10
-93.65018590674623
 20
-376.7515758838479
 30
0.0
 10
-91.84302649887664
 20
-376.3714779570048
 30
0.0
 10
-89.96044316821559
 20
-375.4229358137315
 30
0.0
 10
-88.49361340080229
 20
-374.660620639702
 30
0.0
 10
-86.8120008125058
 20
-373.3699304775443
 30
0.0
 10
-84.90560711366251
 20
-372.265588992981
 30
0.0
 10
-83.6764738770251
 20
-371.2994969945543
 30
0.0
 10
-82.11327574781699
 20
-370.2860281744749
 30
0.0
 10
-80.80389313013454
 20
-369.601220975819
 30
0.0
 10
-78.9907760185807
 20
-368.7825512988189
 30
0.0
 10
-76.91658233729383
 20
-368.349446790787
 30
0.0
 10
-75.20565385347676
 20
-368.1637080121639
 30
0.0
 10
-72.6788112101972
 20
-368.0280803644886
 30
0.0
 10
-69.30127869471599
 20
-367.942752254609
 30
0.0
 10
-66.92850673696994
 20
-367.9652723400686
 30
0.0
 10
-64.54545913044244
 20
-367.8039068828975
 30
0.0
 10
-63.22181698247059
 20
-367.7865380488062
 30
0.0
 10
-61.67661847899083
 20
-367.6217689936359
 30
0.0
 10
-60.35382665347254
 20
-367.4713118435733
 30
0.0
 10
-58.65948064717395
 20
-366.7204080073432
 30
0.0
 10
-56.75543746853154
 20
-365.9878251932197
 30
0.0
 10
-54.39475901043316
 20
-364.6511270554202
 30
0.0
 10
-50.75015880398875
 20
-362.7411405943877
 30
0.0
 10
-48.59625183170424
 20
-361.4030810772888
 30
0.0
 10
-46.46249670610087
 20
-359.9762703116761
 30
0.0
 10
-44.32103199310576
 20
-358.7084315024132
 30
0.0
 10
-41.79718664438516
 20
-357.41199821751
 30
0.0
 10
-40.00786312006773
 20
-356.3858021950159
 30
0.0
 10
-37.7611602880871
 20
-355.712676793893
 30
0.0
 10
-36.21934097584614
 20
-355.1065475648402
 30
0.0
 10
-34.60960211534372
 20
-354.6380723110304
 30
0.0
 10
-32.86292398407706
 20
-354.3777887190639
 30
0.0
 10
-31.37836055081308
 20
-354.2363526519525
 30
0.0
 10
-29.15124116855727
 20
-353.9296876222093
 30
0.0
 10
-26.84471963440541
 20
-354.0182201636059
 30
0.0
 10
-24.96904056786205
 20
-354.1377896231322
 30
0.0
 10
-23.53038078842579
 20
-354.6830254483014
 30
0.0
 10
-22.24182028781
 20
-355.0630844505865
 30
0.0
 10
-21.33784049172237
 20
-355.7950717992189
 30
0.0
 10
-19.63343187748251
 20
-356.5870665387941
 30
0.0
 10
-18.55321703874999
 20
-357.3757152000703
 30
0.0
 10
-17.79593469769778
 20
-357.8128413779752
 30
0.0
 10
-16.82172252061927
 20
-358.4335632190661
 30
0.0
 10
-15.8770819661813
 20
-359.1445329811322
 30
0.0
 10
-14.66631977361317
 20
-359.5631572714415
 30
0.0
 10
-12.80548091383157
 20
-359.582040022172
 30
0.0
 10
-10.92898418694029
 20
-359.6488479863615
 30
0.0
 10
-9.28117307710104
 20
-359.5352246372137
 30
0.0
 10
-7.595515144690451
 20
-359.4072352351029
 30
0.0
 10
-5.786147161992099
 20
-358.0105479069746
 30
0.0
 10
-4.522293463259545
 20
-357.1465100809054
 30
0.0
 10
-3.001389054303786
 20
-355.6258012553187
 30
0.0
 10
-1.760871070248441
 20
-353.9139234246578
 30
0.0
 10
-0.7701114387304382
 20
-352.3954071907771
 30
0.0
 10
-0.2417461617651384
 20
-351.5852661132812
 30
0.0
  0
ENDSEC
  0
SECTION
  2
OBJECTS
  0
DICTIONARY
  5
C
330
0
100
AcDbDictionary
  3
ACAD_GROUP
350
D
  3
ACAD_LAYOUT
350
1A
  3
ACAD_MATERIAL
350
43
  3
ACAD_MLEADERSTYLE
350
5B
  3
ACAD_MLINESTYLE
350
17
  3
ACAD_PLOTSETTINGS
350
19
  3
ACAD_SCALELIST
350
47
  3
ACAD_VISUALSTYLE
350
2A
  3
ACDBHEADERROUNDTRIPXREC
350
10000087
  3
ACDBVARIABLEDICTIONARY
350
100000A8
  3
DWGPROPS
350
100000B3
  3
ONSHAPE_DATA
350
10000001
  0
DICTIONARY
  5
100000B4
330
8
100
AcDbDictionary
280
     1
  3
ACAD_XREC_ROUNDTRIP
360
100000B5
  0
DICTIONARY
  5
10000085
330
1F
100
AcDbDictionary
280
     1
  3
ACAD_SORTENTS
360
10000086
  0
DICTIONARY
  5
1000005A
330
10000059
100
AcDbDictionary
280
     1
  3
BTDETID
360
1000005B
  3
BTPARTID
360
1000005C
  0
DICTIONARY
  5
1000005E
330
1000005D
100
AcDbDictionary
280
     1
  3
BTDETID
360
1000005F
  3
BTPARTID
360
10000060
  0
DICTIONARY
  5
10000062
330
10000061
100
AcDbDictionary
280
     1
  3
BTDETID
360
10000063
  3
BTPARTID
360
10000064
  0
DICTIONARY
  5
10000066
330
10000065
100
AcDbDictionary
280
     1
  3
BTDETID
360
10000067
  3
BTPARTID
360
10000068
  0
DICTIONARY
  5
1000006A
330
10000069
100
AcDbDictionary
280
     1
  3
BTDETID
360
1000006B
  3
BTPARTID
360
1000006C
  0
DICTIONARY
  5
1000006E
330
1000006D
100
AcDbDictionary
280
     1
  3
BTDETID
360
1000006F
  3
BTPARTID
360
10000070
  0
DICTIONARY
  5
10000072
330
10000071
100
AcDbDictionary
280
     1
  3
BTDETID
360
10000073
  3
BTPARTID
360
10000074
  0
DICTIONARY
  5
10000076
330
10000075
100
AcDbDictionary
280
     1
  3
BTDETID
360
10000077
  3
BTPARTID
360
10000078
  0
DICTIONARY
  5
1000007A
330
10000079
100
AcDbDictionary
280
     1
  3
BTDETID
360
1000007B
  3
BTPARTID
360
1000007C
  0
DICTIONARY
  5
1000007E
330
1000007D
100
AcDbDictionary
280
     1
  3
BTDETID
360
1000007F
  3
BTPARTID
360
10000080
  0
DICTIONARY
  5
10000082
330
10000081
100
AcDbDictionary
280
     1
  3
BTDETID
360
10000083
  3
BTPARTID
360
10000084
  0
DICTIONARY
  5
D
102
{ACAD_REACTORS
330
C
102
}
330
C
100
AcDbDictionary
  0
DICTIONARY
  5
1A
102
{ACAD_REACTORS
330
C
102
}
330
C
100
AcDbDictionary
  0
DICTIONARY
  5
43
102
{ACAD_REACTORS
330
C
102
}
330
C
100
AcDbDictionary
  3
BYBLOCK
350
45
  3
BYLAYER
350
44
  3
GLOBAL
350
46
  0
DICTIONARY
  5
5B
102
{ACAD_REACTORS
330
C
102
}
330
C
100
AcDbDictionary
  3
STANDARD
350
5C
  0
DICTIONARY
  5
17
102
{ACAD_REACTORS
330
C
102
}
330
C
100
AcDbDictionary
  3
STANDARD
350
18
  0
DICTIONARY
  5
19
102
{ACAD_REACTORS
330
C
102
}
330
C
100
AcDbDictionary
  0
DICTIONARY
  5
47
102
{ACAD_REACTORS
330
C
102
}
330
C
100
AcDbDictionary
  3
SCALE100_1
350
10000023
  3
SCALE10_1
350
1000001D
  3
SCALE12_1
350
1000001E
  3
SCALE16_1
350
1000001F
  3
SCALE1_1
350
10000006
  3
SCALE1_10
350
1000000D
  3
SCALE1_100
350
10000016
  3
SCALE1_12
350
1000000E
  3
SCALE1_16
350
1000000F
  3
SCALE1_2
350
10000007
  3
SCALE1_20
350
10000010
  3
SCALE1_25
350
10000011
  3
SCALE1_3
350
10000008
  3
SCALE1_32
350
10000012
  3
SCALE1_4
350
10000009
  3
SCALE1_40
350
10000013
  3
SCALE1_5
350
1000000A
  3
SCALE1_50
350
10000014
  3
SCALE1_6
350
1000000B
  3
SCALE1_8
350
1000000C
  3
SCALE1_80
350
10000015
  3
SCALE20_1
350
10000020
  3
SCALE2_1
350
10000017
  3
SCALE32_1
350
10000021
  3
SCALE3_1
350
10000018
  3
SCALE4_1
350
10000019
  3
SCALE50_1
350
10000022
  3
SCALE5_1
350
1000001A
  3
SCALE6_1
350
1000001B
  3
SCALE8_1
350
1000001C
  0
DICTIONARY
  5
2A
102
{ACAD_REACTORS
330
C
102
}
330
C
100
AcDbDictionary
  3
2DWIREFRAME
350
2F
  3
BASIC
350
32
  3
BRIGHTEN
350
36
  3
COLORCHANGE
350
3A
  3
CONCEPTUAL
350
34
  3
DIM
350
35
  3
EDGECOLOROFF
350
3D
  3
FACEPATTERN
350
39
  3
FLAT
350
2B
  3
FLATWITHEDGES
350
2C
  3
GOURAUD
350
2D
  3
GOURAUDWITHEDGES
350
2E
  3
HIDDEN
350
31
  3
JITTEROFF
350
3B
  3
LINEPATTERN
350
38
  3
OVERHANGOFF
350
3C
  3
REALISTIC
350
33
  3
SHADED
350
42
  3
SHADED_WITH_EDGES
350
41
  3
SHADES_OF_GRAY
350
3E
  3
SKETCHY
350
3F
  3
THICKEN
350
37
  3
WIREFRAME
350
30
  3
X-RAY
350
40
  0
DICTIONARY
  5
10000087
102
{ACAD_REACTORS
330
C
102
}
330
C
100
AcDbDictionary
  3
CEPSNID
350
10000091
  3
CEPSNTYPE
350
10000090
  3
DIMSTYLEDATA
350
100000A7
  3
FINGERPRINTGUID
350
10000092
  3
HYPERLINKBASE
350
1000008A
  3
INSUNITS
350
1000008F
  3
LAYOUTDICT
350
1000008C
  3
LWETCUNION
350
1000008E
  3
PLOTSETDICT
350
1000008D
  3
PSVPSCALE
350
10000094
  3
PUCSBASE
350
10000097
  3
PUCSORGBACK
350
1000009D
  3
PUCSORGBOTTOM
350
10000099
  3
PUCSORGFRONT
350
1000009C
  3
PUCSORGLEFT
350
1000009A
  3
PUCSORGRIGHT
350
1000009B
  3
PUCSORGTOP
350
10000098
  3
PUCSORTHOREF
350
10000095
  3
PUCSORTHOVIEW
350
10000096
  3
STYLESHEET
350
1000008B
  3
TSTACKALIGN
350
10000088
  3
TSTACKSIZE
350
10000089
  3
UCSBASE
350
100000A0
  3
UCSORGBACK
350
100000A6
  3
UCSORGBOTTOM
350
100000A2
  3
UCSORGFRONT
350
100000A5
  3
UCSORGLEFT
350
100000A3
  3
UCSORGRIGHT
350
100000A4
  3
UCSORGTOP
350
100000A1
  3
UCSORTHOREF
350
1000009E
  3
UCSORTHOVIEW
350
1000009F
  3
VERSIONGUID
350
10000093
  0
DICTIONARY
  5
100000A8
102
{ACAD_REACTORS
330
C
102
}
330
C
100
AcDbDictionary
  3
CANNOSCALE
350
100000B6
  3
CENTEREXE
350
100000AF
  3
CENTERLTYPEFILE
350
100000B0
  3
CMLEADERSTYLE
350
100000AA
  3
CTABLESTYLE
350
100000A9
  3
DIMASSOC
350
100000B1
  3
HIDETEXT
350
100000B2
  3
MSLTSCALE
350
100000B7
  3
PSOLHEIGHT
350
100000AC
  3
PSOLWIDTH
350
100000AB
  0
XRECORD
  5
100000B3
102
{ACAD_REACTORS
330
C
102
}
330
C
100
AcDbXrecord
  1
DWGPROPS COOKIE
  2

  3

  4

  6
File was created by BTDwgCreate
  7

  8
onshape
  9

300
=
301
=
302
=
303
=
304
=
305
=
306
=
307
=
308
=
309
=
 40
0.0
 41
2460952.610778507
 42
2460952.610778542
  1

 90
        0
  0
DICTIONARY
  5
10000001
102
{ACAD_REACTORS
330
C
102
}
330
C
100
AcDbDictionary
280
     1
  3
DIM_UNITS
360
10000003
  3
DWGGEN_VERSION
360
10000002
  3
FIRST_ANGLE
360
10000005
  0
XRECORD
  5
100000B5
102
{ACAD_REACTORS
330
100000B4
102
}
330
100000B4
100
AcDbXrecord
102
VTR_0.000_0.000_1.000_1.000_VISUALSTYLE
340
2F
102
VTR_0.000_0.000_1.000_1.000_GRIDDISPLAY
 70
     3
102
VTR_0.000_0.000_1.000_1.000_GRIDMAJOR
 70
     5
102
VTR_0.000_0.000_1.000_1.000_DEFAULTLIGHTING
280
     1
102
VTR_0.000_0.000_1.000_1.000_DEFAULTLIGHTINGTYPE
 70
     1
102
VTR_0.000_0.000_1.000_1.000_BRIGHTNESS
141
0.0
102
VTR_0.000_0.000_1.000_1.000_CONTRAST
142
0.0
  0
SORTENTSTABLE
  5
10000086
102
{ACAD_REACTORS
330
10000085
102
}
330
10000085
100
AcDbSortentsTable
330
1F
  0
XRECORD
  5
1000005B
102
{ACAD_REACTORS
330
1000005A
102
}
330
1000005A
100
AcDbXrecord
1000
KFhB
  0
XRECORD
  5
1000005C
102
{ACAD_REACTORS
330
1000005A
102
}
330
1000005A
100
AcDbXrecord
1000
KFjB
  0
XRECORD
  5
1000005F
102
{ACAD_REACTORS
330
1000005E
102
}
330
1000005E
100
AcDbXrecord
1000
KFVB
  0
XRECORD
  5
10000060
102
{ACAD_REACTORS
330
1000005E
102
}
330
1000005E
100
AcDbXrecord
1000
KFXB
  0
XRECORD
  5
10000063
102
{ACAD_REACTORS
330
10000062
102
}
330
10000062
100
AcDbXrecord
1000
KFJB
  0
XRECORD
  5
10000064
102
{ACAD_REACTORS
330
10000062
102
}
330
10000062
100
AcDbXrecord
1000
KFLB
  0
XRECORD
  5
10000067
102
{ACAD_REACTORS
330
10000066
102
}
330
10000066
100
AcDbXrecord
1000
JF9
  0
XRECORD
  5
10000068
102
{ACAD_REACTORS
330
10000066
102
}
330
10000066
100
AcDbXrecord
1000
JF/
  0
XRECORD
  5
1000006B
102
{ACAD_REACTORS
330
1000006A
102
}
330
1000006A
100
AcDbXrecord
1000
JFx
  0
XRECORD
  5
1000006C
102
{ACAD_REACTORS
330
1000006A
102
}
330
1000006A
100
AcDbXrecord
1000
JFz
  0
XRECORD
  5
1000006F
102
{ACAD_REACTORS
330
1000006E
102
}
330
1000006E
100
AcDbXrecord
1000
KFFC
  0
XRECORD
  5
10000070
102
{ACAD_REACTORS
330
1000006E
102
}
330
1000006E
100
AcDbXrecord
1000
KFHC
  0
XRECORD
  5
10000073
102
{ACAD_REACTORS
330
10000072
102
}
330
10000072
100
AcDbXrecord
1000
KFRC
  0
XRECORD
  5
10000074
102
{ACAD_REACTORS
330
10000072
102
}
330
10000072
100
AcDbXrecord
1000
KFTC
  0
XRECORD
  5
10000077
102
{ACAD_REACTORS
330
10000076
102
}
330
10000076
100
AcDbXrecord
1000
KF5B
  0
XRECORD
  5
10000078
102
{ACAD_REACTORS
330
10000076
102
}
330
10000076
100
AcDbXrecord
1000
KF7B
  0
XRECORD
  5
1000007B
102
{ACAD_REACTORS
330
1000007A
102
}
330
1000007A
100
AcDbXrecord
1000
JFl
  0
XRECORD
  5
1000007C
102
{ACAD_REACTORS
330
1000007A
102
}
330
1000007A
100
AcDbXrecord
1000
JFn
  0
XRECORD
  5
1000007F
102
{ACAD_REACTORS
330
1000007E
102
}
330
1000007E
100
AcDbXrecord
1000
KFtB
  0
XRECORD
  5
10000080
102
{ACAD_REACTORS
330
1000007E
102
}
330
1000007E
100
AcDbXrecord
1000
KFvB
  0
XRECORD
  5
10000083
102
{ACAD_REACTORS
330
10000082
102
}
330
10000082
100
AcDbXrecord
1000
JFZ
  0
XRECORD
  5
10000084
102
{ACAD_REACTORS
330
10000082
102
}
330
10000082
100
AcDbXrecord
1000
JFb
  0
MATERIAL
  5
45
102
{ACAD_REACTORS
330
43
102
}
102
{ACAD_XDICTIONARY
360
100000BA
102
}
330
43
100
AcDbMaterial
  1
BYBLOCK
  0
MATERIAL
  5
44
102
{ACAD_REACTORS
330
43
102
}
102
{ACAD_XDICTIONARY
360
100000B8
102
}
330
43
100
AcDbMaterial
  1
BYLAYER
  0
MATERIAL
  5
46
102
{ACAD_REACTORS
330
43
102
}
102
{ACAD_XDICTIONARY
360
100000BC
102
}
330
43
100
AcDbMaterial
  1
GLOBAL
  0
ACAD_PROXY_OBJECT
  5
5C
102
{ACAD_REACTORS
330
5B
102
}
330
5B
100
AcDbProxyObject
 90
      499
 91
      505
 93
      610
310
40901902A4063FBFFFFFE0000000000000020400000000000020404214DD185B99185C990000000000000104090141901A00000000000004100000000000000041025764000000000000039000
340
14
340
0
340
11
340
0
 94
        0
1001
ACAD_MLEADERVER
1070
     2
  0
MLINESTYLE
  5
18
102
{ACAD_REACTORS
330
17
102
}
330
17
100
AcDbMlineStyle
  2
Standard
 70
     0
  3

 62
   256
 51
90.0
 52
90.0
 71
     2
 49
0.5
 62
   256
  6
BYLAYER
 49
-0.5
 62
   256
  6
BYLAYER
  0
ACAD_PROXY_OBJECT
  5
10000023
102
{ACAD_REACTORS
330
47
102
}
330
47
100
AcDbProxyObject
 90
      499
 91
      503
 93
      121
310
9053130303A310000000000001650100
  0
ACAD_PROXY_OBJECT
  5
1000001D
102
{ACAD_REACTORS
330
47
102
}
330
47
100
AcDbProxyObject
 90
      499
 91
      503
 93
      113
310
90431303A310000000000000910100
  0
ACAD_PROXY_OBJECT
  5
1000001E
102
{ACAD_REACTORS
330
47
102
}
330
47
100
AcDbProxyObject
 90
      499
 91
      503
 93
      113
310
90431323A310000000000000A10100
  0
ACAD_PROXY_OBJECT
  5
1000001F
102
{ACAD_REACTORS
330
47
102
}
330
47
100
AcDbProxyObject
 90
      499
 91
      503
 93
      113
310
90431363A310000000000000C10100
  0
ACAD_PROXY_OBJECT
  5
10000006
102
{ACAD_REACTORS
330
47
102
}
330
47
100
AcDbProxyObject
 90
      499
 91
      503
 93
       41
310
903313A31500
  0
ACAD_PROXY_OBJECT
  5
1000000D
102
{ACAD_REACTORS
330
47
102
}
330
47
100
AcDbProxyObject
 90
      499
 91
      503
 93
      113
310
904313A31304000000000000244000
  0
ACAD_PROXY_OBJECT
  5
10000016
102
{ACAD_REACTORS
330
47
102
}
330
47
100
AcDbProxyObject
 90
      499
 91
      503
 93
      121
310
905313A3130304000000000000594000
  0
ACAD_PROXY_OBJECT
  5
1000000E
102
{ACAD_REACTORS
330
47
102
}
330
47
100
AcDbProxyObject
 90
      499
 91
      503
 93
      113
310
904313A31324000000000000284000
  0
ACAD_PROXY_OBJECT
  5
1000000F
102
{ACAD_REACTORS
330
47
102
}
330
47
100
AcDbProxyObject
 90
      499
 91
      503
 93
      113
310
904313A31364000000000000304000
  0
ACAD_PROXY_OBJECT
  5
10000007
102
{ACAD_REACTORS
330
47
102
}
330
47
100
AcDbProxyObject
 90
      499
 91
      503
 93
      105
310
903313A324000000000000004000
  0
ACAD_PROXY_OBJECT
  5
10000010
102
{ACAD_REACTORS
330
47
102
}
330
47
100
AcDbProxyObject
 90
      499
 91
      503
 93
      113
310
904313A32304000000000000344000
  0
ACAD_PROXY_OBJECT
  5
10000011
102
{ACAD_REACTORS
330
47
102
}
330
47
100
AcDbProxyObject
 90
      499
 91
      503
 93
      113
310
904313A32354000000000000394000
  0
ACAD_PROXY_OBJECT
  5
10000008
102
{ACAD_REACTORS
330
47
102
}
330
47
100
AcDbProxyObject
 90
      499
 91
      503
 93
      105
310
903313A334000000000000084000
  0
ACAD_PROXY_OBJECT
  5
10000012
102
{ACAD_REACTORS
330
47
102
}
330
47
100
AcDbProxyObject
 90
      499
 91
      503
 93
      113
310
904313A33324000000000000404000
  0
ACAD_PROXY_OBJECT
  5
10000009
102
{ACAD_REACTORS
330
47
102
}
330
47
100
AcDbProxyObject
 90
      499
 91
      503
 93
      105
310
903313A344000000000000104000
  0
ACAD_PROXY_OBJECT
  5
10000013
102
{ACAD_REACTORS
330
47
102
}
330
47
100
AcDbProxyObject
 90
      499
 91
      503
 93
      113
310
904313A34304000000000000444000
  0
ACAD_PROXY_OBJECT
  5
1000000A
102
{ACAD_REACTORS
330
47
102
}
330
47
100
AcDbProxyObject
 90
      499
 91
      503
 93
      105
310
903313A354000000000000144000
  0
ACAD_PROXY_OBJECT
  5
10000014
102
{ACAD_REACTORS
330
47
102
}
330
47
100
AcDbProxyObject
 90
      499
 91
      503
 93
      113
310
904313A35304000000000000494000
  0
ACAD_PROXY_OBJECT
  5
1000000B
102
{ACAD_REACTORS
330
47
102
}
330
47
100
AcDbProxyObject
 90
      499
 91
      503
 93
      105
310
903313A364000000000000184000
  0
ACAD_PROXY_OBJECT
  5
1000000C
102
{ACAD_REACTORS
330
47
102
}
330
47
100
AcDbProxyObject
 90
      499
 91
      503
 93
      105
310
903313A384000000000000204000
  0
ACAD_PROXY_OBJECT
  5
10000015
102
{ACAD_REACTORS
330
47
102
}
330
47
100
AcDbProxyObject
 90
      499
 91
      503
 93
      113
310
904313A38304000000000000544000
  0
ACAD_PROXY_OBJECT
  5
10000020
102
{ACAD_REACTORS
330
47
102
}
330
47
100
AcDbProxyObject
 90
      499
 91
      503
 93
      113
310
90432303A310000000000000D10100
  0
ACAD_PROXY_OBJECT
  5
10000017
102
{ACAD_REACTORS
330
47
102
}
330
47
100
AcDbProxyObject
 90
      499
 91
      503
 93
      105
310
903323A310000000000000010100
  0
ACAD_PROXY_OBJECT
  5
10000021
102
{ACAD_REACTORS
330
47
102
}
330
47
100
AcDbProxyObject
 90
      499
 91
      503
 93
      113
310
90433323A310000000000001010100
  0
ACAD_PROXY_OBJECT
  5
10000018
102
{ACAD_REACTORS
330
47
102
}
330
47
100
AcDbProxyObject
 90
      499
 91
      503
 93
      105
310
903333A310000000000000210100
  0
ACAD_PROXY_OBJECT
  5
10000019
102
{ACAD_REACTORS
330
47
102
}
330
47
100
AcDbProxyObject
 90
      499
 91
      503
 93
      105
310
903343A310000000000000410100
  0
ACAD_PROXY_OBJECT
  5
10000022
102
{ACAD_REACTORS
330
47
102
}
330
47
100
AcDbProxyObject
 90
      499
 91
      503
 93
      113
310
90435303A310000000000001250100
  0
ACAD_PROXY_OBJECT
  5
1000001A
102
{ACAD_REACTORS
330
47
102
}
330
47
100
AcDbProxyObject
 90
      499
 91
      503
 93
      105
310
903353A310000000000000510100
  0
ACAD_PROXY_OBJECT
  5
1000001B
102
{ACAD_REACTORS
330
47
102
}
330
47
100
AcDbProxyObject
 90
      499
 91
      503
 93
      105
310
903363A310000000000000610100
  0
ACAD_PROXY_OBJECT
  5
1000001C
102
{ACAD_REACTORS
330
47
102
}
330
47
100
AcDbProxyObject
 90
      499
 91
      503
 93
      105
310
903383A310000000000000810100
  0
ACAD_PROXY_OBJECT
  5
2F
102
{ACAD_REACTORS
330
2A
102
}
330
2A
100
AcDbProxyObject
 90
      499
 91
      501
 93
      436
310
42CC9915DA5C99599C985B595049028333333333333E33F0000000000000F90107901411070040501600405405064090741402480A0340
1001
ACAD
1000
AcDbSavedByObjectVersion
1070
     0
  0
ACAD_PROXY_OBJECT
  5
32
102
{ACAD_REACTORS
330
2A
102
}
330
2A
100
AcDbProxyObject
 90
      499
 91
      501
 93
      388
310
4150985CDA58D07406404333333333333E33F0000000000000F90107A41107004050150841D405064090741402480A0350
1001
ACAD
1000
AcDbSavedByObjectVersion
1070
     0
  0
ACAD_PROXY_OBJECT
  5
36
102
{ACAD_REACTORS
330
2A
102
}
330
2A
100
AcDbProxyObject
 90
      499
 91
      501
 93
      428
310
42109C9A59DA1D195B90C409028333333333333E33F0000000000000F9010790141107004050150841D405064090741402480A029950
1001
ACAD
1000
AcDbSavedByObjectVersion
1070
     0
  0
ACAD_PROXY_OBJECT
  5
3A
102
{ACAD_REACTORS
330
2A
102
}
330
2A
100
AcDbProxyObject
 90
      499
 91
      501
 93
      452
310
42D0DBDB1BDC90DA185B99D95104090240C333333333333E33F0000000000000F90108901411070040501508421405064090741402480A0350
1001
ACAD
1000
AcDbSavedByObjectVersion
1070
     0
  0
ACAD_PROXY_OBJECT
  5
34
102
{ACAD_REACTORS
330
2A
102
}
330
2A
100
AcDbProxyObject
 90
      499
 91
      501
 93
      500
310
4290DBDB98D95C1D1D585B10940D028333333333333E33F0000000000000F90107902409070040501000000000018199010841D405064090740C02480A0340
1001
ACAD
1000
AcDbSavedByObjectVersion
1070
     0
  0
ACAD_PROXY_OBJECT
  5
35
102
{ACAD_REACTORS
330
2A
102
}
330
2A
100
AcDbProxyObject
 90
      499
 91
      501
 93
      412
310
40D11A5B50B409028333333333333E33F0000000000000F9010790141107004050150841D405064090741402480A02677FFFFFD0
1001
ACAD
1000
AcDbSavedByObjectVersion
1070
     0
  0
ACAD_PROXY_OBJECT
  5
3D
102
{ACAD_REACTORS
330
2A
102
}
330
2A
100
AcDbProxyObject
 90
      499
 91
      501
 93
      452
310
43115919D950DBDB1BDC93D999916409028333333333333E33F0000000000000F9010790141107004050150841D405064090741402480A0350
1001
ACAD
1000
AcDbSavedByObjectVersion
1070
     0
  0
ACAD_PROXY_OBJECT
  5
39
102
{ACAD_REACTORS
330
2A
102
}
330
2A
100
AcDbProxyObject
 90
      499
 91
      501
 93
      444
310
42D19858D95C185D1D195C9B90F409028333333333333E33F0000000000000F9010790141107004050150841D405064090741402480A0350
1001
ACAD
1000
AcDbSavedByObjectVersion
1070
     0
  0
ACAD_PROXY_OBJECT
  5
2B
102
{ACAD_REACTORS
330
2A
102
}
330
2A
100
AcDbProxyObject
 90
      499
 91
      501
 93
      380
310
41119B185D240901404333333333333E33F0000000000000F9010740A907004050150841D405064090741402480A1B50
1001
ACAD
1000
AcDbSavedByObjectVersion
1070
     0
  0
ACAD_PROXY_OBJECT
  5
2C
102
{ACAD_REACTORS
330
2A
102
}
330
2A
100
AcDbProxyObject
 90
      499
 91
      501
 93
      468
310
43519B185D15DA5D1A115919D95CD0140901404333333333333E33F0000000000000F90107409019070040501600405405064090741402480A1B50
1001
ACAD
1000
AcDbSavedByObjectVersion
1070
     0
  0
ACAD_PROXY_OBJECT
  5
2D
102
{ACAD_REACTORS
330
2A
102
}
330
2A
100
AcDbProxyObject
 90
      499
 91
      501
 93
      404
310
41D1DBDD5C985D5910240902404333333333333E33F0000000000000F9010740A9070040501641D405064090741402480A1B50
1001
ACAD
1000
AcDbSavedByObjectVersion
1070
     0
  0
ACAD_PROXY_OBJECT
  5
2E
102
{ACAD_REACTORS
330
2A
102
}
330
2A
100
AcDbProxyObject
 90
      499
 91
      501
 93
      492
310
4411DBDD5C985D5915DA5D1A115919D95CD0340902404333333333333E33F0000000000000F90107409019070040501600405405064090741402480A1B50
1001
ACAD
1000
AcDbSavedByObjectVersion
1070
     0
  0
ACAD_PROXY_OBJECT
  5
31
102
{ACAD_REACTORS
330
2A
102
}
330
2A
100
AcDbProxyObject
 90
      499
 91
      501
 93
      476
310
41921A5919195B90640502408333333333333E33F0000000000000F901079024090700405020000000000001110200405405064090740C02480A0340
1001
ACAD
1000
AcDbSavedByObjectVersion
1070
     0
  0
ACAD_PROXY_OBJECT
  5
3B
102
{ACAD_REACTORS
330
2A
102
}
330
2A
100
AcDbProxyObject
 90
      499
 91
      501
 93
      428
310
42529A5D1D195C93D999914409028333333333333E33F0000000000000F9010790141107004050150A41D405064090741402480A0350
1001
ACAD
1000
AcDbSavedByObjectVersion
1070
     0
  0
ACAD_PROXY_OBJECT
  5
38
102
{ACAD_REACTORS
330
2A
102
}
330
2A
100
AcDbProxyObject
 90
      499
 91
      501
 93
      444
310
42D31A5B995C185D1D195C9B90E409028333333333333E33F0000000000000F9010790141107004050750841D405064090741402483A0350
1001
ACAD
1000
AcDbSavedByObjectVersion
1070
     0
  0
ACAD_PROXY_OBJECT
  5
3C
102
{ACAD_REACTORS
330
2A
102
}
330
2A
100
AcDbProxyObject
 90
      499
 91
      501
 93
      444
310
42D3DD995C9A185B99D3D999915409028333333333333E33F0000000000000F9010790141107004050150941D405064090741402480A0350
1001
ACAD
1000
AcDbSavedByObjectVersion
1070
     0
  0
ACAD_PROXY_OBJECT
  5
33
102
{ACAD_REACTORS
330
2A
102
}
330
2A
100
AcDbProxyObject
 90
      499
 91
      501
 93
      428
310
425499585B1A5CDD1A58D08409038333333333333E33F0000000000000F9010740A907004050150800405405064090740C02480A1B40
1001
ACAD
1000
AcDbSavedByObjectVersion
1070
     0
  0
ACAD_PROXY_OBJECT
  5
42
102
{ACAD_REACTORS
330
2A
102
}
330
2A
100
AcDbProxyObject
 90
      499
 91
      501
 93
      420
310
4194DA1859195911B40902404333333333333E33F0000000000000F9010740A41107004050150800405405064090840C02480A0B40
1001
ACAD
1000
AcDbSavedByObjectVersion
1070
     0
  0
ACAD_PROXY_OBJECT
  5
41
102
{ACAD_REACTORS
330
2A
102
}
330
2A
100
AcDbProxyObject
 90
      499
 91
      501
 93
      516
310
4454DA18591959081DDA5D1A08195919D95CD1A40902404333333333333E33F0000000000000F901074090142907004050250800405405064090740C02480A0B40
1001
ACAD
1000
AcDbSavedByObjectVersion
1070
     0
  0
ACAD_PROXY_OBJECT
  5
3E
102
{ACAD_REACTORS
330
2A
102
}
330
2A
100
AcDbProxyObject
 90
      499
 91
      501
 93
      532
310
4394DA1859195CC81BD98811DC985E5174090240C333333333333E33F0000000000000F901079024090741D01000000000000111010841D405064090740C02480A0340
1001
ACAD
1000
AcDbSavedByObjectVersion
1070
     0
  0
ACAD_PROXY_OBJECT
  5
3F
102
{ACAD_REACTORS
330
2A
102
}
330
2A
100
AcDbProxyObject
 90
      499
 91
      501
 93
      476
310
41D4DAD95D18DA1E51840502408333333333333E33F0000000000000F901079024090741D01000000000000111010B41D405064090741802480A0340
1001
ACAD
1000
AcDbSavedByObjectVersion
1070
     0
  0
ACAD_PROXY_OBJECT
  5
37
102
{ACAD_REACTORS
330
2A
102
}
330
2A
100
AcDbProxyObject
 90
      499
 91
      501
 93
      412
310
41D51A1A58DAD95B90D409028333333333333E33F0000000000000F9010790141107004050150C41D405064090741402480A0350
1001
ACAD
1000
AcDbSavedByObjectVersion
1070
     0
  0
ACAD_PROXY_OBJECT
  5
30
102
{ACAD_REACTORS
330
2A
102
}
330
2A
100
AcDbProxyObject
 90
      499
 91
      501
 93
      420
310
4255DA5C99599C985B595059028333333333333E33F0000000000000F90107901411070040501600405405064090740C02480A0340
1001
ACAD
1000
AcDbSavedByObjectVersion
1070
     0
  0
ACAD_PROXY_OBJECT
  5
40
102
{ACAD_REACTORS
330
2A
102
}
330
2A
100
AcDbProxyObject
 90
      499
 91
      501
 93
      404
310
41560B54985E51940902404000000000000E03F0000000000000F9010740501907004050150841D405064090740C02480A1B40
1001
ACAD
1000
AcDbSavedByObjectVersion
1070
     0
  0
XRECORD
  5
10000091
102
{ACAD_REACTORS
330
10000087
102
}
330
10000087
100
AcDbXrecord
340
0
  0
XRECORD
  5
10000090
102
{ACAD_REACTORS
330
10000087
102
}
330
10000087
100
AcDbXrecord
 90
        0
  0
XRECORD
  5
100000A7
102
{ACAD_REACTORS
330
10000087
102
}
330
10000087
100
AcDbXrecord
1000
DSTYLE
1002
{
1070
   143
 40
1000.0
1070
   340
340
11
1002
}
  0
XRECORD
  5
10000092
102
{ACAD_REACTORS
330
10000087
102
}
330
10000087
100
AcDbXrecord
  1
{b4397237-7874-7171-b474-e67032746464}
  0
XRECORD
  5
1000008A
102
{ACAD_REACTORS
330
10000087
102
}
330
10000087
100
AcDbXrecord
  1

  0
XRECORD
  5
1000008F
102
{ACAD_REACTORS
330
10000087
102
}
330
10000087
100
AcDbXrecord
 90
        4
  0
XRECORD
  5
1000008C
102
{ACAD_REACTORS
330
10000087
102
}
330
10000087
100
AcDbXrecord
340
1A
  0
XRECORD
  5
1000008E
102
{ACAD_REACTORS
330
10000087
102
}
330
10000087
100
AcDbXrecord
 90
    10781
  0
XRECORD
  5
1000008D
102
{ACAD_REACTORS
330
10000087
102
}
330
10000087
100
AcDbXrecord
340
19
  0
XRECORD
  5
10000094
102
{ACAD_REACTORS
330
10000087
102
}
330
10000087
100
AcDbXrecord
 40
0.0
  0
XRECORD
  5
10000097
102
{ACAD_REACTORS
330
10000087
102
}
330
10000087
100
AcDbXrecord
340
0
  0
XRECORD
  5
1000009D
102
{ACAD_REACTORS
330
10000087
102
}
330
10000087
100
AcDbXrecord
 10
0.0
 20
0.0
 30
0.0
  0
XRECORD
  5
10000099
102
{ACAD_REACTORS
330
10000087
102
}
330
10000087
100
AcDbXrecord
 10
0.0
 20
0.0
 30
0.0
  0
XRECORD
  5
1000009C
102
{ACAD_REACTORS
330
10000087
102
}
330
10000087
100
AcDbXrecord
 10
0.0
 20
0.0
 30
0.0
  0
XRECORD
  5
1000009A
102
{ACAD_REACTORS
330
10000087
102
}
330
10000087
100
AcDbXrecord
 10
0.0
 20
0.0
 30
0.0
  0
XRECORD
  5
1000009B
102
{ACAD_REACTORS
330
10000087
102
}
330
10000087
100
AcDbXrecord
 10
0.0
 20
0.0
 30
0.0
  0
XRECORD
  5
10000098
102
{ACAD_REACTORS
330
10000087
102
}
330
10000087
100
AcDbXrecord
 10
0.0
 20
0.0
 30
0.0
  0
XRECORD
  5
10000095
102
{ACAD_REACTORS
330
10000087
102
}
330
10000087
100
AcDbXrecord
340
0
  0
XRECORD
  5
10000096
102
{ACAD_REACTORS
330
10000087
102
}
330
10000087
100
AcDbXrecord
 70
     0
  0
XRECORD
  5
1000008B
102
{ACAD_REACTORS
330
10000087
102
}
330
10000087
100
AcDbXrecord
  1

  0
XRECORD
  5
10000088
102
{ACAD_REACTORS
330
10000087
102
}
330
10000087
100
AcDbXrecord
 90
        1
  0
XRECORD
  5
10000089
102
{ACAD_REACTORS
330
10000087
102
}
330
10000087
100
AcDbXrecord
 90
       70
  0
XRECORD
  5
100000A0
102
{ACAD_REACTORS
330
10000087
102
}
330
10000087
100
AcDbXrecord
340
0
  0
XRECORD
  5
100000A6
102
{ACAD_REACTORS
330
10000087
102
}
330
10000087
100
AcDbXrecord
 10
0.0
 20
0.0
 30
0.0
  0
XRECORD
  5
100000A2
102
{ACAD_REACTORS
330
10000087
102
}
330
10000087
100
AcDbXrecord
 10
0.0
 20
0.0
 30
0.0
  0
XRECORD
  5
100000A5
102
{ACAD_REACTORS
330
10000087
102
}
330
10000087
100
AcDbXrecord
 10
0.0
 20
0.0
 30
0.0
  0
XRECORD
  5
100000A3
102
{ACAD_REACTORS
330
10000087
102
}
330
10000087
100
AcDbXrecord
 10
0.0
 20
0.0
 30
0.0
  0
XRECORD
  5
100000A4
102
{ACAD_REACTORS
330
10000087
102
}
330
10000087
100
AcDbXrecord
 10
0.0
 20
0.0
 30
0.0
  0
XRECORD
  5
100000A1
102
{ACAD_REACTORS
330
10000087
102
}
330
10000087
100
AcDbXrecord
 10
0.0
 20
0.0
 30
0.0
  0
XRECORD
  5
1000009E
102
{ACAD_REACTORS
330
10000087
102
}
330
10000087
100
AcDbXrecord
340
0
  0
XRECORD
  5
1000009F
102
{ACAD_REACTORS
330
10000087
102
}
330
10000087
100
AcDbXrecord
 70
     0
  0
XRECORD
  5
10000093
102
{ACAD_REACTORS
330
10000087
102
}
330
10000087
100
AcDbXrecord
  1
{FAEB1C32-E019-11D5-929B-00C0DF256EC4}
  0
DICTIONARYVAR
  5
100000B6
102
{ACAD_REACTORS
330
100000A8
102
}
330
100000A8
100
DictionaryVariables
280
     0
  1
1:1
  0
DICTIONARYVAR
  5
100000AF
102
{ACAD_REACTORS
330
100000A8
102
}
330
100000A8
100
DictionaryVariables
280
     0
  1
3.500000
  0
DICTIONARYVAR
  5
100000B0
102
{ACAD_REACTORS
330
100000A8
102
}
330
100000A8
100
DictionaryVariables
280
     0
  1
acadiso.lin
  0
DICTIONARYVAR
  5
100000AA
102
{ACAD_REACTORS
330
100000A8
102
}
330
100000A8
100
DictionaryVariables
280
     0
  1
Standard
  0
DICTIONARYVAR
  5
100000A9
102
{ACAD_REACTORS
330
100000A8
102
}
330
100000A8
100
DictionaryVariables
280
     0
  1
Standard
  0
DICTIONARYVAR
  5
100000B1
102
{ACAD_REACTORS
330
100000A8
102
}
330
100000A8
100
DictionaryVariables
280
     0
  1
2
  0
DICTIONARYVAR
  5
100000B2
102
{ACAD_REACTORS
330
100000A8
102
}
330
100000A8
100
DictionaryVariables
280
     0
  1
1
  0
DICTIONARYVAR
  5
100000B7
102
{ACAD_REACTORS
330
100000A8
102
}
330
100000A8
100
DictionaryVariables
280
     0
  1
1
  0
DICTIONARYVAR
  5
100000AC
102
{ACAD_REACTORS
330
100000A8
102
}
330
100000A8
100
DictionaryVariables
280
     0
  1
80.000000
  0
DICTIONARYVAR
  5
100000AB
102
{ACAD_REACTORS
330
100000A8
102
}
330
100000A8
100
DictionaryVariables
280
     0
  1
5.000000
  0
XRECORD
  5
10000003
102
{ACAD_REACTORS
330
10000001
102
}
330
10000001
100
AcDbXrecord
 70
     6
  0
XRECORD
  5
10000002
102
{ACAD_REACTORS
330
10000001
102
}
330
10000001
100
AcDbXrecord
1040
89.0
  0
ACAD_PROXY_OBJECT
  5
10000005
102
{ACAD_REACTORS
330
10000001
102
}
330
10000001
100
AcDbProxyObject
 90
      499
 91
      509
 93
       34
310
40C8804040
  0
DICTIONARY
  5
100000BA
330
45
100
AcDbDictionary
280
     1
  3
ACAD_XREC_ROUNDTRIP
360
100000BB
  0
DICTIONARY
  5
100000B8
330
44
100
AcDbDictionary
280
     1
  3
ACAD_XREC_ROUNDTRIP
360
100000B9
  0
DICTIONARY
  5
100000BC
330
46
100
AcDbDictionary
280
     1
  3
ACAD_XREC_ROUNDTRIP
360
100000BD
  0
XRECORD
  5
100000BB
102
{ACAD_REACTORS
330
100000BA
102
}
330
100000BA
100
AcDbXrecord
102
MATERIAL
148
0.0
149
0.0
149
0.0
 93
        0
 94
      127
282
     0
 72
     1
 77
     1
171
     1
175
     1
179
     1
273
     0
  0
XRECORD
  5
100000B9
102
{ACAD_REACTORS
330
100000B8
102
}
330
100000B8
100
AcDbXrecord
102
MATERIAL
148
0.0
149
0.0
149
0.0
 93
        0
 94
      127
282
     0
 72
     1
 77
     1
171
     1
175
     1
179
     1
273
     0
  0
XRECORD
  5
100000BD
102
{ACAD_REACTORS
330
100000BC
102
}
330
100000BC
100
AcDbXrecord
102
MATERIAL
148
0.0
149
0.0
149
0.0
 93
        0
 94
      127
282
     0
 72
     1
 77
     1
171
     1
175
     1
179
     1
273
     0
  0
ENDSEC
  0
EOF
