  0
SECTION
  2
HEADER
  9
$ACADVER
  1
AC1014
  9
$ACADMAINTVER
 70
     9
  9
$DWGCODEPAGE
  3
ANSI_1252
  9
$INSBASE
 10
0.0
 20
0.0
 30
0.0
  9
$EXTMIN
 10
1.000000000000000E+20
 20
1.000000000000000E+20
 30
1.000000000000000E+20
  9
$EXTMAX
 10
-1.000000000000000E+20
 20
-1.000000000000000E+20
 30
-1.000000000000000E+20
  9
$LIMMIN
 10
0.0
 20
0.0
  9
$LIMMAX
 10
12.0
 20
9.0
  9
$ORTHOMODE
 70
     0
  9
$REGENMODE
 70
     1
  9
$FILLMODE
 70
     1
  9
$QTEXTMODE
 70
     0
  9
$MIRRTEXT
 70
     1
  9
$DRAGMODE
 70
     2
  9
$LTSCALE
 40
1.0
  9
$OSMODE
 70
    37
  9
$ATTMODE
 70
     1
  9
$TEXTSIZE
 40
0.2
  9
$TRACEWID
 40
0.05
  9
$TEXTSTYLE
  7
STANDARD
  9
$CLAYER
  8
0
  9
$CELTYPE
  6
BYLAYER
  9
$CECOLOR
 62
   256
  9
$CELTSCALE
 40
1.0
  9
$DELOBJ
 70
     1
  9
$DISPSILH
 70
     0
  9
$DIMSCALE
 40
1.0
  9
$DIMASZ
 40
0.18
  9
$DIMEXO
 40
0.0625
  9
$DIMDLI
 40
0.38
  9
$DIMRND
 40
0.0
  9
$DIMDLE
 40
0.0
  9
$DIMEXE
 40
0.18
  9
$DIMTP
 40
0.0
  9
$DIMTM
 40
0.0
  9
$DIMTXT
 40
0.18
  9
$DIMCEN
 40
0.09
  9
$DIMTSZ
 40
0.0
  9
$DIMTOL
 70
     0
  9
$DIMLIM
 70
     0
  9
$DIMTIH
 70
     1
  9
$DIMTOH
 70
     1
  9
$DIMSE1
 70
     0
  9
$DIMSE2
 70
     0
  9
$DIMTAD
 70
     0
  9
$DIMZIN
 70
     0
  9
$DIMBLK
  1

  9
$DIMASO
 70
     1
  9
$DIMSHO
 70
     1
  9
$DIMPOST
  1

  9
$DIMAPOST
  1

  9
$DIMALT
 70
     0
  9
$DIMALTD
 70
     2
  9
$DIMALTF
 40
12.0
  9
$DIMLFAC
 40
1.0
  9
$DIMTOFL
 70
     0
  9
$DIMTVP
 40
0.0
  9
$DIMTIX
 70
     0
  9
$DIMSOXD
 70
     0
  9
$DIMSAH
 70
     0
  9
$DIMBLK1
  1

  9
$DIMBLK2
  1

  9
$DIMSTYLE
  2
STANDARD
  9
$DIMCLRD
 70
     0
  9
$DIMCLRE
 70
     0
  9
$DIMCLRT
 70
     0
  9
$DIMTFAC
 40
1.0
  9
$DIMGAP
 40
0.09
  9
$DIMJUST
 70
     0
  9
$DIMSD1
 70
     0
  9
$DIMSD2
 70
     0
  9
$DIMTOLJ
 70
     1
  9
$DIMTZIN
 70
     0
  9
$DIMALTZ
 70
     0
  9
$DIMALTTZ
 70
     0
  9
$DIMFIT
 70
     3
  9
$DIMUPT
 70
     0
  9
$DIMUNIT
 70
     2
  9
$DIMDEC
 70
     4
  9
$DIMTDEC
 70
     4
  9
$DIMALTU
 70
     2
  9
$DIMALTTD
 70
     2
  9
$DIMTXSTY
  7
STANDARD
  9
$DIMAUNIT
 70
     0
  9
$LUNITS
 70
     2
  9
$LUPREC
 70
     4
  9
$SKETCHINC
 40
0.1
  9
$FILLETRAD
 40
0.0
  9
$AUNITS
 70
     0
  9
$AUPREC
 70
     0
  9
$MENU
  1
.
  9
$ELEVATION
 40
0.0
  9
$PELEVATION
 40
0.0
  9
$THICKNESS
 40
0.0
  9
$LIMCHECK
 70
     0
  9
$CHAMFERA
 40
0.0
  9
$CHAMFERB
 40
0.0
  9
$CHAMFERC
 40
0.0
  9
$CHAMFERD
 40
0.0
  9
$SKPOLY
 70
     0
  9
$TDCREATE
 40
2461065.782000857
  9
$TDUPDATE
 40
2461065.78200088
  9
$TDINDWG
 40
0.0000000116
  9
$TDUSRTIMER
 40
0.0000000116
  9
$USRTIMER
 70
     1
  9
$ANGBASE
 50
0.0
  9
$ANGDIR
 70
     0
  9
$PDMODE
 70
     0
  9
$PDSIZE
 40
0.0
  9
$PLINEWID
 40
0.0
  9
$COORDS
 70
     1
  9
$SPLFRAME
 70
     0
  9
$SPLINETYPE
 70
     6
  9
$SPLINESEGS
 70
     8
  9
$ATTDIA
 70
     0
  9
$ATTREQ
 70
     1
  9
$HANDLING
 70
     1
  9
$HANDSEED
  5
100000BB
  9
$SURFTAB1
 70
     6
  9
$SURFTAB2
 70
     6
  9
$SURFTYPE
 70
     6
  9
$SURFU
 70
     6
  9
$SURFV
 70
     6
  9
$UCSNAME
  2

  9
$UCSORG
 10
0.0
 20
0.0
 30
0.0
  9
$UCSXDIR
 10
1.0
 20
0.0
 30
0.0
  9
$UCSYDIR
 10
0.0
 20
1.0
 30
0.0
  9
$PUCSNAME
  2

  9
$PUCSORG
 10
0.0
 20
0.0
 30
0.0
  9
$PUCSXDIR
 10
1.0
 20
0.0
 30
0.0
  9
$PUCSYDIR
 10
0.0
 20
1.0
 30
0.0
  9
$USERI1
 70
     0
  9
$USERI2
 70
     0
  9
$USERI3
 70
     0
  9
$USERI4
 70
     0
  9
$USERI5
 70
     0
  9
$USERR1
 40
0.0
  9
$USERR2
 40
0.0
  9
$USERR3
 40
0.0
  9
$USERR4
 40
0.0
  9
$USERR5
 40
0.0
  9
$WORLDVIEW
 70
     1
  9
$SHADEDGE
 70
     3
  9
$SHADEDIF
 70
    70
  9
$TILEMODE
 70
     1
  9
$MAXACTVP
 70
    64
  9
$PINSBASE
 10
0.0
 20
0.0
 30
0.0
  9
$PLIMCHECK
 70
     0
  9
$PEXTMIN
 10
1.000000000000000E+20
 20
1.000000000000000E+20
 30
1.000000000000000E+20
  9
$PEXTMAX
 10
-1.000000000000000E+20
 20
-1.000000000000000E+20
 30
-1.000000000000000E+20
  9
$PLIMMIN
 10
0.0
 20
0.0
  9
$PLIMMAX
 10
12.0
 20
9.0
  9
$UNITMODE
 70
     0
  9
$VISRETAIN
 70
     1
  9
$PLINEGEN
 70
     0
  9
$PSLTSCALE
 70
     1
  9
$TREEDEPTH
 70
  3020
  9
$PICKSTYLE
 70
     1
  9
$CMLSTYLE
  2
STANDARD
  9
$CMLJUST
 70
     0
  9
$CMLSCALE
 40
1.0
  9
$PROXYGRAPHICS
 70
     1
  9
$MEASUREMENT
 70
     0
  0
ENDSEC
  0
SECTION
  2
CLASSES
  0
CLASS
  1
ACDBDICTIONARYWDFLT
  2
AcDbDictionaryWithDefault
  3
ObjectDBX Classes
 90
        0
280
     0
281
     0
  0
CLASS
  1
VISUALSTYLE
  2
AcDbVisualStyle
  3
ObjectDBX Classes
 90
     4095
280
     0
281
     0
  0
CLASS
  1
MATERIAL
  2
AcDbMaterial
  3
ObjectDBX Classes
 90
     1153
280
     0
281
     0
  0
CLASS
  1
SCALE
  2
AcDbScale
  3
ObjectDBX Classes
 90
     1153
280
     0
281
     0
  0
CLASS
  1
TABLESTYLE
  2
AcDbTableStyle
  3
ObjectDBX Classes
 90
     4095
280
     0
281
     0
  0
CLASS
  1
MLEADERSTYLE
  2
AcDbMLeaderStyle
  3
ACDB_MLEADERSTYLE_CLASS
 90
     4095
280
     0
281
     0
  0
CLASS
  1
SUN
  2
AcDbSun
  3
SCENEOE
 90
     1153
280
     0
281
     0
  0
CLASS
  1
SORTENTSTABLE
  2
AcDbSortentsTable
  3
ObjectDBX Classes
 90
        0
280
     0
281
     0
  0
CLASS
  1
DICTIONARYVAR
  2
AcDbDictionaryVar
  3
ObjectDBX Classes
 90
        0
280
     0
281
     0
  0
CLASS
  1
XRECORD
  2
AcDbXrecord
  3
ObjectDBX Classes
 90
        0
280
     0
281
     0
  0
CLASS
  1
LWPOLYLINE
  2
AcDbPolyline
  3
ObjectDBX Classes
 90
        0
280
     0
281
     1
  0
CLASS
  1
HATCH
  2
AcDbHatch
  3
ObjectDBX Classes
 90
        0
280
     0
281
     1
  0
CLASS
  1
ACDBPLACEHOLDER
  2
AcDbPlaceHolder
  3
ObjectDBX Classes
 90
        0
280
     0
281
     0
  0
CLASS
  1
LAYOUT
  2
AcDbLayout
  3
ObjectDBX Classes
 90
        0
280
     0
281
     0
  0
ENDSEC
  0
SECTION
  2
TABLES
  0
TABLE
  2
VPORT
  5
8
102
{ACAD_XDICTIONARY
360
100000B0
102
}
330
0
100
AcDbSymbolTable
 70
     1
  0
VPORT
  5
29
330
8
100
AcDbSymbolTableRecord
100
AcDbViewportTableRecord
  2
*ACTIVE
 70
     0
 10
0.0
 20
0.0
 11
1.0
 21
1.0
 12
10.42990654205607
 22
4.5
 13
0.0
 23
0.0
 14
0.5
 24
0.5
 15
0.5
 25
0.5
 16
0.0
 26
0.0
 36
1.0
 17
0.0
 27
0.0
 37
0.0
 40
9.0
 41
1.972972972850329
 42
50.0
 43
0.0
 44
0.0
 50
0.0
 51
0.0
 71
     0
 72
   100
 73
     1
 74
     3
 75
     0
 76
     0
 77
     0
 78
     0
  0
ENDTAB
  0
TABLE
  2
LTYPE
  5
5
330
0
100
AcDbSymbolTable
 70
     7
  0
LTYPE
  5
14
330
5
100
AcDbSymbolTableRecord
100
AcDbLinetypeTableRecord
  2
BYBLOCK
 70
     0
  3

 72
    65
 73
     0
 40
0.0
  0
LTYPE
  5
15
330
5
100
AcDbSymbolTableRecord
100
AcDbLinetypeTableRecord
  2
BYLAYER
 70
     0
  3

 72
    65
 73
     0
 40
0.0
  0
LTYPE
  5
16
330
5
100
AcDbSymbolTableRecord
100
AcDbLinetypeTableRecord
  2
CONTINUOUS
 70
     0
  3
Solid line
 72
    65
 73
     0
 40
0.0
  0
LTYPE
  5
10000024
330
5
100
AcDbSymbolTableRecord
100
AcDbLinetypeTableRecord
  2
ONS_PHANTOM
 70
     0
  3
Onshape Phantom line ______ __ __ ______
 72
    65
 73
     6
 40
0.4999999999999999
 49
0.25
 74
     0
 49
-0.05
 74
     0
 49
0.05
 74
     0
 49
-0.05
 74
     0
 49
0.05
 74
     0
 49
-0.05
 74
     0
  0
LTYPE
  5
10000025
330
5
100
AcDbSymbolTableRecord
100
AcDbLinetypeTableRecord
  2
CENTER
 70
     0
  3
Center line ____ _ ____ _ ____ _
 72
    65
 73
     4
 40
0.7199999999999999
 49
0.45
 74
     0
 49
-0.09
 74
     0
 49
0.09
 74
     0
 49
-0.09
 74
     0
  0
LTYPE
  5
10000026
330
5
100
AcDbSymbolTableRecord
100
AcDbLinetypeTableRecord
  2
DASHED
 70
     0
  3
Dashed line __ __ __ __ __
 72
    65
 73
     2
 40
0.75
 49
0.5
 74
     0
 49
-0.25
 74
     0
  0
LTYPE
  5
10000027
330
5
100
AcDbSymbolTableRecord
100
AcDbLinetypeTableRecord
  2
ONS_DASHDOT
 70
     0
  3
Onshape Dashed with Dot _ . ____ . ____
 72
    65
 73
     4
 40
0.71
 49
0.5
 74
     0
 49
-0.1
 74
     0
 49
0.01
 74
     0
 49
-0.1
 74
     0
  0
LTYPE
  5
10000028
330
5
100
AcDbSymbolTableRecord
100
AcDbLinetypeTableRecord
  2
ONS_DOTTED
 70
     0
  3
Onshape Dotted line . . . . . . .
 72
    65
 73
     2
 40
0.11
 49
0.01
 74
     0
 49
-0.1
 74
     0
  0
LTYPE
  5
10000029
330
5
100
AcDbSymbolTableRecord
100
AcDbLinetypeTableRecord
  2
HIDDEN
 70
     0
  3
Hidden line ____ ____ ____ ____ 
 72
    65
 73
     2
 40
0.15
 49
0.1
 74
     0
 49
-0.05
 74
     0
  0
ENDTAB
  0
TABLE
  2
LAYER
  5
2
330
0
100
AcDbSymbolTable
 70
    48
  0
LAYER
  5
10
330
2
100
AcDbSymbolTableRecord
100
AcDbLayerTableRecord
  2
0
 70
     0
 62
     7
  6
CONTINUOUS
  0
LAYER
  5
1000002A
330
2
100
AcDbSymbolTableRecord
100
AcDbLayerTableRecord
  2
SECTION_CUTTING_LINE
 70
     0
 62
     7
  6
ONS_PHANTOM
  0
LAYER
  5
1000002B
330
2
100
AcDbSymbolTableRecord
100
AcDbLayerTableRecord
  2
DETAIL_VIEW_BORDER
 70
     0
 62
     7
  6
CONTINUOUS
  0
LAYER
  5
1000002C
330
2
100
AcDbSymbolTableRecord
100
AcDbLayerTableRecord
  2
DETAIL_VIEW_PARENT_BORDER
 70
     0
 62
     7
  6
ONS_PHANTOM
  0
LAYER
  5
1000002D
330
2
100
AcDbSymbolTableRecord
100
AcDbLayerTableRecord
  2
TEXT
 70
     0
 62
     7
  6
CONTINUOUS
  0
LAYER
  5
1000002E
330
2
100
AcDbSymbolTableRecord
100
AcDbLayerTableRecord
  2
SKETCHED_GEOMETRY
 70
     0
 62
    -7
  6
CONTINUOUS
  0
LAYER
  5
1000002F
330
2
100
AcDbSymbolTableRecord
100
AcDbLayerTableRecord
  2
VIRTUAL_SHARPS
 70
     0
 62
    -7
  6
CONTINUOUS
  0
LAYER
  5
10000030
330
2
100
AcDbSymbolTableRecord
100
AcDbLayerTableRecord
  2
CENTERLINES
 70
     0
 62
    -7
  6
CENTER
  0
LAYER
  5
10000031
330
2
100
AcDbSymbolTableRecord
100
AcDbLayerTableRecord
  2
CENTERMARKS
 70
     0
 62
    -7
  6
CONTINUOUS
  0
LAYER
  5
10000032
330
2
100
AcDbSymbolTableRecord
100
AcDbLayerTableRecord
  2
TABLES
 70
     0
 62
     7
  6
CONTINUOUS
  0
LAYER
  5
10000033
330
2
100
AcDbSymbolTableRecord
100
AcDbLayerTableRecord
  2
IMAGES
 70
     0
 62
    -7
  6
CONTINUOUS
  0
LAYER
  5
10000034
330
2
100
AcDbSymbolTableRecord
100
AcDbLayerTableRecord
  2
ANNOTATION_LINES
 70
     0
 62
    -7
  6
CONTINUOUS
  0
LAYER
  5
10000035
330
2
100
AcDbSymbolTableRecord
100
AcDbLayerTableRecord
  2
ANNOTATION_TEXT
 70
     0
 62
    -7
  6
CONTINUOUS
  0
LAYER
  5
10000036
330
2
100
AcDbSymbolTableRecord
100
AcDbLayerTableRecord
  2
SIDE_THREAD_SYMBOLS
 70
     0
 62
     7
  6
HIDDEN
  0
LAYER
  5
10000037
330
2
100
AcDbSymbolTableRecord
100
AcDbLayerTableRecord
  2
SIDE_THREAD_SYMBOLS_HIDDEN
 70
     0
 62
    -7
  6
HIDDEN
  0
LAYER
  5
10000038
330
2
100
AcDbSymbolTableRecord
100
AcDbLayerTableRecord
  2
SURFACE_THREAD_SYMBOLS
 70
     0
 62
     7
  6
HIDDEN
  0
LAYER
  5
10000039
330
2
100
AcDbSymbolTableRecord
100
AcDbLayerTableRecord
  2
SURFACE_THREAD_SYMBOLS_ON_
 70
     0
 62
     7
  6
HIDDEN
  0
LAYER
  5
1000003A
330
2
100
AcDbSymbolTableRecord
100
AcDbLayerTableRecord
  2
SURFACE_THREAD_SYMBOLS_HID
 70
     0
 62
    -7
  6
HIDDEN
  0
LAYER
  5
1000003B
330
2
100
AcDbSymbolTableRecord
100
AcDbLayerTableRecord
  2
BLIND_THREAD_SYMBOLS
 70
     0
 62
     7
  6
CONTINUOUS
  0
LAYER
  5
1000003C
330
2
100
AcDbSymbolTableRecord
100
AcDbLayerTableRecord
  2
BLIND_THREAD_SYMBOLS_HIDDE
 70
     0
 62
    -7
  6
HIDDEN
  0
LAYER
  5
1000003D
330
2
100
AcDbSymbolTableRecord
100
AcDbLayerTableRecord
  2
EXPLODE_LINES
 70
     0
 62
     7
  6
ONS_PHANTOM
  0
LAYER
  5
1000003E
330
2
100
AcDbSymbolTableRecord
100
AcDbLayerTableRecord
  2
HIDDEN_EXPLODE_LINES
 70
     0
 62
    -7
  6
ONS_PHANTOM
  0
LAYER
  5
1000003F
330
2
100
AcDbSymbolTableRecord
100
AcDbLayerTableRecord
  2
BREAK_LINES
 70
     0
 62
    -7
  6
CONTINUOUS
  0
LAYER
  5
10000040
330
2
100
AcDbSymbolTableRecord
100
AcDbLayerTableRecord
  2
SHEETMETAL_BEND_LINES_UP
 70
     0
 62
     7
  6
CENTER
  0
LAYER
  5
10000041
330
2
100
AcDbSymbolTableRecord
100
AcDbLayerTableRecord
  2
SHEETMETAL_BEND_LINES_DOWN
 70
     0
 62
     7
  6
CENTER
  0
LAYER
  5
10000042
330
2
100
AcDbSymbolTableRecord
100
AcDbLayerTableRecord
  2
SHEETMETAL_BEND_TANGENT_LI
 70
     0
 62
     7
  6
CONTINUOUS
  0
LAYER
  5
10000043
330
2
100
AcDbSymbolTableRecord
100
AcDbLayerTableRecord
  2
SHEETMETAL_CUT_LINES
 70
     0
 62
     7
  6
CONTINUOUS
  0
LAYER
  5
10000044
330
2
100
AcDbSymbolTableRecord
100
AcDbLayerTableRecord
  2
SHEETMETAL_CBORE_CSINK_UP
 70
     0
 62
     7
  6
CONTINUOUS
  0
LAYER
  5
10000045
330
2
100
AcDbSymbolTableRecord
100
AcDbLayerTableRecord
  2
SHEETMETAL_CBORE_CSINK_DOW
 70
     0
 62
     7
  6
CONTINUOUS
  0
LAYER
  5
10000046
330
2
100
AcDbSymbolTableRecord
100
AcDbLayerTableRecord
  2
SHEETMETAL_CBORE_CSINK_UP_
 70
     0
 62
    -7
  6
HIDDEN
  0
LAYER
  5
10000047
330
2
100
AcDbSymbolTableRecord
100
AcDbLayerTableRecord
  2
SHEETMETAL_CBORE_CSINK_DO0
 70
     0
 62
    -7
  6
HIDDEN
  0
LAYER
  5
10000048
330
2
100
AcDbSymbolTableRecord
100
AcDbLayerTableRecord
  2
SHEETMETAL_FORM_TEAR
 70
     0
 62
     7
  6
CONTINUOUS
  0
LAYER
  5
10000049
330
2
100
AcDbSymbolTableRecord
100
AcDbLayerTableRecord
  2
SHEETMETAL_FORM_UP
 70
     0
 62
     7
  6
CENTER
  0
LAYER
  5
1000004A
330
2
100
AcDbSymbolTableRecord
100
AcDbLayerTableRecord
  2
SHEETMETAL_FORM_DOWN
 70
     0
 62
     7
  6
CENTER
  0
LAYER
  5
1000004B
330
2
100
AcDbSymbolTableRecord
100
AcDbLayerTableRecord
  2
SHEETMETAL_FORM_CENTERMARK
 70
     0
 62
     7
  6
CENTER
  0
LAYER
  5
1000004C
330
2
100
AcDbSymbolTableRecord
100
AcDbLayerTableRecord
  2
REGION_ASSOC_POINTS
 70
     0
 62
    -7
  6
CONTINUOUS
  0
LAYER
  5
1000004D
330
2
100
AcDbSymbolTableRecord
100
AcDbLayerTableRecord
  2
PATTERN_CENTERLINES
 70
     1
 62
    -7
  6
CENTER
  0
LAYER
  5
1000004E
330
2
100
AcDbSymbolTableRecord
100
AcDbLayerTableRecord
  2
HIDDEN
 70
     0
 62
    -7
  6
HIDDEN
  0
LAYER
  5
1000004F
330
2
100
AcDbSymbolTableRecord
100
AcDbLayerTableRecord
  2
VISIBLE
 70
     0
 62
     7
  6
CONTINUOUS
  0
LAYER
  5
10000050
330
2
100
AcDbSymbolTableRecord
100
AcDbLayerTableRecord
  2
MODELSKETCH_VISIBLE
 70
     0
 62
     7
  6
CONTINUOUS
  0
LAYER
  5
10000051
330
2
100
AcDbSymbolTableRecord
100
AcDbLayerTableRecord
  2
MODELSKETCH_POINT
 70
     0
 62
     7
  6
CONTINUOUS
  0
LAYER
  5
10000052
330
2
100
AcDbSymbolTableRecord
100
AcDbLayerTableRecord
  2
MODELSKETCH_CONSTRUCTION
 70
     0
 62
    -7
  6
CENTER
  0
LAYER
  5
10000053
330
2
100
AcDbSymbolTableRecord
100
AcDbLayerTableRecord
  2
HIDDEN_BASE_VIEW
 70
     0
 62
     7
  6
CONTINUOUS
  0
LAYER
  5
10000054
330
2
100
AcDbSymbolTableRecord
100
AcDbLayerTableRecord
  2
TANGENT_LINES
 70
     0
 62
    -7
  6
CONTINUOUS
  0
LAYER
  5
10000055
330
2
100
AcDbSymbolTableRecord
100
AcDbLayerTableRecord
  2
TANGENT_HIDDEN
 70
     0
 62
    -7
  6
HIDDEN
  0
LAYER
  5
10000056
330
2
100
AcDbSymbolTableRecord
100
AcDbLayerTableRecord
  2
INVISIBLE_LINES
 70
     0
 62
    -7
  6
CONTINUOUS
  0
LAYER
  5
10000057
330
2
100
AcDbSymbolTableRecord
100
AcDbLayerTableRecord
  2
VIEW_HATCHES
 70
     0
 62
    -7
  6
CONTINUOUS
  0
LAYER
  5
10000058
330
2
100
AcDbSymbolTableRecord
100
AcDbLayerTableRecord
  2
SECTION_JOG_LINES
 70
     0
 62
    -7
  6
CONTINUOUS
  0
ENDTAB
  0
TABLE
  2
STYLE
  5
3
330
0
100
AcDbSymbolTable
 70
     2
  0
STYLE
  5
11
330
3
100
AcDbSymbolTableRecord
100
AcDbTextStyleTableRecord
  2
STANDARD
 70
     0
 40
0.0
 41
1.0
 50
0.0
 71
     0
 42
0.2
  3
txt
  4

  0
STYLE
  5
10000004
330
3
100
AcDbSymbolTableRecord
100
AcDbTextStyleTableRecord
  2
TTFSTYLE
 70
     0
 40
0.0
 41
1.0
 50
0.0
 71
     0
 42
0.2
  3

  4

1001
ACAD
1000
Verdana
1071
       34
  0
ENDTAB
  0
TABLE
  2
VIEW
  5
6
330
0
100
AcDbSymbolTable
 70
     0
  0
ENDTAB
  0
TABLE
  2
UCS
  5
7
330
0
100
AcDbSymbolTable
 70
     0
  0
ENDTAB
  0
TABLE
  2
APPID
  5
9
330
0
100
AcDbSymbolTable
 70
     2
  0
APPID
  5
12
330
9
100
AcDbSymbolTableRecord
100
AcDbRegAppTableRecord
  2
ACAD
 70
     0
  0
APPID
  5
100000BA
330
9
100
AcDbSymbolTableRecord
100
AcDbRegAppTableRecord
  2
ACAD_MLEADERVER
 70
     0
  0
ENDTAB
  0
TABLE
  2
DIMSTYLE
  5
A
330
0
100
AcDbSymbolTable
 70
     1
  0
DIMSTYLE
105
27
330
A
100
AcDbSymbolTableRecord
100
AcDbDimStyleTableRecord
  2
STANDARD
 70
     0
  3

  4

  5

  6

  7

 40
1.0
 41
0.18
 42
0.0625
 43
0.38
 44
0.18
 45
0.0
 46
0.0
 47
0.0
 48
0.0
140
0.18
141
0.09
142
0.0
143
25.4
144
1.0
145
0.0
146
1.0
147
0.09
 71
     0
 72
     0
 73
     1
 74
     1
 75
     0
 76
     0
 77
     0
 78
     0
170
     0
171
     2
172
     0
173
     0
174
     0
175
     0
176
     0
177
     0
178
     0
270
     2
271
     4
272
     4
273
     2
274
     2
340
11
275
     0
280
     0
281
     0
282
     0
283
     1
284
     0
285
     0
286
     0
287
     3
288
     0
  0
ENDTAB
  0
TABLE
  2
BLOCK_RECORD
  5
1
330
0
100
AcDbSymbolTable
 70
     0
  0
BLOCK_RECORD
  5
1F
102
{ACAD_XDICTIONARY
360
10000085
102
}
330
1
100
AcDbSymbolTableRecord
100
AcDbBlockTableRecord
  2
*MODEL_SPACE
  0
BLOCK_RECORD
  5
1B
330
1
100
AcDbSymbolTableRecord
100
AcDbBlockTableRecord
  2
*PAPER_SPACE
  0
ENDTAB
  0
ENDSEC
  0
SECTION
  2
BLOCKS
  0
BLOCK
  5
20
330
1F
100
AcDbEntity
  8
0
100
AcDbBlockBegin
  2
*MODEL_SPACE
 70
     0
 10
0.0
 20
0.0
 30
0.0
  3
*MODEL_SPACE
  1

  0
ENDBLK
  5
21
330
1F
100
AcDbEntity
  8
0
100
AcDbBlockEnd
  0
BLOCK
  5
1C
330
1B
100
AcDbEntity
 67
     1
  8
0
100
AcDbBlockBegin
  2
*PAPER_SPACE
 70
     0
 10
0.0
 20
0.0
 30
0.0
  3
*PAPER_SPACE
  1

  0
ENDBLK
  5
1D
330
1B
100
AcDbEntity
 67
     1
  8
0
100
AcDbBlockEnd
  0
ENDSEC
  0
SECTION
  2
ENTITIES
  0
SPLINE
  5
10000059
102
{ACAD_XDICTIONARY
360
1000005A
102
}
330
1F
100
AcDbEntity
  8
MODELSKETCH_VISIBLE
100
AcDbSpline
210
0.0
220
0.0
230
1.0
 70
     8
 71
     3
 72
    70
 73
    66
 74
     0
 42
0.0000000001
 43
0.00000001
 40
0.0
 40
0.0
 40
0.0
 40
0.0
 40
0.0304124794422244
 40
0.0491020791407489
 40
0.0702627024156318
 40
0.0890153014078493
 40
0.1091023110781256
 40
0.1277825442615642
 40
0.1481871200933673
 40
0.1669678525105417
 40
0.1863469553875244
 40
0.2069937054546327
 40
0.2218349683792421
 40
0.237182906072002
 40
0.2511796680969166
 40
0.266936163234527
 40
0.2829801275709214
 40
0.2966284739693648
 40
0.3111796564511569
 40
0.3244147219529765
 40
0.3396329831874115
 40
0.3553373896544738
 40
0.3694358294691863
 40
0.3866578801928184
 40
0.4066144916818443
 40
0.4236315455649095
 40
0.4400674252865912
 40
0.4526403819592725
 40
0.4658755021190537
 40
0.4784004787612887
 40
0.4929412613371884
 40
0.5083004158625992
 40
0.5262953123157468
 40
0.5482709181263871
 40
0.5657111137278884
 40
0.582747152554416
 40
0.6000085963459356
 40
0.6181267359072252
 40
0.6338499273231923
 40
0.6502355258466674
 40
0.6642234931741743
 40
0.6781807419097584
 40
0.6924424588199795
 40
0.7056904006686501
 40
0.721854415899695
 40
0.7384802326381955
 40
0.753258188069187
 40
0.7666379790161673
 40
0.7789248202595359
 40
0.7905877678985443
 40
0.8054487969832916
 40
0.8179778329182115
 40
0.8280003454724201
 40
0.8395438286531576
 40
0.8512827677195383
 40
0.8633523162348126
 40
0.8781025189864549
 40
0.8930616395672494
 40
0.9068855897177404
 40
0.9208228583132242
 40
0.9368668784961871
 40
0.9504896412777823
 40
0.9660449615576114
 40
0.9818999194370622
 40
1.0
 40
1.0
 40
1.0
 40
1.0
 10
-435.7242433738842
 20
-1128.878384847665
 30
0.0
 10
-426.2185833253416
 20
-1126.52365376484
 30
0.0
 10
-410.8633490720128
 20
-1122.719872944199
 30
0.0
 10
-401.762331668668
 20
-1119.411768497185
 30
0.0
 10
-388.7511279950824
 20
-1117.096861126247
 30
0.0
 10
-379.7699848145293
 20
-1114.089098404185
 30
0.0
 10
-368.1544882911933
 20
-1112.774636632802
 30
0.0
 10
-358.8629667967215
 20
-1110.730969318142
 30
0.0
 10
-347.1529658926067
 20
-1109.044474504726
 30
0.0
 10
-337.2769662333147
 20
-1108.518924749861
 30
0.0
 10
-327.1278207592848
 20
-1106.94031746959
 30
0.0
 10
-315.1751866557501
 20
-1105.176863598652
 30
0.0
 10
-309.2461859737633
 20
-1103.929823156253
 30
0.0
 10
-303.0697314768439
 20
-1100.817808250501
 30
0.0
 10
-298.2572978567214
 20
-1098.316774214971
 30
0.0
 10
-292.740196189082
 20
-1094.082226438863
 30
0.0
 10
-286.4856236863154
 20
-1090.45905883859
 30
0.0
 10
-282.4530343272688
 20
-1087.289465667899
 30
0.0
 10
-277.3244315411529
 20
-1083.96443673063
 30
0.0
 10
-273.0285568112236
 20
-1081.717693952888
 30
0.0
 10
-267.0800098573068
 20
-1079.031769815748
 30
0.0
 10
-260.2749124777567
 20
-1077.610823267087
 30
0.0
 10
-254.6616300505353
 20
-1077.00144407213
 30
0.0
 10
-246.3714638980433
 20
-1076.55647147477
 30
0.0
 10
-235.2903204745486
 20
-1076.276523607711
 30
0.0
 10
-227.5056355738069
 20
-1076.350408402526
 30
0.0
 10
-219.687237914596
 20
-1075.820994172962
 30
0.0
 10
-215.344579948809
 20
-1075.764009809145
 30
0.0
 10
-210.2750310528781
 20
-1075.223428919479
 30
0.0
 10
-205.9351628589204
 20
-1074.729803099063
 30
0.0
 10
-200.3762848854999
 20
-1072.266207835842
 30
0.0
 10
-194.1294240631823
 20
-1069.862720912864
 30
0.0
 10
-186.3844159985551
 20
-1065.477228334782
 30
0.0
 10
-174.4270662398791
 20
-1059.210868554491
 30
0.0
 10
-167.3604423150612
 20
-1054.820909508891
 30
0.0
 10
-160.3599333727929
 20
-1050.139771826435
 30
0.0
 10
-153.3341305086358
 20
-1045.980195680559
 30
0.0
 10
-145.0537979997099
 20
-1041.726805638226
 30
0.0
 10
-139.1833139960438
 20
-1038.360020787523
 30
0.0
 10
-131.8122417126428
 20
-1036.151604117173
 30
0.0
 10
-126.7537794021409
 20
-1034.162991160963
 30
0.0
 10
-121.4724839280516
 20
-1032.625998858437
 30
0.0
 10
-115.741912631245
 20
-1031.772050065896
 30
0.0
 10
-110.8712976927149
 20
-1031.308020974323
 30
0.0
 10
-103.564475572453
 20
-1030.301902110336
 30
0.0
 10
-95.99714770450075
 20
-1030.592363204157
 30
0.0
 10
-89.84334499274432
 20
-1030.984651457196
 30
0.0
 10
-85.12333259301906
 20
-1032.773482904602
 30
0.0
 10
-80.8957718954607
 20
-1034.020395641757
 30
0.0
 10
-77.92995891617058
 20
-1036.421928937796
 30
0.0
 10
-72.33806713716841
 20
-1039.020336876034
 30
0.0
 10
-68.79405519906959
 20
-1041.607766867098
 30
0.0
 10
-66.30953308275656
 20
-1043.041907870723
 30
0.0
 10
-63.1132989059898
 20
-1045.07839685068
 30
0.0
 10
-60.01408448854239
 20
-1047.410974810215
 30
0.0
 10
-56.0417675837913
 20
-1048.784414082883
 30
0.0
 10
-49.9366532144291
 20
-1048.846365364807
 30
0.0
 10
-43.78016788998265
 20
-1049.065551599025
 30
0.0
 10
-38.37396346137618
 20
-1048.692771582136
 30
0.0
 10
-32.84358966737819
 20
-1048.272858845552
 30
0.0
 10
-26.90734300498202
 20
-1043.690551338569
 30
0.0
 10
-22.76084136872036
 20
-1040.855781568001
 30
0.0
 10
-17.77099750731695
 20
-1035.866579384318
 30
0.0
 10
-13.70105661474692
 20
-1030.250182302097
 30
0.0
 10
-10.45053288929416
 20
-1025.268173660756
 30
0.0
 10
-8.717051009486743
 20
-1022.610230493118
 30
0.0
  0
SPLINE
  5
1000005D
102
{ACAD_XDICTIONARY
360
1000005E
102
}
330
1F
100
AcDbEntity
  8
MODELSKETCH_VISIBLE
100
AcDbSpline
210
0.0
220
0.0
230
1.0
 70
     8
 71
     3
 72
   146
 73
   142
 74
     0
 42
0.0000000001
 43
0.00000001
 40
0.0
 40
0.0
 40
0.0
 40
0.0
 40
0.0087802837219798
 40
0.0170694798292598
 40
0.0250515342980771
 40
0.0313396847784239
 40
0.0377955802050689
 40
0.0478324820473638
 40
0.0605555842770516
 40
0.0702830896471207
 40
0.0784026316010367
 40
0.0857965690370591
 40
0.0947194233086071
 40
0.1040289554617984
 40
0.1094601910572634
 40
0.1146237599553383
 40
0.1233175633205981
 40
0.131585823615904
 40
0.139924504566491
 40
0.1475921839081523
 40
0.1562763946870403
 40
0.1654751251331313
 40
0.1730028950623177
 40
0.178955728080735
 40
0.1848524354829309
 40
0.1906281593987732
 40
0.1978777065643502
 40
0.2054635076624752
 40
0.2122093310401538
 40
0.2190990280762125
 40
0.2265719279089509
 40
0.2324836588900565
 40
0.2382722998416804
 40
0.2444819410142354
 40
0.2527487878767906
 40
0.2604612296287206
 40
0.2677099992610278
 40
0.2722833746009802
 40
0.2755802761830947
 40
0.2790640001330731
 40
0.2881412476339156
 40
0.2981900608517082
 40
0.3065722891215807
 40
0.3137051234164482
 40
0.3238591780307862
 40
0.3308816753453897
 40
0.3409071126961506
 40
0.3466073157579066
 40
0.3569004939842966
 40
0.3707608386322734
 40
0.3794241041738211
 40
0.3875324271033135
 40
0.3939012856895635
 40
0.4000188665306576
 40
0.4066383017624851
 40
0.4129054768012407
 40
0.4194968572812255
 40
0.4264512462932907
 40
0.4336489108747755
 40
0.4412737320125484
 40
0.4488976526308199
 40
0.4558829834647348
 40
0.4624673913756812
 40
0.4685915187413442
 40
0.4731193492100682
 40
0.4776331660319628
 40
0.483398518849578
 40
0.4897216879285989
 40
0.4954175818246588
 40
0.5007495933026721
 40
0.505796172304751
 40
0.5122498558573959
 40
0.5200126988423107
 40
0.5278592857402092
 40
0.5386081915158889
 40
0.5471205268837517
 40
0.5532468200399269
 40
0.5593726703496473
 40
0.5663270598176071
 40
0.5732814488296724
 40
0.580708973969295
 40
0.5880195620540626
 40
0.5958293319024449
 40
0.6025948841723607
 40
0.6091096889294076
 40
0.6162106720955285
 40
0.6223230160547958
 40
0.6286323223100776
 40
0.6358109042068352
 40
0.6428414635661617
 40
0.6510822400799461
 40
0.6599539496361143
 40
0.6695262039568657
 40
0.6792394809468082
 40
0.68767156718174
 40
0.6924671069978715
 40
0.6962809022894433
 40
0.7007281238742721
 40
0.7049394292841682
 40
0.7097592233810046
 40
0.7162656955678851
 40
0.7233125564958488
 40
0.7296099201538752
 40
0.7357078039322079
 40
0.7412942042760718
 40
0.7480184620330347
 40
0.7550970495372065
 40
0.7596419766365117
 40
0.7671158369054399
 40
0.7731061692182949
 40
0.7809943676130108
 40
0.7878319149654094
 40
0.7935852495085126
 40
0.7984236497791402
 40
0.8045131358928412
 40
0.8128831543139768
 40
0.8187895554488709
 40
0.8243627462275915
 40
0.8311536134099694
 40
0.8362574454394313
 40
0.8404965250025538
 40
0.8464488811334011
 40
0.853675537624557
 40
0.8589219192810101
 40
0.8667913374420521
 40
0.8770945119949983
 40
0.8840614851048293
 40
0.8912986330084992
 40
0.9001867688313336
 40
0.9080605727289068
 40
0.9151876198407077
 40
0.924070884536373
 40
0.9326577863738724
 40
0.9410320386994869
 40
0.9473571897415994
 40
0.9539683471226366
 40
0.9612100261865996
 40
0.9688772622425789
 40
0.9783724944293501
 40
0.9890200947263804
 40
1.0
 40
1.0
 40
1.0
 40
1.0
 10
362.5941946679536
 20
350.2553112203258
 30
0.0
 10
359.0984227792338
 20
354.3626831910616
 30
0.0
 10
352.2784658665412
 20
362.3758204198409
 30
0.0
 10
345.4368068658962
 20
374.4708809108305
 30
0.0
 10
337.8978457622676
 20
385.5580384177752
 30
0.0
 10
336.157472586096
 20
393.8995647922704
 30
0.0
 10
337.5701427770475
 20
403.8783375739645
 30
0.0
 10
355.1221006309336
 20
416.361723851562
 30
0.0
 10
380.798226249037
 20
435.7606686570569
 30
0.0
 10
397.144698397302
 20
445.9333638914478
 30
0.0
 10
408.1528910024576
 20
454.9104999955047
 30
0.0
 10
415.5765232062883
 20
464.4776035380076
 30
0.0
 10
416.0962654855465
 20
480.8176343190883
 30
0.0
 10
417.4365377322899
 20
498.1928294113391
 30
0.0
 10
416.881883852034
 20
505.379313858649
 30
0.0
 10
411.0958803213496
 20
507.9429817161788
 30
0.0
 10
399.0687887987578
 20
518.0694145827566
 30
0.0
 10
388.7168079123752
 20
526.6841172075781
 30
0.0
 10
381.8879897954664
 20
539.99422125638
 30
0.0
 10
379.4679211110183
 20
552.3621688238177
 30
0.0
 10
384.805478983641
 20
567.2380237411959
 30
0.0
 10
390.9764813375547
 20
583.1956451971841
 30
0.0
 10
398.1231683220904
 20
592.5752199446791
 30
0.0
 10
400.1862499590845
 20
600.4418148960909
 30
0.0
 10
396.072649898075
 20
606.9920379518859
 30
0.0
 10
392.5087580820343
 20
613.0123365296257
 30
0.0
 10
382.367331660511
 20
618.0210678164332
 30
0.0
 10
370.7277919430028
 20
619.3883020143768
 30
0.0
 10
361.1960599272762
 20
619.0722330130578
 30
0.0
 10
351.6735375312135
 20
620.7412540217973
 30
0.0
 10
340.5284387701722
 20
624.7177970023708
 30
0.0
 10
335.7544539542913
 20
630.1258004799456
 30
0.0
 10
334.3516874155495
 20
639.3460263240496
 30
0.0
 10
344.2894885427358
 20
639.8603697774118
 30
0.0
 10
357.2582213925891
 20
644.0079377853577
 30
0.0
 10
368.8361361147636
 20
645.715853923444
 30
0.0
 10
379.2418165837643
 20
649.5252451391254
 30
0.0
 10
383.3200346087295
 20
651.0250440642337
 30
0.0
 10
385.2863798682942
 20
653.406844516169
 30
0.0
 10
382.6599485853034
 20
655.7667401685952
 30
0.0
 10
368.6361256459172
 20
665.9258829071218
 30
0.0
 10
354.6764812954212
 20
679.3114696155643
 30
0.0
 10
345.9386101330186
 20
691.7156914006664
 30
0.0
 10
339.2357879365019
 20
699.9806452184318
 30
0.0
 10
340.3237504229818
 20
722.8998283688029
 30
0.0
 10
338.9061287080672
 20
731.4353490551359
 30
0.0
 10
347.2418349402266
 20
752.3188841001952
 30
0.0
 10
350.0726603360121
 20
757.8809310806159
 30
0.0
 10
362.2022551653985
 20
777.2489003137342
 30
0.0
 10
389.310946310473
 20
804.7614790586034
 30
0.0
 10
399.9925419636036
 20
815.0285835100584
 30
0.0
 10
409.5771398544563
 20
825.6732619424282
 30
0.0
 10
414.9488792525146
 20
832.1266702934232
 30
0.0
 10
417.9857629288483
 20
839.5727850326796
 30
0.0
 10
418.7065185864992
 20
848.5551448884586
 30
0.0
 10
417.9712216133506
 20
857.1369100685869
 30
0.0
 10
410.1877682074182
 20
863.0627900332972
 30
0.0
 10
400.693679159491
 20
865.8509435428888
 30
0.0
 10
390.310272315137
 20
868.7525479866899
 30
0.0
 10
378.3264591184523
 20
868.303019780541
 30
0.0
 10
366.4528768985635
 20
868.5433012982091
 30
0.0
 10
356.3312017823004
 20
868.0817380913938
 30
0.0
 10
347.8153380379231
 20
865.2741988014353
 30
0.0
 10
341.4501125713592
 20
860.6099812935641
 30
0.0
 10
337.8104543878424
 20
858.3307036936549
 30
0.0
 10
334.1933628035691
 20
855.6312153145826
 30
0.0
 10
327.2012878938506
 20
855.2138964203501
 30
0.0
 10
319.2968710107729
 20
854.1231435668525
 30
0.0
 10
312.337140807974
 20
854.4247846628416
 30
0.0
 10
307.6652404439265
 20
858.5141383719302
 30
0.0
 10
304.2634725988802
 20
863.1660104645381
 30
0.0
 10
306.2042452363024
 20
872.2370122573626
 30
0.0
 10
312.7923064790757
 20
883.0628929994673
 30
0.0
 10
320.7277992511505
 20
892.3971294382819
 30
0.0
 10
336.028422913141
 20
910.4235552725339
 30
0.0
 10
346.4350231457755
 20
920.8359936192506
 30
0.0
 10
350.6891273966826
 20
927.860257542204
 30
0.0
 10
356.3169450404986
 20
933.4399697128991
 30
0.0
 10
364.6894632328033
 20
939.1767356966936
 30
0.0
 10
374.1164118535386
 20
942.1188746054165
 30
0.0
 10
385.3004462036934
 20
945.0787794444705
 30
0.0
 10
396.150912847742
 20
945.5070798112575
 30
0.0
 10
408.3419567727929
 20
948.7750192083864
 30
0.0
 10
417.5933185711696
 20
951.3910530788613
 30
0.0
 10
424.0880458390205
 20
957.8271565275204
 30
0.0
 10
427.2944155618529
 20
968.4626974472536
 30
0.0
 10
423.7965619390796
 20
975.7990702128907
 30
0.0
 10
419.2635257382361
 20
982.8063035110856
 30
0.0
 10
410.2698123406363
 20
988.8947454489029
 30
0.0
 10
403.9518220708847
 20
997.315521174393
 30
0.0
 10
401.7621931632328
 20
1011.603604182397
 30
0.0
 10
399.9678720346095
 20
1027.503250807982
 30
0.0
 10
400.2764269118572
 20
1046.387967928632
 30
0.0
 10
398.7302174073362
 20
1065.021928980446
 30
0.0
 10
397.4322827785665
 20
1079.715319925196
 30
0.0
 10
396.4510748275242
 20
1085.141321449956
 30
0.0
 10
393.3700027500163
 20
1086.465173249349
 30
0.0
 10
389.8779974678027
 20
1088.916180837608
 30
0.0
 10
385.9936461371535
 20
1088.202863254013
 30
0.0
 10
381.3206933073765
 20
1086.566306105861
 30
0.0
 10
374.7708031717106
 20
1080.72308905902
 30
0.0
 10
366.6993294327348
 20
1074.854052791762
 30
0.0
 10
359.8516799208348
 20
1070.190576992556
 30
0.0
 10
352.2739900265412
 20
1068.8406131359
 30
0.0
 10
344.1881789974553
 20
1070.724698298373
 30
0.0
 10
345.7617119588303
 20
1081.155387621402
 30
0.0
 10
342.2178075511026
 20
1091.026678987506
 30
0.0
 10
341.3198923034536
 20
1095.140567887481
 30
0.0
 10
332.1601581439005
 20
1103.200637747057
 30
0.0
 10
326.0272394512961
 20
1107.575664496018
 30
0.0
 10
312.9115081473287
 20
1103.239289127957
 30
0.0
 10
304.4114890002677
 20
1100.064343156555
 30
0.0
 10
297.57242113353
 20
1098.41817208993
 30
0.0
 10
292.0205387270056
 20
1098.047552260285
 30
0.0
 10
286.867731709771
 20
1104.309824939036
 30
0.0
 10
278.4755653571351
 20
1115.6136949138
 30
0.0
 10
272.4084439282406
 20
1120.106790072935
 30
0.0
 10
265.6924535509031
 20
1120.370672540309
 30
0.0
 10
256.4405523927462
 20
1118.581335134236
 30
0.0
 10
251.2377411362726
 20
1117.291613109675
 30
0.0
 10
247.2859406031292
 20
1115.904627527337
 30
0.0
 10
240.4166862673069
 20
1119.077177101578
 30
0.0
 10
231.7325153181556
 20
1125.397605194755
 30
0.0
 10
227.2548226212898
 20
1129.098840794897
 30
0.0
 10
213.1397080991817
 20
1130.884093586942
 30
0.0
 10
195.4186873434413
 20
1117.764316698655
 30
0.0
 10
188.0578144620615
 20
1109.973895813244
 30
0.0
 10
176.2038215488457
 20
1112.038439030461
 30
0.0
 10
160.7028031455508
 20
1114.851891529903
 30
0.0
 10
148.0755254803877
 20
1117.598123914999
 30
0.0
 10
137.6315928743388
 20
1119.010504410786
 30
0.0
 10
120.9323894396256
 20
1117.27929907987
 30
0.0
 10
107.6355523429016
 20
1111.35559424528
 30
0.0
 10
93.58184317416048
 20
1106.832004864016
 30
0.0
 10
85.68256248690116
 20
1104.181710283407
 30
0.0
 10
76.36461009583086
 20
1103.855964968461
 30
0.0
 10
65.46694335717959
 20
1103.742679195261
 30
0.0
 10
53.22269534570626
 20
1103.788976614893
 30
0.0
 10
34.72033452870583
 20
1100.543129404527
 30
0.0
 10
12.05350461224281
 20
1095.76106433737
 30
0.0
 10
-3.805024708404309
 20
1093.012097807226
 30
0.0
 10
-12.09941130854259
 20
1090.999283718301
 30
0.0
  0
SPLINE
  5
10000061
102
{ACAD_XDICTIONARY
360
10000062
102
}
330
1F
100
AcDbEntity
  8
MODELSKETCH_VISIBLE
100
AcDbSpline
210
0.0
220
0.0
230
1.0
 70
     8
 71
     3
 72
    40
 73
    36
 74
     0
 42
0.0000000001
 43
0.00000001
 40
0.0
 40
0.0
 40
0.0
 40
0.0
 40
0.0240068136086877
 40
0.0567233186769741
 40
0.0894135174396385
 40
0.1204068748388561
 40
0.1424138686622556
 40
0.1655562622648044
 40
0.1838171501740724
 40
0.1998226720672922
 40
0.2163749704958086
 40
0.24610448692094
 40
0.278373650116965
 40
0.3173174917682665
 40
0.3526156808395146
 40
0.3843565321309778
 40
0.4155769200748547
 40
0.4534435263356331
 40
0.5006036207811816
 40
0.5483906578630752
 40
0.600829397014313
 40
0.641861228724582
 40
0.681660371807816
 40
0.7211817907545571
 40
0.7467548418237245
 40
0.7814582119582217
 40
0.8258527126406413
 40
0.8646640137142709
 40
0.8878066550240737
 40
0.9039976751797602
 40
0.9214219727566221
 40
0.9377757471082319
 40
0.9559514754698992
 40
0.9705145839626588
 40
1.0
 40
1.0
 40
1.0
 40
1.0
 10
-8.717051009486743
 20
-1022.610230493118
 30
0.0
 10
-7.975568205409984
 20
-1021.47366195272
 30
0.0
 10
-6.26517433203973
 20
-1018.851915558231
 30
0.0
 10
-0.6898091851656936
 20
-1012.773928129126
 30
0.0
 10
4.708591349702374
 20
-1007.408729244486
 30
0.0
 10
10.21445070376045
 20
-1002.259717884816
 30
0.0
 10
13.25289813407356
 20
-1000.345209225164
 30
0.0
 10
16.22817004318034
 20
-997.3557607124116
 30
0.0
 10
18.42592535195411
 20
-996.1610635529147
 30
0.0
 10
19.94524594556339
 20
-994.6788207651222
 30
0.0
 10
21.81132862897138
 20
-993.653773396659
 30
0.0
 10
27.77679529054179
 20
-989.9260196558176
 30
0.0
 10
33.84213343926492
 20
-985.5382584123715
 30
0.0
 10
44.82015402795022
 20
-981.6730947596242
 30
0.0
 10
53.12420085263763
 20
-977.6289893645592
 30
0.0
 10
60.5831973066739
 20
-975.096685729756
 30
0.0
 10
68.03454252512512
 20
-973.5330665938758
 30
0.0
 10
78.3969159161328
 20
-969.9747223036214
 30
0.0
 10
94.5729655352445
 20
-964.655262627831
 30
0.0
 10
109.9269299618181
 20
-958.4146504334319
 30
0.0
 10
129.613183317759
 20
-950.9456962919184
 30
0.0
 10
141.7981285533008
 20
-947.212297828194
 30
0.0
 10
152.8139755860593
 20
-943.0110385818629
 30
0.0
 10
164.2352116499204
 20
-938.6286861424985
 30
0.0
 10
169.17364116601
 20
-937.6967750194433
 30
0.0
 10
178.4903027768017
 20
-935.460204143567
 30
0.0
 10
192.4714337283298
 20
-933.1686546779557
 30
0.0
 10
203.6048321002488
 20
-931.2376181680975
 30
0.0
 10
208.0329937486941
 20
-930.6146842383803
 30
0.0
 10
209.6883651654435
 20
-929.3054733905043
 30
0.0
 10
211.7498196054002
 20
-928.0075677221789
 30
0.0
 10
213.7355131862728
 20
-927.9512537002387
 30
0.0
 10
216.3778397802717
 20
-928.2454576960713
 30
0.0
 10
217.8190686539511
 20
-929.4318126280418
 30
0.0
 10
221.4758673399518
 20
-928.7899038957593
 30
0.0
 10
224.3430084268769
 20
-928.5292829775856
 30
0.0
  0
SPLINE
  5
10000065
102
{ACAD_XDICTIONARY
360
10000066
102
}
330
1F
100
AcDbEntity
  8
MODELSKETCH_VISIBLE
100
AcDbSpline
210
0.0
220
0.0
230
1.0
 70
     8
 71
     3
 72
    19
 73
    15
 74
     0
 42
0.0000000001
 43
0.00000001
 40
0.0
 40
0.0
 40
0.0
 40
0.0
 40
0.1877235356968999
 40
0.2546969951621114
 40
0.3362988647303178
 40
0.4104331479048639
 40
0.4786677905285325
 40
0.5753551686987769
 40
0.6865650042862815
 40
0.7558750281356926
 40
0.8308193999052411
 40
0.8999327242987688
 40
0.9915696435037061
 40
1.0
 40
1.0
 40
1.0
 40
1.0
 10
-12.09941130854258
 20
1090.999283718301
 30
0.0
 10
-40.72592650704556
 20
1085.062348751742
 30
0.0
 10
-79.2382000278396
 20
1077.111315148505
 30
0.0
 10
-87.86374329376144
 20
1073.422177297005
 30
0.0
 10
-101.7347417254489
 20
1070.64220742713
 30
0.0
 10
-110.630888155805
 20
1064.385077655778
 30
0.0
 10
-119.4811667298531
 20
1060.526091675946
 30
0.0
 10
-136.1646162620175
 20
1053.923269481843
 30
0.0
 10
-159.8980778081443
 20
1047.973251433086
 30
0.0
 10
-168.8010603226226
 20
1045.924980167524
 30
0.0
 10
-181.2687796023819
 20
1048.004129210681
 30
0.0
 10
-187.3458130480013
 20
1052.265894023934
 30
0.0
 10
-206.3015452218149
 20
1051.87706768934
 30
0.0
 10
-205.8917937951886
 20
1052.529444737869
 30
0.0
 10
-205.9305476351279
 20
1052.556146376704
 30
0.0
  0
SPLINE
  5
10000069
102
{ACAD_XDICTIONARY
360
1000006A
102
}
330
1F
100
AcDbEntity
  8
MODELSKETCH_VISIBLE
100
AcDbSpline
210
0.0
220
0.0
230
1.0
 70
     8
 71
     3
 72
   113
 73
   109
 74
     0
 42
0.0000000001
 43
0.00000001
 40
0.0
 40
0.0
 40
0.0
 40
0.0
 40
0.0042330436487458
 40
0.0096953655767912
 40
0.014681450991739
 40
0.0224304127797402
 40
0.0292542462092677
 40
0.0381068780724209
 40
0.0457942073220495
 40
0.0533323778504425
 40
0.0618830022419836
 40
0.0704346516999423
 40
0.0789306957014992
 40
0.0865338039482897
 40
0.0914124593234218
 40
0.0972552457675088
 40
0.1045917343880153
 40
0.1120690893722468
 40
0.1197136844960505
 40
0.127885844742946
 40
0.135669053109806
 40
0.1450213535637275
 40
0.154149183186984
 40
0.1614056050193826
 40
0.1691234697779253
 40
0.181463611380302
 40
0.1938635249890667
 40
0.205462705629998
 40
0.2131455896014246
 40
0.2211423186502026
 40
0.2296047784007189
 40
0.2390952981871274
 40
0.2482094057471003
 40
0.2578045925642083
 40
0.2695994325961379
 40
0.2786226606321818
 40
0.2865734236906654
 40
0.2945994136855501
 40
0.3033567877412773
 40
0.3125123869402796
 40
0.3203805299416339
 40
0.3287512333425257
 40
0.3380691527500958
 40
0.3478667517060183
 40
0.3565096986134299
 40
0.3657699223609377
 40
0.3752341985315299
 40
0.3835395009210595
 40
0.3927295239324318
 40
0.398657637342296
 40
0.4057488184105424
 40
0.4178384157029333
 40
0.4266310296030119
 40
0.4386961828232148
 40
0.452597424649622
 40
0.4668612414519509
 40
0.4804460826685564
 40
0.4956624127785477
 40
0.5035717524434281
 40
0.511579493872943
 40
0.5240984669120018
 40
0.533731080882956
 40
0.5402046654231726
 40
0.5486274215668772
 40
0.5583272043778312
 40
0.5820694291679792
 40
0.5986850107527487
 40
0.6103122465611209
 40
0.6215945806219028
 40
0.6339558969370781
 40
0.6470704815066732
 40
0.6593484551082028
 40
0.6673986679063614
 40
0.6776498232884278
 40
0.6846174718584063
 40
0.6917788520159229
 40
0.7023432920469368
 40
0.711169927446143
 40
0.7177483953544278
 40
0.7268759578736615
 40
0.7332396103038197
 40
0.7407556292402827
 40
0.7494104228449986
 40
0.7589330852161307
 40
0.7670359674148737
 40
0.7762537760678515
 40
0.7873138836207508
 40
0.7959307477598717
 40
0.8052470578359264
 40
0.8149581451636414
 40
0.8247523744137459
 40
0.8361640198869098
 40
0.8443453062072596
 40
0.8535819992066653
 40
0.8640551818493469
 40
0.8767713223725931
 40
0.8895596996765843
 40
0.8998674025709217
 40
0.9085319620335078
 40
0.9217509237442724
 40
0.935392503876512
 40
0.9505117936089863
 40
0.963802921352782
 40
0.9715126426931575
 40
0.9793008451219948
 40
0.9873587210469049
 40
0.995110601216464
 40
1.0
 40
1.0
 40
1.0
 40
1.0
 10
-285.1603473140917
 20
264.2486192452981
 30
0.0
 10
-285.9714041247975
 20
264.3142485008215
 30
0.0
 10
-287.8376918091729
 20
264.4653235258671
 30
0.0
 10
-292.2789487201802
 20
263.1248017521771
 30
0.0
 10
-295.4348465049827
 20
261.5774888476535
 30
0.0
 10
-301.6078709975118
 20
254.46291880038
 30
0.0
 10
-304.5007808189001
 20
248.8378389719648
 30
0.0
 10
-309.9706549181062
 20
238.3564653034185
 30
0.0
 10
-313.3217884148006
 20
230.3526519775617
 30
0.0
 10
-320.0134461161779
 20
224.8129596954518
 30
0.0
 10
-329.1084868285452
 20
218.6083648876931
 30
0.0
 10
-340.073854001648
 20
217.8238521769637
 30
0.0
 10
-350.3082934457963
 20
218.1360602510405
 30
0.0
 10
-359.0782757238744
 20
218.1330197324681
 30
0.0
 10
-362.7915683042448
 20
218.7449741659447
 30
0.0
 10
-367.5517382166605
 20
216.1229663215079
 30
0.0
 10
-373.9553299776634
 20
211.5906926634809
 30
0.0
 10
-379.2688147755705
 20
205.2916779725687
 30
0.0
 10
-386.069760269025
 20
199.911910320794
 30
0.0
 10
-391.0641093786988
 20
191.133787719435
 30
0.0
 10
-395.4555533220479
 20
183.2893327161823
 30
0.0
 10
-396.4761134723796
 20
170.2829288439987
 30
0.0
 10
-396.0126685682071
 20
158.2506931500049
 30
0.0
 10
-396.344247452833
 20
149.9839408092255
 30
0.0
 10
-393.2503653647602
 20
141.4002793998619
 30
0.0
 10
-388.4169828469423
 20
119.0336375699594
 30
0.0
 10
-383.648590283505
 20
98.65085660533693
 30
0.0
 10
-380.1828107032966
 20
78.4013651014089
 30
0.0
 10
-379.2873402643842
 20
69.73101850890312
 30
0.0
 10
-378.7099030906116
 20
59.82808189943692
 30
0.0
 10
-379.0337303781483
 20
49.44838296891609
 30
0.0
 10
-379.4059442972038
 20
36.13352957019211
 30
0.0
 10
-381.3589706570696
 20
23.83464368591365
 30
0.0
 10
-382.8742246976188
 20
10.64283860265667
 30
0.0
 10
-386.9449602193845
 20
-9.481911142404746
 30
0.0
 10
-390.5733875971227
 20
-20.6986903397666
 30
0.0
 10
-392.91895157488
 20
-30.12049595638873
 30
0.0
 10
-396.786517464086
 20
-38.93418028282322
 30
0.0
 10
-400.7672768544043
 20
-49.35315152774196
 30
0.0
 10
-406.7107296966969
 20
-60.25605981138214
 30
0.0
 10
-410.52028214098
 20
-68.54583456619962
 30
0.0
 10
-414.6213327886707
 20
-78.34171546542443
 30
0.0
 10
-417.7343336314029
 20
-90.51760438276973
 30
0.0
 10
-422.0978804050899
 20
-104.0735932149015
 30
0.0
 10
-423.2317356999019
 20
-115.0499962996299
 30
0.0
 10
-426.0289048693182
 20
-127.3983327710561
 30
0.0
 10
-425.516758806085
 20
-140.917447040052
 30
0.0
 10
-423.3262541381657
 20
-150.3777743305765
 30
0.0
 10
-417.709576996815
 20
-161.9650671050244
 30
0.0
 10
-415.0104410547963
 20
-166.5426754168219
 30
0.0
 10
-408.9399059035725
 20
-172.2125175142992
 30
0.0
 10
-410.7528029498133
 20
-195.6006762691274
 30
0.0
 10
-418.5493947881693
 20
-203.6544619162561
 30
0.0
 10
-421.2583770792812
 20
-227.2184435696537
 30
0.0
 10
-412.4983003375194
 20
-253.3924883782259
 30
0.0
 10
-403.3813833644023
 20
-282.594778915615
 30
0.0
 10
-395.1822997490233
 20
-306.9404064405684
 30
0.0
 10
-397.2995355636516
 20
-342.3102428815408
 30
0.0
 10
-399.1680295552753
 20
-351.7140175931928
 30
0.0
 10
-400.1964187456992
 20
-361.5996455775621
 30
0.0
 10
-401.5358053587067
 20
-384.076579973614
 30
0.0
 10
-400.2263091224324
 20
-397.9315917517271
 30
0.0
 10
-402.681473905562
 20
-403.8847479448607
 30
0.0
 10
-404.1155040869564
 20
-415.7192172783001
 30
0.0
 10
-403.5008322246283
 20
-428.9507155285789
 30
0.0
 10
-399.1646207518248
 20
-512.8597805064119
 30
0.0
 10
-396.032230566272
 20
-550.0682289055437
 30
0.0
 10
-395.0605874989469
 20
-571.849479665904
 30
0.0
 10
-390.7768765742992
 20
-590.5323252542082
 30
0.0
 10
-389.6424817688518
 20
-613.2828943168528
 30
0.0
 10
-389.6098211348763
 20
-637.3946862692487
 30
0.0
 10
-391.5509437556653
 20
-660.6510500648154
 30
0.0
 10
-388.4364234173192
 20
-669.3736775788577
 30
0.0
 10
-382.6084532244344
 20
-684.1353611378298
 30
0.0
 10
-380.1678606004036
 20
-691.2964933281353
 30
0.0
 10
-383.8700018790837
 20
-698.7198308740684
 30
0.0
 10
-390.8092697938613
 20
-712.7607032845088
 30
0.0
 10
-396.9634788174246
 20
-723.6462280396303
 30
0.0
 10
-393.0911252911034
 20
-729.5185825930929
 30
0.0
 10
-387.4729423884987
 20
-740.71727961723
 30
0.0
 10
-385.0892647781769
 20
-745.7504636925299
 30
0.0
 10
-382.1398911060854
 20
-754.6823658561372
 30
0.0
 10
-387.6424836389344
 20
-764.5671572004998
 30
0.0
 10
-394.0984590480184
 20
-776.1097231681438
 30
0.0
 10
-398.2828921477369
 20
-785.1655493387665
 30
0.0
 10
-398.4212899421713
 20
-797.987150153898
 30
0.0
 10
-392.7103220905788
 20
-815.2195035649237
 30
0.0
 10
-390.9115638921178
 20
-825.8236512666836
 30
0.0
 10
-391.0510445068846
 20
-839.1124631826057
 30
0.0
 10
-396.0783421553298
 20
-852.4282175686305
 30
0.0
 10
-401.507375275082
 20
-864.7865287997425
 30
0.0
 10
-410.6128777918645
 20
-882.2373551294091
 30
0.0
 10
-413.0700515696109
 20
-891.5406702194095
 30
0.0
 10
-418.9667815391214
 20
-903.7831543058061
 30
0.0
 10
-417.786085798046
 20
-920.1560267681841
 30
0.0
 10
-416.1461441547264
 20
-943.545642569002
 30
0.0
 10
-414.1895082101093
 20
-966.8771476211048
 30
0.0
 10
-413.3025639103881
 20
-983.4212335129777
 30
0.0
 10
-416.5451285070686
 20
-994.2517720994193
 30
0.0
 10
-424.7190566598156
 20
-1019.710902043744
 30
0.0
 10
-436.2270014588855
 20
-1043.350103807554
 30
0.0
 10
-451.6405095775813
 20
-1072.367484464775
 30
0.0
 10
-458.0630405018748
 20
-1098.305543210354
 30
0.0
 10
-459.3787526044567
 20
-1107.368756189735
 30
0.0
 10
-457.5233088295823
 20
-1116.602330302408
 30
0.0
 10
-453.5092204678101
 20
-1125.422314283614
 30
0.0
 10
-444.7954132330935
 20
-1129.128305035825
 30
0.0
 10
-442.1416700953058
 20
-1129.40031091463
 30
0.0
 10
-441.1197405624226
 20
-1129.505056506078
 30
0.0
  0
SPLINE
  5
1000006D
102
{ACAD_XDICTIONARY
360
1000006E
102
}
330
1F
100
AcDbEntity
  8
MODELSKETCH_VISIBLE
100
AcDbSpline
210
0.0
220
0.0
230
1.0
 70
     8
 71
     3
 72
    54
 73
    50
 74
     0
 42
0.0000000001
 43
0.00000001
 40
0.0
 40
0.0
 40
0.0
 40
0.0
 40
0.0181844983636481
 40
0.032579057630166
 40
0.0470461954001025
 40
0.0589790279237349
 40
0.0728902737941572
 40
0.0894316296548614
 40
0.1108682481416343
 40
0.1220034055889207
 40
0.1337067174916765
 40
0.1444282987625052
 40
0.1557649422630753
 40
0.1873020895123922
 40
0.1969448846669705
 40
0.2110594750513038
 40
0.2347395567509577
 40
0.2575311376032948
 40
0.2740741452917604
 40
0.2890357234476654
 40
0.3027230534530603
 40
0.3254496616598375
 40
0.3441881280376322
 40
0.3639228875759458
 40
0.3823745764104946
 40
0.3999313728486953
 40
0.4278154753920173
 40
0.4447462260923509
 40
0.4628768822097324
 40
0.4847905412669475
 40
0.5124136796433139
 40
0.5410382961478345
 40
0.5676950251617453
 40
0.5826344516636328
 40
0.6639129798911991
 40
0.6817441061323383
 40
0.7133980945095595
 40
0.7412445502416019
 40
0.7641000875609593
 40
0.7862718003387149
 40
0.8104070051821631
 40
0.8337566140159393
 40
0.8558760273211258
 40
0.8848797967270443
 40
0.9099754383689215
 40
0.9337195801517096
 40
0.9555139815352464
 40
0.9778113862671235
 40
1.0
 40
1.0
 40
1.0
 40
1.0
 10
436.7783243336331
 20
-266.5686461277944
 30
0.0
 10
435.763758258929
 20
-264.15302199228
 30
0.0
 10
433.918813838681
 20
-259.7603142312652
 30
0.0
 10
431.1361455531276
 20
-256.0963526235514
 30
0.0
 10
427.2943190061849
 20
-252.9535659573748
 30
0.0
 10
424.0763000687859
 20
-252.3025717479805
 30
0.0
 10
419.4272363315111
 20
-252.6311165956465
 30
0.0
 10
413.8540410779241
 20
-253.1185911283653
 30
0.0
 10
403.3202230490488
 20
-253.6719578583768
 30
0.0
 10
400.7009544462252
 20
-252.9406158989634
 30
0.0
 10
397.8210486515829
 20
-251.3115237886937
 30
0.0
 10
396.5592221200029
 20
-248.6091196939047
 30
0.0
 10
395.1278402144011
 20
-246.8232969730241
 30
0.0
 10
384.9326972442253
 20
-226.2558526663552
 30
0.0
 10
384.6477325208674
 20
-224.6320572609346
 30
0.0
 10
381.9899140854375
 20
-219.9711672202725
 30
0.0
 10
372.4587755837135
 20
-212.4485621408283
 30
0.0
 10
363.2847240033621
 20
-205.7873186504096
 30
0.0
 10
358.9324805557305
 20
-201.3033578030635
 30
0.0
 10
356.6045501276
 20
-196.3499786509012
 30
0.0
 10
355.5616372379727
 20
-192.3498349364018
 30
0.0
 10
356.6906172685852
 20
-180.373928446111
 30
0.0
 10
358.8770645688145
 20
-173.3919980103752
 30
0.0
 10
358.4163016537486
 20
-164.0746998833604
 30
0.0
 10
353.0394518178696
 20
-157.68323364226
 30
0.0
 10
347.8463654395022
 20
-154.037731940922
 30
0.0
 10
334.0884816535291
 20
-142.4066445249449
 30
0.0
 10
331.550304603451
 20
-136.780386016494
 30
0.0
 10
328.3398380281902
 20
-129.3151008728617
 30
0.0
 10
328.7509254272417
 20
-118.492336278954
 30
0.0
 10
329.5420154008706
 20
-101.132307657038
 30
0.0
 10
333.5986761983526
 20
-85.02054602488391
 30
0.0
 10
338.5976634940075
 20
-67.30462571823911
 30
0.0
 10
339.6676533317295
 20
-65.71287432343158
 30
0.0
 10
339.2747087979996
 20
87.90694526987838
 30
0.0
 10
338.2273062089064
 20
90.19626480945388
 30
0.0
 10
329.531520193989
 20
113.8131578286972
 30
0.0
 10
323.8749731763647
 20
128.7149390493778
 30
0.0
 10
323.8193378388834
 20
141.1584431498488
 30
0.0
 10
324.0926061093109
 20
152.2966977641162
 30
0.0
 10
328.0657607125744
 20
164.7289833953406
 30
0.0
 10
333.0568603907867
 20
176.2957585558202
 30
0.0
 10
341.4549448239648
 20
183.8340357283339
 30
0.0
 10
359.3905995506652
 20
190.4962264321072
 30
0.0
 10
371.810202894977
 20
196.1028818527405
 30
0.0
 10
384.6117819548549
 20
198.5197892762443
 30
0.0
 10
395.0516086814051
 20
200.803531230623
 30
0.0
 10
405.4753995500442
 20
204.2355204917848
 30
0.0
 10
412.3892274430232
 20
208.9865633172107
 30
0.0
 10
414.6157684035193
 20
211.0549179240365
 30
0.0
  0
SPLINE
  5
10000071
102
{ACAD_XDICTIONARY
360
10000072
102
}
330
1F
100
AcDbEntity
  8
MODELSKETCH_VISIBLE
100
AcDbSpline
210
0.0
220
0.0
230
1.0
 70
     8
 71
     3
 72
    23
 73
    19
 74
     0
 42
0.0000000001
 43
0.00000001
 40
0.0
 40
0.0
 40
0.0
 40
0.0
 40
0.0529213939397199
 40
0.1161620721495323
 40
0.172050518335759
 40
0.2093218913324039
 40
0.2791889524941601
 40
0.3558843942497068
 40
0.4300031441387231
 40
0.4653371911316408
 40
0.5111693453760081
 40
0.5546045032354916
 40
0.6140097009740326
 40
0.7021437799144528
 40
0.7863558066347459
 40
0.8733351857725905
 40
0.9449803579414779
 40
1.0
 40
1.0
 40
1.0
 40
1.0
 10
414.6157684035193
 20
211.0549179240365
 30
0.0
 10
416.416671253135
 20
212.7170250090061
 30
0.0
 10
420.3531927664808
 20
216.3507544570831
 30
0.0
 10
427.858074650342
 20
224.0055562580594
 30
0.0
 10
431.6382604938483
 20
232.302019501054
 30
0.0
 10
433.9095390703769
 20
235.2932692879433
 30
0.0
 10
442.5187177900681
 20
247.2991844122245
 30
0.0
 10
442.7662560087643
 20
262.1522325040265
 30
0.0
 10
441.8791811551189
 20
278.0342820050168
 30
0.0
 10
441.2108778501361
 20
281.4048967675189
 30
0.0
 10
437.7547746341541
 20
286.6671410841756
 30
0.0
 10
434.1620030527959
 20
290.423632513159
 30
0.0
 10
427.1769277201993
 20
297.7388319084552
 30
0.0
 10
409.2446749190462
 20
309.5750744635714
 30
0.0
 10
392.6998079986581
 20
318.3454035148373
 30
0.0
 10
377.9621845618844
 20
333.3359908741468
 30
0.0
 10
368.3143726091987
 20
343.7072511795391
 30
0.0
 10
364.3599081138532
 20
348.2771134990592
 30
0.0
 10
362.5941946679536
 20
350.2553112203258
 30
0.0
  0
SPLINE
  5
10000075
102
{ACAD_XDICTIONARY
360
10000076
102
}
330
1F
100
AcDbEntity
  8
MODELSKETCH_VISIBLE
100
AcDbSpline
210
0.0
220
0.0
230
1.0
 70
     8
 71
     3
 72
    18
 73
    14
 74
     0
 42
0.0000000001
 43
0.00000001
 40
0.0
 40
0.0
 40
0.0
 40
0.0
 40
0.0625870979894383
 40
0.1573300131903155
 40
0.2548914358113811
 40
0.3411753592927941
 40
0.4233946364753071
 40
0.5142406273221409
 40
0.6215303982486019
 40
0.742059068753686
 40
0.8482196157084889
 40
0.9355693881115834
 40
1.0
 40
1.0
 40
1.0
 40
1.0
 10
322.3862092596725
 20
-407.5665903563997
 30
0.0
 10
321.4853239772545
 20
-405.0278190722049
 30
0.0
 10
319.2436541583229
 20
-398.7105960327787
 30
0.0
 10
317.0672655407039
 20
-378.1400956234795
 30
0.0
 10
318.1675327032781
 20
-357.1241108809733
 30
0.0
 10
322.8259872549907
 20
-340.3619557308515
 30
0.0
 10
331.278633728095
 20
-326.7339566838214
 30
0.0
 10
346.57167206478
 20
-314.6061299319801
 30
0.0
 10
370.2759726039793
 20
-303.707544758571
 30
0.0
 10
402.238905136619
 20
-295.7975847584854
 30
0.0
 10
425.82840189783
 20
-289.5656645077291
 30
0.0
 10
442.4827933537459
 20
-276.2203252071344
 30
0.0
 10
438.9151669139324
 20
-270.1860560353105
 30
0.0
 10
436.7783243336331
 20
-266.5686461277944
 30
0.0
  0
SPLINE
  5
10000079
102
{ACAD_XDICTIONARY
360
1000007A
102
}
330
1F
100
AcDbEntity
  8
MODELSKETCH_VISIBLE
100
AcDbSpline
210
0.0
220
0.0
230
1.0
 70
     8
 71
     3
 72
    48
 73
    44
 74
     0
 42
0.0000000001
 43
0.00000001
 40
0.0
 40
0.0
 40
0.0
 40
0.0
 40
0.0296155870616368
 40
0.0644820623906711
 40
0.1008508335476562
 40
0.1358973742916605
 40
0.1653329793853138
 40
0.1941031995506481
 40
0.2214668209864523
 40
0.2561001645897202
 40
0.2929555738307221
 40
0.3330922517847063
 40
0.3708930887950261
 40
0.4019556824175357
 40
0.4191268771793732
 40
0.434659177310124
 40
0.455089034239453
 40
0.4822354997680089
 40
0.5122127526131424
 40
0.5362419919033735
 40
0.5591868643617555
 40
0.5820976993046547
 40
0.6048481460403309
 40
0.6317500356728322
 40
0.6569317857551737
 40
0.6731914283985131
 40
0.6877560475393628
 40
0.7059732525531236
 40
0.727273810577258
 40
0.7475144190094153
 40
0.7659219482842617
 40
0.7802198047708315
 40
0.8016971578607901
 40
0.8265017199595776
 40
0.8398829807457301
 40
0.8522938816416117
 40
0.8675014663649214
 40
0.8991559663720242
 40
0.9128635240087773
 40
0.9271646332874333
 40
0.945987131499517
 40
0.9735197642099974
 40
1.0
 40
1.0
 40
1.0
 40
1.0
 10
351.1167834039103
 20
-722.5141041269561
 30
0.0
 10
349.3038877189435
 20
-717.8546039388201
 30
0.0
 10
345.3385177968644
 20
-707.6812248436544
 30
0.0
 10
339.6354943575747
 20
-686.6598944183312
 30
0.0
 10
335.5536014840779
 20
-663.9915300602855
 30
0.0
 10
333.6560781367843
 20
-642.2065898574771
 30
0.0
 10
332.505565615385
 20
-626.2618428932101
 30
0.0
 10
341.3625791389651
 20
-613.0858396971487
 30
0.0
 10
349.2070859229907
 20
-602.4646452026077
 30
0.0
 10
365.8166810949805
 20
-587.9132521899509
 30
0.0
 10
385.5155546599392
 20
-574.9285340060945
 30
0.0
 10
410.2152474453496
 20
-560.3181473602399
 30
0.0
 10
431.4518049497958
 20
-548.3221343193895
 30
0.0
 10
444.9416821199677
 20
-536.2576849379792
 30
0.0
 10
447.9523820340835
 20
-531.465015593839
 30
0.0
 10
450.2632407328706
 20
-527.4468177161517
 30
0.0
 10
453.0775567932229
 20
-520.2405782641605
 30
0.0
 10
455.9217463851301
 20
-507.7704967830113
 30
0.0
 10
459.1995823520294
 20
-492.2565967196202
 30
0.0
 10
458.9565124500635
 20
-481.8676504406277
 30
0.0
 10
456.1371948732751
 20
-472.6151469385309
 30
0.0
 10
451.1014683444532
 20
-464.470043022718
 30
0.0
 10
442.8506337396567
 20
-458.8858117220894
 30
0.0
 10
429.9802456964267
 20
-460.021924245553
 30
0.0
 10
418.8164554458831
 20
-460.2840009206025
 30
0.0
 10
413.8291060315291
 20
-460.3418547668512
 30
0.0
 10
410.0647249451761
 20
-458.7490172106583
 30
0.0
 10
405.3420914402292
 20
-455.0197578901992
 30
0.0
 10
400.5696454954362
 20
-448.5755029383994
 30
0.0
 10
395.9922330938674
 20
-443.2001999655933
 30
0.0
 10
391.7431602381662
 20
-438.6284715218308
 30
0.0
 10
388.6145971773119
 20
-436.115624848429
 30
0.0
 10
380.3346679135967
 20
-436.1334481445228
 30
0.0
 10
369.6027226555764
 20
-437.0158612717833
 30
0.0
 10
366.3174167065438
 20
-436.9778431301793
 30
0.0
 10
363.4631745085724
 20
-438.6363367652971
 30
0.0
 10
359.7987341212634
 20
-439.2888919369014
 30
0.0
 10
341.7068364439435
 20
-440.1800617256711
 30
0.0
 10
338.5720881143306
 20
-439.5698430051963
 30
0.0
 10
335.3615223677338
 20
-436.715796773258
 30
0.0
 10
332.0341983945685
 20
-431.3837864899033
 30
0.0
 10
325.5347634352742
 20
-419.4108476226884
 30
0.0
 10
323.2988524264418
 20
-411.5830517454795
 30
0.0
 10
322.3862092596725
 20
-407.5665903563997
 30
0.0
  0
SPLINE
  5
1000007D
102
{ACAD_XDICTIONARY
360
1000007E
102
}
330
1F
100
AcDbEntity
  8
MODELSKETCH_VISIBLE
100
AcDbSpline
210
0.0
220
0.0
230
1.0
 70
     8
 71
     3
 72
    65
 73
    61
 74
     0
 42
0.0000000001
 43
0.00000001
 40
0.0
 40
0.0
 40
0.0
 40
0.0
 40
0.0118774168947052
 40
0.027059279778796
 40
0.0388823117519756
 40
0.0514637060681265
 40
0.0638276062981123
 40
0.078236964763242
 40
0.0927250854273151
 40
0.1063837031205533
 40
0.1221380338073364
 40
0.1367259647494902
 40
0.1489856525452422
 40
0.1677802617520912
 40
0.183313391265034
 40
0.1961894620031296
 40
0.2076376014966678
 40
0.2240492410652016
 40
0.2367873221540237
 40
0.2404010903480031
 40
0.2531899631879402
 40
0.2633449967918945
 40
0.2770523623836986
 40
0.2875915540288593
 40
0.2996298437592213
 40
0.303085017003523
 40
0.316103232133531
 40
0.3378653063417083
 40
0.3622822711976156
 40
0.3879254783510672
 40
0.4106008207056326
 40
0.4226068440752094
 40
0.4349500197572782
 40
0.4453746026705072
 40
0.4562891852129489
 40
0.4684031415538711
 40
0.4802898965027473
 40
0.4919479071765867
 40
0.5048099669612938
 40
0.5219592234887812
 40
0.5455483534272674
 40
0.574759309616654
 40
0.6014307332465786
 40
0.6278463071438694
 40
0.6561012937576176
 40
0.6842447092393463
 40
0.7103167669680519
 40
0.7291028519842883
 40
0.7561363967555813
 40
0.7784641326849525
 40
0.8039847478279359
 40
0.8204281744140681
 40
0.8384720105120762
 40
0.8507064967060343
 40
0.8637283381689544
 40
0.887097877095709
 40
0.9126237188056481
 40
0.9403352845635943
 40
0.9722097596064786
 40
1.0
 40
1.0
 40
1.0
 40
1.0
 10
224.3430084268769
 20
-928.5292829775856
 30
0.0
 10
225.1850125493299
 20
-928.3631106457444
 30
0.0
 10
227.1116633264099
 20
-927.9828796661886
 30
0.0
 10
231.7813118789253
 20
-927.6915522299139
 30
0.0
 10
234.4454444021057
 20
-927.4582654546787
 30
0.0
 10
237.7812673317534
 20
-927.4050609864844
 30
0.0
 10
240.6817450595769
 20
-926.5064178020871
 30
0.0
 10
244.6954003271189
 20
-925.3929336012898
 30
0.0
 10
248.6226551183164
 20
-923.9045006180988
 30
0.0
 10
252.3148432131378
 20
-923.0743345917059
 30
0.0
 10
256.3453130660377
 20
-920.1845942502858
 30
0.0
 10
260.3605037670041
 20
-918.3708184256162
 30
0.0
 10
262.789177589881
 20
-916.7317709346258
 30
0.0
 10
269.0082223425331
 20
-913.0994662144282
 30
0.0
 10
273.2488079394877
 20
-911.4307808086454
 30
0.0
 10
276.5723277031058
 20
-910.1588181398778
 30
0.0
 10
278.9963465825164
 20
-909.142201808283
 30
0.0
 10
283.9441210866844
 20
-908.0468618168668
 30
0.0
 10
287.5478864298867
 20
-907.9666350128305
 30
0.0
 10
287.7493633874498
 20
-908.0483015656358
 30
0.0
 10
291.3680959526844
 20
-908.1609168541083
 30
0.0
 10
292.9477153167585
 20
-908.3283303830218
 30
0.0
 10
297.0024054940797
 20
-909.134109233461
 30
0.0
 10
298.5311798335956
 20
-910.0813975996366
 30
0.0
 10
301.6886613404417
 20
-910.8074329436565
 30
0.0
 10
301.9034910770042
 20
-910.8220557327793
 30
0.0
 10
305.732876613445
 20
-912.3377843966509
 30
0.0
 10
314.1615911448835
 20
-915.7434289129745
 30
0.0
 10
324.2338342315153
 20
-921.8489697877753
 30
0.0
 10
334.5246607599622
 20
-928.9781284369565
 30
0.0
 10
342.0968516773365
 20
-936.6157960715956
 30
0.0
 10
343.9726426188539
 20
-938.8274548125249
 30
0.0
 10
346.4368880936823
 20
-940.9448867646199
 30
0.0
 10
348.3586921770599
 20
-941.9657561514713
 30
0.0
 10
350.7524661959176
 20
-942.4930082778715
 30
0.0
 10
353.6739188429189
 20
-942.6726357944541
 30
0.0
 10
356.5144294422082
 20
-941.9340516976575
 30
0.0
 10
358.5259714474516
 20
-939.9212224123773
 30
0.0
 10
360.9711565368781
 20
-937.5467029056723
 30
0.0
 10
365.3061933641429
 20
-933.158298282194
 30
0.0
 10
371.7978624107794
 20
-924.2123172778346
 30
0.0
 10
381.4229466804503
 20
-910.3621270052512
 30
0.0
 10
389.0679901060465
 20
-898.4948416961885
 30
0.0
 10
395.1873177497853
 20
-885.7516670595545
 30
0.0
 10
402.2066546182247
 20
-871.324193853425
 30
0.0
 10
407.6526479012486
 20
-857.0800127453266
 30
0.0
 10
410.9563229761944
 20
-843.1135123399717
 30
0.0
 10
411.3733774763263
 20
-836.434714295361
 30
0.0
 10
410.9290322501656
 20
-820.891879006741
 30
0.0
 10
407.712152507288
 20
-812.5252737372668
 30
0.0
 10
402.7433794653548
 20
-799.7237654069748
 30
0.0
 10
400.9005604278424
 20
-795.0827830530079
 30
0.0
 10
396.8556575968854
 20
-789.5162113617081
 30
0.0
 10
395.2116699010402
 20
-786.9259069910034
 30
0.0
 10
392.8125258137798
 20
-784.1695424671879
 30
0.0
 10
385.990329358368
 20
-775.2347333555998
 30
0.0
 10
377.2748480093073
 20
-766.0206157686874
 30
0.0
 10
367.1767869097437
 20
-754.5071981986672
 30
0.0
 10
357.008339222429
 20
-736.826999153325
 30
0.0
 10
352.8085943645839
 20
-727.1840238280627
 30
0.0
 10
351.1167834039103
 20
-722.5141041269561
 30
0.0
  0
SPLINE
  5
10000081
102
{ACAD_XDICTIONARY
360
10000082
102
}
330
1F
100
AcDbEntity
  8
MODELSKETCH_VISIBLE
100
AcDbSpline
210
0.0
220
0.0
230
1.0
 70
     8
 71
     3
 72
    77
 73
    73
 74
     0
 42
0.0000000001
 43
0.00000001
 40
0.0
 40
0.0
 40
0.0
 40
0.0
 40
0.0105478967210083
 40
0.0242422240312897
 40
0.0372293173344164
 40
0.0497044757800818
 40
0.0573979722470601
 40
0.0716396651414063
 40
0.0863454805488359
 40
0.101036157461776
 40
0.1171467677587391
 40
0.1287728425797421
 40
0.141109042136914
 40
0.1538182739423645
 40
0.1633925526968636
 40
0.1744612437485257
 40
0.1824119081244302
 40
0.1895804876844741
 40
0.1961318047953824
 40
0.2042343026547024
 40
0.2137981754813297
 40
0.2270616109903239
 40
0.2404166959533698
 40
0.2622391928616973
 40
0.2760801642232808
 40
0.2894163077404921
 40
0.3052007289652892
 40
0.322502389044432
 40
0.3385236905034948
 40
0.3576201138803706
 40
0.3734468504264691
 40
0.3865056302655161
 40
0.4022138726771455
 40
0.4145767231640862
 40
0.4288245272964759
 40
0.4423685427471597
 40
0.458038565859743
 40
0.4724284283407721
 40
0.4871869292536521
 40
0.5023731069883034
 40
0.517330202222851
 40
0.5309550815503498
 40
0.5460599031308534
 40
0.5624887837513062
 40
0.5794996962502378
 40
0.600402496953817
 40
0.6193220522577209
 40
0.6370194125490325
 40
0.6559553799530107
 40
0.6740233812828367
 40
0.690365748347001
 40
0.7033534814488182
 40
0.715507397591168
 40
0.726302160821557
 40
0.7426404578676816
 40
0.7589719053938685
 40
0.7743783423415534
 40
0.7927874110627573
 40
0.8111836684144252
 40
0.8274730267589238
 40
0.8438384070967894
 40
0.8606540575134989
 40
0.8749946645916379
 40
0.891706376304623
 40
0.9080754950153019
 40
0.9217717333511972
 40
0.9332354607234532
 40
0.9440217135996714
 40
0.9564725913742735
 40
0.9706769754040104
 40
0.9816089735815746
 40
1.0
 40
1.0
 40
1.0
 40
1.0
 10
-205.8783487221662
 20
1052.425785855973
 30
0.0
 10
-208.6909225828153
 20
1052.796550614616
 30
0.0
 10
-215.1613280946307
 20
1053.649539264958
 30
0.0
 10
-228.7617692442199
 20
1045.930533547746
 30
0.0
 10
-239.8278130811916
 20
1040.454786020549
 30
0.0
 10
-250.6725600691676
 20
1032.818046920961
 30
0.0
 10
-254.6406716566591
 20
1029.974909372186
 30
0.0
 10
-271.9820638425267
 20
1030.444258326911
 30
0.0
 10
-288.1581377860827
 20
1027.675107762854
 30
0.0
 10
-304.9688803938978
 20
1023.240638612364
 30
0.0
 10
-325.5011549377098
 20
1029.339208709621
 30
0.0
 10
-336.4785571530614
 20
1028.884618364199
 30
0.0
 10
-347.4920103579531
 20
1034.634372540198
 30
0.0
 10
-360.0263250338376
 20
1038.459852626904
 30
0.0
 10
-366.4260785384325
 20
1041.220599637199
 30
0.0
 10
-376.2834683464144
 20
1043.618120762026
 30
0.0
 10
-381.2104893864827
 20
1043.691914895627
 30
0.0
 10
-385.5200326363914
 20
1042.496522255455
 30
0.0
 10
-387.9031410364128
 20
1039.608938523428
 30
0.0
 10
-388.523000147668
 20
1034.014860578805
 30
0.0
 10
-388.66518399698
 20
1026.913680422528
 30
0.0
 10
-385.6608735742907
 20
1012.130160808953
 30
0.0
 10
-380.6722494250391
 20
1000.309166581136
 30
0.0
 10
-364.2612478198504
 20
965.0447874463061
 30
0.0
 10
-353.981033504629
 20
954.2009300323768
 30
0.0
 10
-351.0613730433656
 20
938.8857393542966
 30
0.0
 10
-345.0782545448501
 20
920.3515232903094
 30
0.0
 10
-339.2032905340259
 20
896.8269446079986
 30
0.0
 10
-333.5896728291678
 20
877.6829602571903
 30
0.0
 10
-321.612524818958
 20
851.1429693475775
 30
0.0
 10
-313.8534843999559
 20
832.5014555325866
 30
0.0
 10
-308.7280322980029
 20
820.0709625739958
 30
0.0
 10
-304.4541192318368
 20
800.1103767088291
 30
0.0
 10
-301.4087152844853
 20
788.9216615449869
 30
0.0
 10
-295.5755603241302
 20
772.9463905098909
 30
0.0
 10
-290.2011664153778
 20
759.9117429726506
 30
0.0
 10
-280.6938606845454
 20
742.2869516790972
 30
0.0
 10
-271.3469897920419
 20
728.996048963172
 30
0.0
 10
-261.9656681636246
 20
714.025392711625
 30
0.0
 10
-253.0377215830368
 20
698.1942760357688
 30
0.0
 10
-244.7035033859594
 20
682.2385548964519
 30
0.0
 10
-236.3892332171385
 20
669.6060465857819
 30
0.0
 10
-221.7687624826786
 20
658.2488961301868
 30
0.0
 10
-205.7152890271322
 20
643.4171179437064
 30
0.0
 10
-187.8978449789555
 20
629.2407581616701
 30
0.0
 10
-162.1225532336236
 20
605.6366872437422
 30
0.0
 10
-140.5489234749593
 20
587.4250461217738
 30
0.0
 10
-120.9588071002844
 20
571.4748699664682
 30
0.0
 10
-96.08420348640331
 20
556.7409287054525
 30
0.0
 10
-79.08106967763881
 20
537.3045166973633
 30
0.0
 10
-67.1205423340941
 20
519.3713097636536
 30
0.0
 10
-60.64187470655656
 20
507.2642764058426
 30
0.0
 10
-60.13318855663097
 20
494.8488151296621
 30
0.0
 10
-59.82844872836546
 20
484.6019113631983
 30
0.0
 10
-77.02007007354806
 20
469.9624960244952
 30
0.0
 10
-91.9768052339933
 20
455.6418140870141
 30
0.0
 10
-101.372529286092
 20
438.6180552986539
 30
0.0
 10
-111.2019649421587
 20
413.4961600830298
 30
0.0
 10
-118.641296372936
 20
387.662966873553
 30
0.0
 10
-127.9432782445816
 20
368.8149243474221
 30
0.0
 10
-143.7758585116399
 20
351.0069653356216
 30
0.0
 10
-168.3222950358582
 20
355.7498351070394
 30
0.0
 10
-183.2310325384256
 20
344.325693409092
 30
0.0
 10
-187.7141085573552
 20
321.4806476567505
 30
0.0
 10
-206.8886361600578
 20
308.3188465067665
 30
0.0
 10
-222.3090925534797
 20
309.2779202334429
 30
0.0
 10
-232.6448752762422
 20
305.4118859860414
 30
0.0
 10
-240.1571436910446
 20
298.8431044126087
 30
0.0
 10
-244.1563959733463
 20
287.1297682800285
 30
0.0
 10
-251.6904966834591
 20
273.0561042628282
 30
0.0
 10
-257.9568039128572
 20
262.9712049640999
 30
0.0
 10
-271.3828350103494
 20
263.855667291669
 30
0.0
 10
-285.1603473140917
 20
264.2486192452981
 30
0.0
  0
ENDSEC
  0
SECTION
  2
OBJECTS
  0
DICTIONARY
  5
C
330
0
100
AcDbDictionary
  3
ACAD_GROUP
350
D
  3
ACAD_LAYOUT
350
1A
  3
ACAD_MATERIAL
350
43
  3
ACAD_MLEADERSTYLE
350
5B
  3
ACAD_MLINESTYLE
350
17
  3
ACAD_PLOTSETTINGS
350
19
  3
ACAD_SCALELIST
350
47
  3
ACAD_VISUALSTYLE
350
2A
  3
ACDBHEADERROUNDTRIPXREC
350
10000087
  3
ACDBVARIABLEDICTIONARY
350
100000A8
  3
DWGPROPS
350
100000AF
  3
ONSHAPE_DATA
350
10000001
  0
DICTIONARY
  5
100000B0
330
8
100
AcDbDictionary
280
     1
  3
ACAD_XREC_ROUNDTRIP
360
100000B1
  0
DICTIONARY
  5
10000085
330
1F
100
AcDbDictionary
280
     1
  3
ACAD_SORTENTS
360
10000086
  0
DICTIONARY
  5
1000005A
330
10000059
100
AcDbDictionary
280
     1
  3
BTDETID
360
1000005B
  3
BTPARTID
360
1000005C
  0
DICTIONARY
  5
1000005E
330
1000005D
100
AcDbDictionary
280
     1
  3
BTDETID
360
1000005F
  3
BTPARTID
360
10000060
  0
DICTIONARY
  5
10000062
330
10000061
100
AcDbDictionary
280
     1
  3
BTDETID
360
10000063
  3
BTPARTID
360
10000064
  0
DICTIONARY
  5
10000066
330
10000065
100
AcDbDictionary
280
     1
  3
BTDETID
360
10000067
  3
BTPARTID
360
10000068
  0
DICTIONARY
  5
1000006A
330
10000069
100
AcDbDictionary
280
     1
  3
BTDETID
360
1000006B
  3
BTPARTID
360
1000006C
  0
DICTIONARY
  5
1000006E
330
1000006D
100
AcDbDictionary
280
     1
  3
BTDETID
360
1000006F
  3
BTPARTID
360
10000070
  0
DICTIONARY
  5
10000072
330
10000071
100
AcDbDictionary
280
     1
  3
BTDETID
360
10000073
  3
BTPARTID
360
10000074
  0
DICTIONARY
  5
10000076
330
10000075
100
AcDbDictionary
280
     1
  3
BTDETID
360
10000077
  3
BTPARTID
360
10000078
  0
DICTIONARY
  5
1000007A
330
10000079
100
AcDbDictionary
280
     1
  3
BTDETID
360
1000007B
  3
BTPARTID
360
1000007C
  0
DICTIONARY
  5
1000007E
330
1000007D
100
AcDbDictionary
280
     1
  3
BTDETID
360
1000007F
  3
BTPARTID
360
10000080
  0
DICTIONARY
  5
10000082
330
10000081
100
AcDbDictionary
280
     1
  3
BTDETID
360
10000083
  3
BTPARTID
360
10000084
  0
DICTIONARY
  5
D
102
{ACAD_REACTORS
330
C
102
}
330
C
100
AcDbDictionary
  0
DICTIONARY
  5
1A
102
{ACAD_REACTORS
330
C
102
}
330
C
100
AcDbDictionary
  0
DICTIONARY
  5
43
102
{ACAD_REACTORS
330
C
102
}
330
C
100
AcDbDictionary
  3
BYBLOCK
350
45
  3
BYLAYER
350
44
  3
GLOBAL
350
46
  0
DICTIONARY
  5
5B
102
{ACAD_REACTORS
330
C
102
}
330
C
100
AcDbDictionary
  3
STANDARD
350
5C
  0
DICTIONARY
  5
17
102
{ACAD_REACTORS
330
C
102
}
330
C
100
AcDbDictionary
  3
STANDARD
350
18
  0
DICTIONARY
  5
19
102
{ACAD_REACTORS
330
C
102
}
330
C
100
AcDbDictionary
  0
DICTIONARY
  5
47
102
{ACAD_REACTORS
330
C
102
}
330
C
100
AcDbDictionary
  3
SCALE100_1
350
10000023
  3
SCALE10_1
350
1000001D
  3
SCALE12_1
350
1000001E
  3
SCALE16_1
350
1000001F
  3
SCALE1_1
350
10000006
  3
SCALE1_10
350
1000000D
  3
SCALE1_100
350
10000016
  3
SCALE1_12
350
1000000E
  3
SCALE1_16
350
1000000F
  3
SCALE1_2
350
10000007
  3
SCALE1_20
350
10000010
  3
SCALE1_25
350
10000011
  3
SCALE1_3
350
10000008
  3
SCALE1_32
350
10000012
  3
SCALE1_4
350
10000009
  3
SCALE1_40
350
10000013
  3
SCALE1_5
350
1000000A
  3
SCALE1_50
350
10000014
  3
SCALE1_6
350
1000000B
  3
SCALE1_8
350
1000000C
  3
SCALE1_80
350
10000015
  3
SCALE20_1
350
10000020
  3
SCALE2_1
350
10000017
  3
SCALE32_1
350
10000021
  3
SCALE3_1
350
10000018
  3
SCALE4_1
350
10000019
  3
SCALE50_1
350
10000022
  3
SCALE5_1
350
1000001A
  3
SCALE6_1
350
1000001B
  3
SCALE8_1
350
1000001C
  0
DICTIONARY
  5
2A
102
{ACAD_REACTORS
330
C
102
}
330
C
100
AcDbDictionary
  3
2DWIREFRAME
350
2F
  3
BASIC
350
32
  3
BRIGHTEN
350
36
  3
COLORCHANGE
350
3A
  3
CONCEPTUAL
350
34
  3
DIM
350
35
  3
EDGECOLOROFF
350
3D
  3
FACEPATTERN
350
39
  3
FLAT
350
2B
  3
FLATWITHEDGES
350
2C
  3
GOURAUD
350
2D
  3
GOURAUDWITHEDGES
350
2E
  3
HIDDEN
350
31
  3
JITTEROFF
350
3B
  3
LINEPATTERN
350
38
  3
OVERHANGOFF
350
3C
  3
REALISTIC
350
33
  3
SHADED
350
42
  3
SHADED_WITH_EDGES
350
41
  3
SHADES_OF_GRAY
350
3E
  3
SKETCHY
350
3F
  3
THICKEN
350
37
  3
WIREFRAME
350
30
  3
X-RAY
350
40
  0
DICTIONARY
  5
10000087
102
{ACAD_REACTORS
330
C
102
}
330
C
100
AcDbDictionary
  3
CEPSNID
350
10000091
  3
CEPSNTYPE
350
10000090
  3
DIMSTYLEDATA
350
100000A7
  3
FINGERPRINTGUID
350
10000092
  3
HYPERLINKBASE
350
1000008A
  3
INSUNITS
350
1000008F
  3
LAYOUTDICT
350
1000008C
  3
LWETCUNION
350
1000008E
  3
PLOTSETDICT
350
1000008D
  3
PSVPSCALE
350
10000094
  3
PUCSBASE
350
10000097
  3
PUCSORGBACK
350
1000009D
  3
PUCSORGBOTTOM
350
10000099
  3
PUCSORGFRONT
350
1000009C
  3
PUCSORGLEFT
350
1000009A
  3
PUCSORGRIGHT
350
1000009B
  3
PUCSORGTOP
350
10000098
  3
PUCSORTHOREF
350
10000095
  3
PUCSORTHOVIEW
350
10000096
  3
STYLESHEET
350
1000008B
  3
TSTACKALIGN
350
10000088
  3
TSTACKSIZE
350
10000089
  3
UCSBASE
350
100000A0
  3
UCSORGBACK
350
100000A6
  3
UCSORGBOTTOM
350
100000A2
  3
UCSORGFRONT
350
100000A5
  3
UCSORGLEFT
350
100000A3
  3
UCSORGRIGHT
350
100000A4
  3
UCSORGTOP
350
100000A1
  3
UCSORTHOREF
350
1000009E
  3
UCSORTHOVIEW
350
1000009F
  3
VERSIONGUID
350
10000093
  0
DICTIONARY
  5
100000A8
102
{ACAD_REACTORS
330
C
102
}
330
C
100
AcDbDictionary
  3
CANNOSCALE
350
100000B2
  3
CMLEADERSTYLE
350
100000AA
  3
CTABLESTYLE
350
100000A9
  3
DIMASSOC
350
100000AD
  3
HIDETEXT
350
100000AE
  3
MSLTSCALE
350
100000B3
  0
XRECORD
  5
100000AF
102
{ACAD_REACTORS
330
C
102
}
330
C
100
AcDbXrecord
  1
DWGPROPS COOKIE
  2

  3

  4

  6
File was created by BTDwgCreate
  7

  8
onshape
  9

300
=
301
=
302
=
303
=
304
=
305
=
306
=
307
=
308
=
309
=
 40
0.0
 41
2461065.782000857
 42
2461065.78200088
  1

 90
        0
  0
DICTIONARY
  5
10000001
102
{ACAD_REACTORS
330
C
102
}
330
C
100
AcDbDictionary
280
     1
  3
DIM_UNITS
360
10000003
  3
DWGGEN_VERSION
360
10000002
  3
FIRST_ANGLE
360
10000005
  0
XRECORD
  5
100000B1
102
{ACAD_REACTORS
330
100000B0
102
}
330
100000B0
100
AcDbXrecord
102
VTR_0.000_0.000_1.000_1.000_VISUALSTYLE
340
2F
102
VTR_0.000_0.000_1.000_1.000_GRIDDISPLAY
 70
     3
102
VTR_0.000_0.000_1.000_1.000_GRIDMAJOR
 70
     5
102
VTR_0.000_0.000_1.000_1.000_DEFAULTLIGHTING
280
     1
102
VTR_0.000_0.000_1.000_1.000_DEFAULTLIGHTINGTYPE
 70
     1
102
VTR_0.000_0.000_1.000_1.000_BRIGHTNESS
141
0.0
102
VTR_0.000_0.000_1.000_1.000_CONTRAST
142
0.0
  0
SORTENTSTABLE
  5
10000086
102
{ACAD_REACTORS
330
10000085
102
}
330
10000085
100
AcDbSortentsTable
330
1F
  0
XRECORD
  5
1000005B
102
{ACAD_REACTORS
330
1000005A
102
}
330
1000005A
100
AcDbXrecord
1000
JFp
  0
XRECORD
  5
1000005C
102
{ACAD_REACTORS
330
1000005A
102
}
330
1000005A
100
AcDbXrecord
1000
JFr
  0
XRECORD
  5
1000005F
102
{ACAD_REACTORS
330
1000005E
102
}
330
1000005E
100
AcDbXrecord
1000
JFl
  0
XRECORD
  5
10000060
102
{ACAD_REACTORS
330
1000005E
102
}
330
1000005E
100
AcDbXrecord
1000
JFn
  0
XRECORD
  5
10000063
102
{ACAD_REACTORS
330
10000062
102
}
330
10000062
100
AcDbXrecord
1000
JFh
  0
XRECORD
  5
10000064
102
{ACAD_REACTORS
330
10000062
102
}
330
10000062
100
AcDbXrecord
1000
JFj
  0
XRECORD
  5
10000067
102
{ACAD_REACTORS
330
10000066
102
}
330
10000066
100
AcDbXrecord
1000
JFd
  0
XRECORD
  5
10000068
102
{ACAD_REACTORS
330
10000066
102
}
330
10000066
100
AcDbXrecord
1000
JFf
  0
XRECORD
  5
1000006B
102
{ACAD_REACTORS
330
1000006A
102
}
330
1000006A
100
AcDbXrecord
1000
JFZ
  0
XRECORD
  5
1000006C
102
{ACAD_REACTORS
330
1000006A
102
}
330
1000006A
100
AcDbXrecord
1000
JFb
  0
XRECORD
  5
1000006F
102
{ACAD_REACTORS
330
1000006E
102
}
330
1000006E
100
AcDbXrecord
1000
JFF
  0
XRECORD
  5
10000070
102
{ACAD_REACTORS
330
1000006E
102
}
330
1000006E
100
AcDbXrecord
1000
JFH
  0
XRECORD
  5
10000073
102
{ACAD_REACTORS
330
10000072
102
}
330
10000072
100
AcDbXrecord
1000
JFB
  0
XRECORD
  5
10000074
102
{ACAD_REACTORS
330
10000072
102
}
330
10000072
100
AcDbXrecord
1000
JFD
  0
XRECORD
  5
10000077
102
{ACAD_REACTORS
330
10000076
102
}
330
10000076
100
AcDbXrecord
1000
JFJ
  0
XRECORD
  5
10000078
102
{ACAD_REACTORS
330
10000076
102
}
330
10000076
100
AcDbXrecord
1000
JFL
  0
XRECORD
  5
1000007B
102
{ACAD_REACTORS
330
1000007A
102
}
330
1000007A
100
AcDbXrecord
1000
JFN
  0
XRECORD
  5
1000007C
102
{ACAD_REACTORS
330
1000007A
102
}
330
1000007A
100
AcDbXrecord
1000
JFP
  0
XRECORD
  5
1000007F
102
{ACAD_REACTORS
330
1000007E
102
}
330
1000007E
100
AcDbXrecord
1000
JFR
  0
XRECORD
  5
10000080
102
{ACAD_REACTORS
330
1000007E
102
}
330
1000007E
100
AcDbXrecord
1000
JFT
  0
XRECORD
  5
10000083
102
{ACAD_REACTORS
330
10000082
102
}
330
10000082
100
AcDbXrecord
1000
JFV
  0
XRECORD
  5
10000084
102
{ACAD_REACTORS
330
10000082
102
}
330
10000082
100
AcDbXrecord
1000
JFX
  0
MATERIAL
  5
45
102
{ACAD_REACTORS
330
43
102
}
102
{ACAD_XDICTIONARY
360
100000B6
102
}
330
43
100
AcDbMaterial
  1
BYBLOCK
  0
MATERIAL
  5
44
102
{ACAD_REACTORS
330
43
102
}
102
{ACAD_XDICTIONARY
360
100000B4
102
}
330
43
100
AcDbMaterial
  1
BYLAYER
  0
MATERIAL
  5
46
102
{ACAD_REACTORS
330
43
102
}
102
{ACAD_XDICTIONARY
360
100000B8
102
}
330
43
100
AcDbMaterial
  1
GLOBAL
  0
ACAD_PROXY_OBJECT
  5
5C
102
{ACAD_REACTORS
330
5B
102
}
330
5B
100
AcDbProxyObject
 90
      499
 91
      505
 93
      610
310
40901902A4063FBFFFFFE056BD1B81E855B9FC0AD7A3703D0AD73F4214DD185B99185C9900AD7A3703D0AC73F90141901A02B5E8DC0F42B1CFC02B5E8DC0F42B1CFE5764000000000000300FC0
340
14
340
0
340
11
340
0
 94
        0
1001
ACAD_MLEADERVER
1070
     2
  0
MLINESTYLE
  5
18
102
{ACAD_REACTORS
330
17
102
}
330
17
100
AcDbMlineStyle
  2
Standard
 70
     0
  3

 62
   256
 51
90.0
 52
90.0
 71
     2
 49
0.5
 62
   256
  6
BYLAYER
 49
-0.5
 62
   256
  6
BYLAYER
  0
ACAD_PROXY_OBJECT
  5
10000023
102
{ACAD_REACTORS
330
47
102
}
330
47
100
AcDbProxyObject
 90
      499
 91
      503
 93
      121
310
9053130303A310000000000001650100
  0
ACAD_PROXY_OBJECT
  5
1000001D
102
{ACAD_REACTORS
330
47
102
}
330
47
100
AcDbProxyObject
 90
      499
 91
      503
 93
      113
310
90431303A310000000000000910100
  0
ACAD_PROXY_OBJECT
  5
1000001E
102
{ACAD_REACTORS
330
47
102
}
330
47
100
AcDbProxyObject
 90
      499
 91
      503
 93
      113
310
90431323A310000000000000A10100
  0
ACAD_PROXY_OBJECT
  5
1000001F
102
{ACAD_REACTORS
330
47
102
}
330
47
100
AcDbProxyObject
 90
      499
 91
      503
 93
      113
310
90431363A310000000000000C10100
  0
ACAD_PROXY_OBJECT
  5
10000006
102
{ACAD_REACTORS
330
47
102
}
330
47
100
AcDbProxyObject
 90
      499
 91
      503
 93
       41
310
903313A31500
  0
ACAD_PROXY_OBJECT
  5
1000000D
102
{ACAD_REACTORS
330
47
102
}
330
47
100
AcDbProxyObject
 90
      499
 91
      503
 93
      113
310
904313A31304000000000000244000
  0
ACAD_PROXY_OBJECT
  5
10000016
102
{ACAD_REACTORS
330
47
102
}
330
47
100
AcDbProxyObject
 90
      499
 91
      503
 93
      121
310
905313A3130304000000000000594000
  0
ACAD_PROXY_OBJECT
  5
1000000E
102
{ACAD_REACTORS
330
47
102
}
330
47
100
AcDbProxyObject
 90
      499
 91
      503
 93
      113
310
904313A31324000000000000284000
  0
ACAD_PROXY_OBJECT
  5
1000000F
102
{ACAD_REACTORS
330
47
102
}
330
47
100
AcDbProxyObject
 90
      499
 91
      503
 93
      113
310
904313A31364000000000000304000
  0
ACAD_PROXY_OBJECT
  5
10000007
102
{ACAD_REACTORS
330
47
102
}
330
47
100
AcDbProxyObject
 90
      499
 91
      503
 93
      105
310
903313A324000000000000004000
  0
ACAD_PROXY_OBJECT
  5
10000010
102
{ACAD_REACTORS
330
47
102
}
330
47
100
AcDbProxyObject
 90
      499
 91
      503
 93
      113
310
904313A32304000000000000344000
  0
ACAD_PROXY_OBJECT
  5
10000011
102
{ACAD_REACTORS
330
47
102
}
330
47
100
AcDbProxyObject
 90
      499
 91
      503
 93
      113
310
904313A32354000000000000394000
  0
ACAD_PROXY_OBJECT
  5
10000008
102
{ACAD_REACTORS
330
47
102
}
330
47
100
AcDbProxyObject
 90
      499
 91
      503
 93
      105
310
903313A334000000000000084000
  0
ACAD_PROXY_OBJECT
  5
10000012
102
{ACAD_REACTORS
330
47
102
}
330
47
100
AcDbProxyObject
 90
      499
 91
      503
 93
      113
310
904313A33324000000000000404000
  0
ACAD_PROXY_OBJECT
  5
10000009
102
{ACAD_REACTORS
330
47
102
}
330
47
100
AcDbProxyObject
 90
      499
 91
      503
 93
      105
310
903313A344000000000000104000
  0
ACAD_PROXY_OBJECT
  5
10000013
102
{ACAD_REACTORS
330
47
102
}
330
47
100
AcDbProxyObject
 90
      499
 91
      503
 93
      113
310
904313A34304000000000000444000
  0
ACAD_PROXY_OBJECT
  5
1000000A
102
{ACAD_REACTORS
330
47
102
}
330
47
100
AcDbProxyObject
 90
      499
 91
      503
 93
      105
310
903313A354000000000000144000
  0
ACAD_PROXY_OBJECT
  5
10000014
102
{ACAD_REACTORS
330
47
102
}
330
47
100
AcDbProxyObject
 90
      499
 91
      503
 93
      113
310
904313A35304000000000000494000
  0
ACAD_PROXY_OBJECT
  5
1000000B
102
{ACAD_REACTORS
330
47
102
}
330
47
100
AcDbProxyObject
 90
      499
 91
      503
 93
      105
310
903313A364000000000000184000
  0
ACAD_PROXY_OBJECT
  5
1000000C
102
{ACAD_REACTORS
330
47
102
}
330
47
100
AcDbProxyObject
 90
      499
 91
      503
 93
      105
310
903313A384000000000000204000
  0
ACAD_PROXY_OBJECT
  5
10000015
102
{ACAD_REACTORS
330
47
102
}
330
47
100
AcDbProxyObject
 90
      499
 91
      503
 93
      113
310
904313A38304000000000000544000
  0
ACAD_PROXY_OBJECT
  5
10000020
102
{ACAD_REACTORS
330
47
102
}
330
47
100
AcDbProxyObject
 90
      499
 91
      503
 93
      113
310
90432303A310000000000000D10100
  0
ACAD_PROXY_OBJECT
  5
10000017
102
{ACAD_REACTORS
330
47
102
}
330
47
100
AcDbProxyObject
 90
      499
 91
      503
 93
      105
310
903323A310000000000000010100
  0
ACAD_PROXY_OBJECT
  5
10000021
102
{ACAD_REACTORS
330
47
102
}
330
47
100
AcDbProxyObject
 90
      499
 91
      503
 93
      113
310
90433323A310000000000001010100
  0
ACAD_PROXY_OBJECT
  5
10000018
102
{ACAD_REACTORS
330
47
102
}
330
47
100
AcDbProxyObject
 90
      499
 91
      503
 93
      105
310
903333A310000000000000210100
  0
ACAD_PROXY_OBJECT
  5
10000019
102
{ACAD_REACTORS
330
47
102
}
330
47
100
AcDbProxyObject
 90
      499
 91
      503
 93
      105
310
903343A310000000000000410100
  0
ACAD_PROXY_OBJECT
  5
10000022
102
{ACAD_REACTORS
330
47
102
}
330
47
100
AcDbProxyObject
 90
      499
 91
      503
 93
      113
310
90435303A310000000000001250100
  0
ACAD_PROXY_OBJECT
  5
1000001A
102
{ACAD_REACTORS
330
47
102
}
330
47
100
AcDbProxyObject
 90
      499
 91
      503
 93
      105
310
903353A310000000000000510100
  0
ACAD_PROXY_OBJECT
  5
1000001B
102
{ACAD_REACTORS
330
47
102
}
330
47
100
AcDbProxyObject
 90
      499
 91
      503
 93
      105
310
903363A310000000000000610100
  0
ACAD_PROXY_OBJECT
  5
1000001C
102
{ACAD_REACTORS
330
47
102
}
330
47
100
AcDbProxyObject
 90
      499
 91
      503
 93
      105
310
903383A310000000000000810100
  0
ACAD_PROXY_OBJECT
  5
2F
102
{ACAD_REACTORS
330
2A
102
}
330
2A
100
AcDbProxyObject
 90
      499
 91
      501
 93
      436
310
42CC9915DA5C99599C985B595049028333333333333E33F0000000000000F90107901411070040501600405405064090741402480A0340
1001
ACAD
1000
AcDbSavedByObjectVersion
1070
     0
  0
ACAD_PROXY_OBJECT
  5
32
102
{ACAD_REACTORS
330
2A
102
}
330
2A
100
AcDbProxyObject
 90
      499
 91
      501
 93
      388
310
4150985CDA58D07406404333333333333E33F0000000000000F90107A41107004050150841D405064090741402480A0350
1001
ACAD
1000
AcDbSavedByObjectVersion
1070
     0
  0
ACAD_PROXY_OBJECT
  5
36
102
{ACAD_REACTORS
330
2A
102
}
330
2A
100
AcDbProxyObject
 90
      499
 91
      501
 93
      428
310
42109C9A59DA1D195B90C409028333333333333E33F0000000000000F9010790141107004050150841D405064090741402480A029950
1001
ACAD
1000
AcDbSavedByObjectVersion
1070
     0
  0
ACAD_PROXY_OBJECT
  5
3A
102
{ACAD_REACTORS
330
2A
102
}
330
2A
100
AcDbProxyObject
 90
      499
 91
      501
 93
      452
310
42D0DBDB1BDC90DA185B99D95104090240C333333333333E33F0000000000000F90108901411070040501508421405064090741402480A0350
1001
ACAD
1000
AcDbSavedByObjectVersion
1070
     0
  0
ACAD_PROXY_OBJECT
  5
34
102
{ACAD_REACTORS
330
2A
102
}
330
2A
100
AcDbProxyObject
 90
      499
 91
      501
 93
      500
310
4290DBDB98D95C1D1D585B10940D028333333333333E33F0000000000000F90107902409070040501000000000018199010841D405064090740C02480A0340
1001
ACAD
1000
AcDbSavedByObjectVersion
1070
     0
  0
ACAD_PROXY_OBJECT
  5
35
102
{ACAD_REACTORS
330
2A
102
}
330
2A
100
AcDbProxyObject
 90
      499
 91
      501
 93
      412
310
40D11A5B50B409028333333333333E33F0000000000000F9010790141107004050150841D405064090741402480A02677FFFFFD0
1001
ACAD
1000
AcDbSavedByObjectVersion
1070
     0
  0
ACAD_PROXY_OBJECT
  5
3D
102
{ACAD_REACTORS
330
2A
102
}
330
2A
100
AcDbProxyObject
 90
      499
 91
      501
 93
      452
310
43115919D950DBDB1BDC93D999916409028333333333333E33F0000000000000F9010790141107004050150841D405064090741402480A0350
1001
ACAD
1000
AcDbSavedByObjectVersion
1070
     0
  0
ACAD_PROXY_OBJECT
  5
39
102
{ACAD_REACTORS
330
2A
102
}
330
2A
100
AcDbProxyObject
 90
      499
 91
      501
 93
      444
310
42D19858D95C185D1D195C9B90F409028333333333333E33F0000000000000F9010790141107004050150841D405064090741402480A0350
1001
ACAD
1000
AcDbSavedByObjectVersion
1070
     0
  0
ACAD_PROXY_OBJECT
  5
2B
102
{ACAD_REACTORS
330
2A
102
}
330
2A
100
AcDbProxyObject
 90
      499
 91
      501
 93
      380
310
41119B185D240901404333333333333E33F0000000000000F9010740A907004050150841D405064090741402480A1B50
1001
ACAD
1000
AcDbSavedByObjectVersion
1070
     0
  0
ACAD_PROXY_OBJECT
  5
2C
102
{ACAD_REACTORS
330
2A
102
}
330
2A
100
AcDbProxyObject
 90
      499
 91
      501
 93
      468
310
43519B185D15DA5D1A115919D95CD0140901404333333333333E33F0000000000000F90107409019070040501600405405064090741402480A1B50
1001
ACAD
1000
AcDbSavedByObjectVersion
1070
     0
  0
ACAD_PROXY_OBJECT
  5
2D
102
{ACAD_REACTORS
330
2A
102
}
330
2A
100
AcDbProxyObject
 90
      499
 91
      501
 93
      404
310
41D1DBDD5C985D5910240902404333333333333E33F0000000000000F9010740A9070040501641D405064090741402480A1B50
1001
ACAD
1000
AcDbSavedByObjectVersion
1070
     0
  0
ACAD_PROXY_OBJECT
  5
2E
102
{ACAD_REACTORS
330
2A
102
}
330
2A
100
AcDbProxyObject
 90
      499
 91
      501
 93
      492
310
4411DBDD5C985D5915DA5D1A115919D95CD0340902404333333333333E33F0000000000000F90107409019070040501600405405064090741402480A1B50
1001
ACAD
1000
AcDbSavedByObjectVersion
1070
     0
  0
ACAD_PROXY_OBJECT
  5
31
102
{ACAD_REACTORS
330
2A
102
}
330
2A
100
AcDbProxyObject
 90
      499
 91
      501
 93
      476
310
41921A5919195B90640502408333333333333E33F0000000000000F901079024090700405020000000000001110200405405064090740C02480A0340
1001
ACAD
1000
AcDbSavedByObjectVersion
1070
     0
  0
ACAD_PROXY_OBJECT
  5
3B
102
{ACAD_REACTORS
330
2A
102
}
330
2A
100
AcDbProxyObject
 90
      499
 91
      501
 93
      428
310
42529A5D1D195C93D999914409028333333333333E33F0000000000000F9010790141107004050150A41D405064090741402480A0350
1001
ACAD
1000
AcDbSavedByObjectVersion
1070
     0
  0
ACAD_PROXY_OBJECT
  5
38
102
{ACAD_REACTORS
330
2A
102
}
330
2A
100
AcDbProxyObject
 90
      499
 91
      501
 93
      444
310
42D31A5B995C185D1D195C9B90E409028333333333333E33F0000000000000F9010790141107004050750841D405064090741402483A0350
1001
ACAD
1000
AcDbSavedByObjectVersion
1070
     0
  0
ACAD_PROXY_OBJECT
  5
3C
102
{ACAD_REACTORS
330
2A
102
}
330
2A
100
AcDbProxyObject
 90
      499
 91
      501
 93
      444
310
42D3DD995C9A185B99D3D999915409028333333333333E33F0000000000000F9010790141107004050150941D405064090741402480A0350
1001
ACAD
1000
AcDbSavedByObjectVersion
1070
     0
  0
ACAD_PROXY_OBJECT
  5
33
102
{ACAD_REACTORS
330
2A
102
}
330
2A
100
AcDbProxyObject
 90
      499
 91
      501
 93
      428
310
425499585B1A5CDD1A58D08409038333333333333E33F0000000000000F9010740A907004050150800405405064090740C02480A1B40
1001
ACAD
1000
AcDbSavedByObjectVersion
1070
     0
  0
ACAD_PROXY_OBJECT
  5
42
102
{ACAD_REACTORS
330
2A
102
}
330
2A
100
AcDbProxyObject
 90
      499
 91
      501
 93
      420
310
4194DA1859195911B40902404333333333333E33F0000000000000F9010740A41107004050150800405405064090840C02480A0B40
1001
ACAD
1000
AcDbSavedByObjectVersion
1070
     0
  0
ACAD_PROXY_OBJECT
  5
41
102
{ACAD_REACTORS
330
2A
102
}
330
2A
100
AcDbProxyObject
 90
      499
 91
      501
 93
      516
310
4454DA18591959081DDA5D1A08195919D95CD1A40902404333333333333E33F0000000000000F901074090142907004050250800405405064090740C02480A0B40
1001
ACAD
1000
AcDbSavedByObjectVersion
1070
     0
  0
ACAD_PROXY_OBJECT
  5
3E
102
{ACAD_REACTORS
330
2A
102
}
330
2A
100
AcDbProxyObject
 90
      499
 91
      501
 93
      532
310
4394DA1859195CC81BD98811DC985E5174090240C333333333333E33F0000000000000F901079024090741D01000000000000111010841D405064090740C02480A0340
1001
ACAD
1000
AcDbSavedByObjectVersion
1070
     0
  0
ACAD_PROXY_OBJECT
  5
3F
102
{ACAD_REACTORS
330
2A
102
}
330
2A
100
AcDbProxyObject
 90
      499
 91
      501
 93
      476
310
41D4DAD95D18DA1E51840502408333333333333E33F0000000000000F901079024090741D01000000000000111010B41D405064090741802480A0340
1001
ACAD
1000
AcDbSavedByObjectVersion
1070
     0
  0
ACAD_PROXY_OBJECT
  5
37
102
{ACAD_REACTORS
330
2A
102
}
330
2A
100
AcDbProxyObject
 90
      499
 91
      501
 93
      412
310
41D51A1A58DAD95B90D409028333333333333E33F0000000000000F9010790141107004050150C41D405064090741402480A0350
1001
ACAD
1000
AcDbSavedByObjectVersion
1070
     0
  0
ACAD_PROXY_OBJECT
  5
30
102
{ACAD_REACTORS
330
2A
102
}
330
2A
100
AcDbProxyObject
 90
      499
 91
      501
 93
      420
310
4255DA5C99599C985B595059028333333333333E33F0000000000000F90107901411070040501600405405064090740C02480A0340
1001
ACAD
1000
AcDbSavedByObjectVersion
1070
     0
  0
ACAD_PROXY_OBJECT
  5
40
102
{ACAD_REACTORS
330
2A
102
}
330
2A
100
AcDbProxyObject
 90
      499
 91
      501
 93
      404
310
41560B54985E51940902404000000000000E03F0000000000000F9010740501907004050150841D405064090740C02480A1B40
1001
ACAD
1000
AcDbSavedByObjectVersion
1070
     0
  0
XRECORD
  5
10000091
102
{ACAD_REACTORS
330
10000087
102
}
330
10000087
100
AcDbXrecord
340
0
  0
XRECORD
  5
10000090
102
{ACAD_REACTORS
330
10000087
102
}
330
10000087
100
AcDbXrecord
 90
        0
  0
XRECORD
  5
100000A7
102
{ACAD_REACTORS
330
10000087
102
}
330
10000087
100
AcDbXrecord
1000
DSTYLE
1002
{
1070
   143
 40
12.0
1070
   340
340
11
1002
}
  0
XRECORD
  5
10000092
102
{ACAD_REACTORS
330
10000087
102
}
330
10000087
100
AcDbXrecord
  1
{7572b533-7839-7778-b970-333534347178}
  0
XRECORD
  5
1000008A
102
{ACAD_REACTORS
330
10000087
102
}
330
10000087
100
AcDbXrecord
  1

  0
XRECORD
  5
1000008F
102
{ACAD_REACTORS
330
10000087
102
}
330
10000087
100
AcDbXrecord
 90
        1
  0
XRECORD
  5
1000008C
102
{ACAD_REACTORS
330
10000087
102
}
330
10000087
100
AcDbXrecord
340
1A
  0
XRECORD
  5
1000008E
102
{ACAD_REACTORS
330
10000087
102
}
330
10000087
100
AcDbXrecord
 90
    10781
  0
XRECORD
  5
1000008D
102
{ACAD_REACTORS
330
10000087
102
}
330
10000087
100
AcDbXrecord
340
19
  0
XRECORD
  5
10000094
102
{ACAD_REACTORS
330
10000087
102
}
330
10000087
100
AcDbXrecord
 40
0.0
  0
XRECORD
  5
10000097
102
{ACAD_REACTORS
330
10000087
102
}
330
10000087
100
AcDbXrecord
340
0
  0
XRECORD
  5
1000009D
102
{ACAD_REACTORS
330
10000087
102
}
330
10000087
100
AcDbXrecord
 10
0.0
 20
0.0
 30
0.0
  0
XRECORD
  5
10000099
102
{ACAD_REACTORS
330
10000087
102
}
330
10000087
100
AcDbXrecord
 10
0.0
 20
0.0
 30
0.0
  0
XRECORD
  5
1000009C
102
{ACAD_REACTORS
330
10000087
102
}
330
10000087
100
AcDbXrecord
 10
0.0
 20
0.0
 30
0.0
  0
XRECORD
  5
1000009A
102
{ACAD_REACTORS
330
10000087
102
}
330
10000087
100
AcDbXrecord
 10
0.0
 20
0.0
 30
0.0
  0
XRECORD
  5
1000009B
102
{ACAD_REACTORS
330
10000087
102
}
330
10000087
100
AcDbXrecord
 10
0.0
 20
0.0
 30
0.0
  0
XRECORD
  5
10000098
102
{ACAD_REACTORS
330
10000087
102
}
330
10000087
100
AcDbXrecord
 10
0.0
 20
0.0
 30
0.0
  0
XRECORD
  5
10000095
102
{ACAD_REACTORS
330
10000087
102
}
330
10000087
100
AcDbXrecord
340
0
  0
XRECORD
  5
10000096
102
{ACAD_REACTORS
330
10000087
102
}
330
10000087
100
AcDbXrecord
 70
     0
  0
XRECORD
  5
1000008B
102
{ACAD_REACTORS
330
10000087
102
}
330
10000087
100
AcDbXrecord
  1

  0
XRECORD
  5
10000088
102
{ACAD_REACTORS
330
10000087
102
}
330
10000087
100
AcDbXrecord
 90
        1
  0
XRECORD
  5
10000089
102
{ACAD_REACTORS
330
10000087
102
}
330
10000087
100
AcDbXrecord
 90
       70
  0
XRECORD
  5
100000A0
102
{ACAD_REACTORS
330
10000087
102
}
330
10000087
100
AcDbXrecord
340
0
  0
XRECORD
  5
100000A6
102
{ACAD_REACTORS
330
10000087
102
}
330
10000087
100
AcDbXrecord
 10
0.0
 20
0.0
 30
0.0
  0
XRECORD
  5
100000A2
102
{ACAD_REACTORS
330
10000087
102
}
330
10000087
100
AcDbXrecord
 10
0.0
 20
0.0
 30
0.0
  0
XRECORD
  5
100000A5
102
{ACAD_REACTORS
330
10000087
102
}
330
10000087
100
AcDbXrecord
 10
0.0
 20
0.0
 30
0.0
  0
XRECORD
  5
100000A3
102
{ACAD_REACTORS
330
10000087
102
}
330
10000087
100
AcDbXrecord
 10
0.0
 20
0.0
 30
0.0
  0
XRECORD
  5
100000A4
102
{ACAD_REACTORS
330
10000087
102
}
330
10000087
100
AcDbXrecord
 10
0.0
 20
0.0
 30
0.0
  0
XRECORD
  5
100000A1
102
{ACAD_REACTORS
330
10000087
102
}
330
10000087
100
AcDbXrecord
 10
0.0
 20
0.0
 30
0.0
  0
XRECORD
  5
1000009E
102
{ACAD_REACTORS
330
10000087
102
}
330
10000087
100
AcDbXrecord
340
0
  0
XRECORD
  5
1000009F
102
{ACAD_REACTORS
330
10000087
102
}
330
10000087
100
AcDbXrecord
 70
     0
  0
XRECORD
  5
10000093
102
{ACAD_REACTORS
330
10000087
102
}
330
10000087
100
AcDbXrecord
  1
{FAEB1C32-E019-11D5-929B-00C0DF256EC4}
  0
DICTIONARYVAR
  5
100000B2
102
{ACAD_REACTORS
330
100000A8
102
}
330
100000A8
100
DictionaryVariables
280
     0
  1
1:1
  0
DICTIONARYVAR
  5
100000AA
102
{ACAD_REACTORS
330
100000A8
102
}
330
100000A8
100
DictionaryVariables
280
     0
  1
Standard
  0
DICTIONARYVAR
  5
100000A9
102
{ACAD_REACTORS
330
100000A8
102
}
330
100000A8
100
DictionaryVariables
280
     0
  1
Standard
  0
DICTIONARYVAR
  5
100000AD
102
{ACAD_REACTORS
330
100000A8
102
}
330
100000A8
100
DictionaryVariables
280
     0
  1
2
  0
DICTIONARYVAR
  5
100000AE
102
{ACAD_REACTORS
330
100000A8
102
}
330
100000A8
100
DictionaryVariables
280
     0
  1
1
  0
DICTIONARYVAR
  5
100000B3
102
{ACAD_REACTORS
330
100000A8
102
}
330
100000A8
100
DictionaryVariables
280
     0
  1
1
  0
XRECORD
  5
10000003
102
{ACAD_REACTORS
330
10000001
102
}
330
10000001
100
AcDbXrecord
 70
     2
  0
XRECORD
  5
10000002
102
{ACAD_REACTORS
330
10000001
102
}
330
10000001
100
AcDbXrecord
1040
89.0
  0
ACAD_PROXY_OBJECT
  5
10000005
102
{ACAD_REACTORS
330
10000001
102
}
330
10000001
100
AcDbProxyObject
 90
      499
 91
      509
 93
       34
310
40C8804000
  0
DICTIONARY
  5
100000B6
330
45
100
AcDbDictionary
280
     1
  3
ACAD_XREC_ROUNDTRIP
360
100000B7
  0
DICTIONARY
  5
100000B4
330
44
100
AcDbDictionary
280
     1
  3
ACAD_XREC_ROUNDTRIP
360
100000B5
  0
DICTIONARY
  5
100000B8
330
46
100
AcDbDictionary
280
     1
  3
ACAD_XREC_ROUNDTRIP
360
100000B9
  0
XRECORD
  5
100000B7
102
{ACAD_REACTORS
330
100000B6
102
}
330
100000B6
100
AcDbXrecord
102
MATERIAL
148
0.0
149
0.0
149
0.0
 93
        0
 94
      127
282
     0
 72
     1
 77
     1
171
     1
175
     1
179
     1
273
     0
  0
XRECORD
  5
100000B5
102
{ACAD_REACTORS
330
100000B4
102
}
330
100000B4
100
AcDbXrecord
102
MATERIAL
148
0.0
149
0.0
149
0.0
 93
        0
 94
      127
282
     0
 72
     1
 77
     1
171
     1
175
     1
179
     1
273
     0
  0
XRECORD
  5
100000B9
102
{ACAD_REACTORS
330
100000B8
102
}
330
100000B8
100
AcDbXrecord
102
MATERIAL
148
0.0
149
0.0
149
0.0
 93
        0
 94
      127
282
     0
 72
     1
 77
     1
171
     1
175
     1
179
     1
273
     0
  0
ENDSEC
  0
EOF
